M48
; DRILL file {KiCad 9.0.4} date 2025-09-20T18:39:02+0300
; FORMAT={-:-/ absolute / inch / decimal}
; #@! TF.CreationDate,2025-09-20T18:39:02+03:00
; #@! TF.GenerationSoftware,Kicad,Pcbnew,9.0.4
; #@! TF.FileFunction,Plated,1,2,PTH
FMAT,2
INCH
; #@! TA.AperFunction,Plated,PTH,ComponentDrill
T1C0.0079
; #@! TA.AperFunction,Plated,PTH,ViaDrill
T2C0.0118
; #@! TA.AperFunction,Plated,PTH,ViaDrill
T3C0.0157
; #@! TA.AperFunction,Plated,PTH,ComponentDrill
T4C0.0157
; #@! TA.AperFunction,Plated,PTH,ViaDrill
T5C0.0197
; #@! TA.AperFunction,Plated,PTH,ComponentDrill
T6C0.0197
; #@! TA.AperFunction,Plated,PTH,ComponentDrill
T7C0.0394
; #@! TA.AperFunction,Plated,PTH,ComponentDrill
T8C0.0866
; #@! TA.AperFunction,Plated,PTH,ComponentDrill
T9C0.1063
%
G90
G05
T1
X6.0472Y-3.6716
X6.0472Y-3.7267
X6.0748Y-3.644
X6.0748Y-3.6991
X6.0748Y-3.7543
X6.1014Y-3.6716
X6.1014Y-3.7267
X6.1299Y-3.644
X6.1299Y-3.6991
X6.1299Y-3.7543
X6.1575Y-3.6716
X6.1575Y-3.7267
T2
X5.6535Y-3.4488
X5.6535Y-3.6516
X5.6772Y-3.4488
X5.6772Y-3.6516
X5.7008Y-3.4488
X5.7008Y-3.6516
X5.7244Y-3.4488
X5.7244Y-3.6516
X5.7634Y-3.902
X5.7638Y-3.7756
X5.7795Y-3.3465
X5.8031Y-3.3465
X5.8031Y-4.439
X5.8268Y-3.3465
X5.8661Y-4.5039
X5.8661Y-4.5276
X5.8661Y-4.5512
X5.8819Y-3.4961
X5.886Y-3.7205
X5.8898Y-4.5039
X5.8898Y-4.5276
X5.892Y-4.205
X5.8937Y-3.8425
X5.8937Y-3.8937
X5.8937Y-4.255
X5.897Y-4.581
X5.9121Y-4.2292
X5.9134Y-3.3602
X5.9134Y-3.3917
X5.9134Y-3.4232
X5.9134Y-4.5453
X5.9198Y-4.3023
X5.9252Y-3.6802
X5.9301Y-4.2551
X5.937Y-4.5453
X5.9429Y-3.4724
X5.9449Y-3.3602
X5.9449Y-3.3917
X5.9449Y-3.4232
X5.9449Y-3.9843
X5.9488Y-3.8386
X5.9488Y-3.8858
X5.949Y-3.7559
X5.949Y-3.7874
X5.9522Y-3.5025
X5.9548Y-4.1633
X5.9606Y-4.5453
X5.9614Y-4.2441
X5.9843Y-4.5453
X5.9862Y-4.1654
X6.0079Y-4.5453
X6.0345Y-3.3042
X6.0354Y-3.4862
X6.0866Y-4.1417
X6.1181Y-4.1434
X6.1192Y-4.176
X6.1511Y-4.1776
X6.1654Y-4.3445
X6.2154Y-4.0087
X6.2165Y-3.9457
X6.2185Y-4.2067
X6.2185Y-4.2303
X6.2185Y-4.2539
X6.311Y-3.9961
X6.3436Y-3.9961
X6.3484Y-4.689
X6.3754Y-4.2678
X6.378Y-3.9955
X6.4075Y-4.2697
X6.4173Y-3.7165
X6.4173Y-3.7677
X6.4252Y-3.9961
X6.4291Y-3.4843
X6.4291Y-4.0591
X6.4291Y-3.4213
X6.4685Y-4.5354
X6.4685Y-4.5591
X6.4693Y-4.512
X6.4724Y-4.7126
X6.474Y-4.1576
X6.4921Y-4.5591
X6.4921Y-4.5827
X6.4921Y-4.6063
X6.5Y-4.4665
X6.5157Y-4.6181
X6.5354Y-4.3976
X6.5354Y-4.4213
X6.5394Y-4.6181
X6.5591Y-4.3976
X6.5591Y-4.4213
X6.563Y-4.6181
X6.622Y-4.4488
X6.622Y-4.5551
X6.6457Y-4.4488
X6.6457Y-4.5551
X6.6693Y-4.4488
X6.6693Y-4.5551
T3
X5.5295Y-3.2335
X5.7205Y-4.7441
X5.7205Y-4.7756
X5.7205Y-4.8071
X5.8031Y-4.0925
X5.8071Y-4.3878
X5.8346Y-4.0925
X5.8504Y-4.3898
X5.8661Y-4.0925
X5.8898Y-4.3898
X5.8976Y-4.0925
X5.9291Y-4.3898
X6.0276Y-4.4764
X6.0591Y-4.4764
X6.1339Y-3.3858
X6.1929Y-3.3858
X6.1961Y-4.8547
X6.252Y-3.3858
X6.2677Y-3.5512
X6.2677Y-3.6378
X6.2697Y-4.4665
X6.2992Y-3.5512
X6.2992Y-3.6378
X6.311Y-3.3858
X6.3307Y-3.5512
X6.3307Y-3.6378
X6.3407Y-4.7559
X6.3622Y-3.5512
X6.3622Y-3.6378
X6.4606Y-3.3858
T4
X5.188Y-4.2758
X5.207Y-4.2299
X5.207Y-4.3217
X5.253Y-4.2108
X5.253Y-4.3407
X5.2989Y-4.2299
X5.2989Y-4.3217
X5.3179Y-4.2758
T5
X6.6634Y-4.5118
T6
X5.1732Y-3.0553
X5.1966Y-2.9989
X5.1966Y-3.1117
X5.253Y-2.9756
X5.253Y-3.135
X5.3093Y-2.9989
X5.3093Y-3.1117
X5.3327Y-3.0553
X6.5177Y-3.0553
X6.5177Y-4.8663
X6.5411Y-2.9989
X6.5411Y-3.1117
X6.5411Y-4.81
X6.5411Y-4.9227
X6.5974Y-2.9756
X6.5974Y-3.135
X6.5974Y-4.7866
X6.5974Y-4.9461
X6.6538Y-2.9989
X6.6538Y-3.1117
X6.6538Y-4.81
X6.6538Y-4.9227
X6.6772Y-3.0553
X6.6772Y-4.8663
T7
X5.3031Y-3.4898
X5.4272Y-3.0197
X5.4291Y-3.4898
X5.5272Y-3.0197
X5.6272Y-3.0197
X5.7272Y-3.0197
X5.7333Y-4.9104
X5.8272Y-3.0197
X5.8333Y-4.9104
X5.9272Y-3.0197
X5.9333Y-4.9104
X6.0272Y-3.0197
X6.0333Y-4.9104
X6.1272Y-3.0197
X6.1333Y-4.9104
X6.2272Y-3.0197
X6.2333Y-4.9104
X6.3272Y-3.0197
X6.3333Y-4.9104
X6.4272Y-3.0197
X6.4333Y-4.9104
T8
X5.253Y-4.2758
T9
X5.252Y-3.0553
X6.5974Y-4.8663
X6.5987Y-3.0553
T7
G00X5.3166Y-4.4567
M15
G01X5.3954Y-4.4567
M16
G05
G00X5.3166Y-4.6929
M15
G01X5.3954Y-4.6929
M16
G05
G00X5.541Y-4.6142
M15
G01X5.541Y-4.5354
M16
G05
M30
