%TF.GenerationSoftware,KiCad,Pcbnew,9.0.4*%
%TF.CreationDate,2025-09-20T18:39:02+03:00*%
%TF.ProjectId,HydraX-Meshtastic-PCB,48796472-6158-42d4-9d65-736874617374,2.1*%
%TF.SameCoordinates,Original*%
%TF.FileFunction,Soldermask,Top*%
%TF.FilePolarity,Negative*%
%FSLAX46Y46*%
G04 Gerber Fmt 4.6, Leading zero omitted, Abs format (unit mm)*
G04 Created by KiCad (PCBNEW 9.0.4) date 2025-09-20 18:39:02*
%MOMM*%
%LPD*%
G01*
G04 APERTURE LIST*
G04 Aperture macros list*
%AMRoundRect*
0 Rectangle with rounded corners*
0 $1 Rounding radius*
0 $2 $3 $4 $5 $6 $7 $8 $9 X,Y pos of 4 corners*
0 Add a 4 corners polygon primitive as box body*
4,1,4,$2,$3,$4,$5,$6,$7,$8,$9,$2,$3,0*
0 Add four circle primitives for the rounded corners*
1,1,$1+$1,$2,$3*
1,1,$1+$1,$4,$5*
1,1,$1+$1,$6,$7*
1,1,$1+$1,$8,$9*
0 Add four rect primitives between the rounded corners*
20,1,$1+$1,$2,$3,$4,$5,0*
20,1,$1+$1,$4,$5,$6,$7,0*
20,1,$1+$1,$6,$7,$8,$9,0*
20,1,$1+$1,$8,$9,$2,$3,0*%
G04 Aperture macros list end*
%ADD10C,0.010000*%
%ADD11RoundRect,0.150000X0.587500X0.150000X-0.587500X0.150000X-0.587500X-0.150000X0.587500X-0.150000X0*%
%ADD12RoundRect,0.200000X-0.275000X0.200000X-0.275000X-0.200000X0.275000X-0.200000X0.275000X0.200000X0*%
%ADD13RoundRect,0.150000X-0.825000X-0.150000X0.825000X-0.150000X0.825000X0.150000X-0.825000X0.150000X0*%
%ADD14RoundRect,0.225000X-0.250000X0.225000X-0.250000X-0.225000X0.250000X-0.225000X0.250000X0.225000X0*%
%ADD15R,1.500000X2.500000*%
%ADD16RoundRect,0.225000X0.250000X-0.225000X0.250000X0.225000X-0.250000X0.225000X-0.250000X-0.225000X0*%
%ADD17RoundRect,0.200000X0.275000X-0.200000X0.275000X0.200000X-0.275000X0.200000X-0.275000X-0.200000X0*%
%ADD18RoundRect,0.237500X-0.300000X-0.237500X0.300000X-0.237500X0.300000X0.237500X-0.300000X0.237500X0*%
%ADD19RoundRect,0.200000X-0.200000X-0.275000X0.200000X-0.275000X0.200000X0.275000X-0.200000X0.275000X0*%
%ADD20RoundRect,0.200000X0.200000X0.275000X-0.200000X0.275000X-0.200000X-0.275000X0.200000X-0.275000X0*%
%ADD21RoundRect,0.225000X-0.225000X-0.250000X0.225000X-0.250000X0.225000X0.250000X-0.225000X0.250000X0*%
%ADD22C,0.700000*%
%ADD23C,4.400000*%
%ADD24RoundRect,0.225000X0.225000X0.250000X-0.225000X0.250000X-0.225000X-0.250000X0.225000X-0.250000X0*%
%ADD25C,0.800000*%
%ADD26C,5.400000*%
%ADD27R,1.000000X1.000000*%
%ADD28R,2.200000X1.050000*%
%ADD29R,1.500000X0.900000*%
%ADD30R,0.900000X1.500000*%
%ADD31C,0.600000*%
%ADD32R,3.800000X3.800000*%
%ADD33RoundRect,0.150000X0.150000X-0.587500X0.150000X0.587500X-0.150000X0.587500X-0.150000X-0.587500X0*%
%ADD34C,1.000000*%
%ADD35RoundRect,0.150000X0.150000X-0.512500X0.150000X0.512500X-0.150000X0.512500X-0.150000X-0.512500X0*%
%ADD36R,1.600000X1.600000*%
%ADD37C,1.600000*%
%ADD38RoundRect,0.250000X0.850000X0.350000X-0.850000X0.350000X-0.850000X-0.350000X0.850000X-0.350000X0*%
%ADD39RoundRect,0.249997X2.950003X2.650003X-2.950003X2.650003X-2.950003X-2.650003X2.950003X-2.650003X0*%
%ADD40RoundRect,0.150000X-0.150000X0.587500X-0.150000X-0.587500X0.150000X-0.587500X0.150000X0.587500X0*%
%ADD41RoundRect,0.250000X-1.050000X-0.550000X1.050000X-0.550000X1.050000X0.550000X-1.050000X0.550000X0*%
%ADD42R,1.700000X1.700000*%
%ADD43C,1.700000*%
%ADD44R,3.500000X3.500000*%
%ADD45RoundRect,0.750000X1.000000X-0.750000X1.000000X0.750000X-1.000000X0.750000X-1.000000X-0.750000X0*%
%ADD46RoundRect,0.875000X0.875000X-0.875000X0.875000X0.875000X-0.875000X0.875000X-0.875000X-0.875000X0*%
G04 APERTURE END LIST*
D10*
%TO.C,SYM1*%
X168601959Y-86401020D02*
X168611151Y-86406957D01*
X168625677Y-86416545D01*
X168645209Y-86429563D01*
X168669419Y-86445789D01*
X168697978Y-86465002D01*
X168730558Y-86486978D01*
X168766831Y-86511497D01*
X168806467Y-86538336D01*
X168849139Y-86567274D01*
X168894518Y-86598088D01*
X168942276Y-86630558D01*
X168992085Y-86664461D01*
X169043615Y-86699575D01*
X169063757Y-86713311D01*
X169123485Y-86754050D01*
X169186376Y-86796948D01*
X169251674Y-86841489D01*
X169318624Y-86887156D01*
X169386469Y-86933435D01*
X169454454Y-86979809D01*
X169521822Y-87025764D01*
X169587819Y-87070783D01*
X169651687Y-87114350D01*
X169712671Y-87155951D01*
X169770015Y-87195069D01*
X169822963Y-87231189D01*
X169870759Y-87263795D01*
X169875929Y-87267322D01*
X169921350Y-87298347D01*
X169965060Y-87328282D01*
X170006689Y-87356867D01*
X170045866Y-87383846D01*
X170082221Y-87408959D01*
X170115382Y-87431950D01*
X170144980Y-87452561D01*
X170170644Y-87470533D01*
X170192002Y-87485610D01*
X170208686Y-87497533D01*
X170220323Y-87506044D01*
X170226543Y-87510885D01*
X170227523Y-87511913D01*
X170225460Y-87515752D01*
X170219706Y-87524953D01*
X170210673Y-87538891D01*
X170198775Y-87556944D01*
X170184424Y-87578487D01*
X170168034Y-87602896D01*
X170150018Y-87629549D01*
X170135316Y-87651178D01*
X170043486Y-87785967D01*
X170010508Y-87763103D01*
X170003297Y-87758140D01*
X169990495Y-87749371D01*
X169972511Y-87737075D01*
X169949754Y-87721529D01*
X169922630Y-87703012D01*
X169891548Y-87681802D01*
X169856916Y-87658179D01*
X169819143Y-87632420D01*
X169778636Y-87604803D01*
X169735804Y-87575608D01*
X169691054Y-87545112D01*
X169644795Y-87513594D01*
X169611043Y-87490602D01*
X169557506Y-87454131D01*
X169498919Y-87414215D01*
X169436228Y-87371497D01*
X169370378Y-87326622D01*
X169302313Y-87280234D01*
X169232980Y-87232978D01*
X169163323Y-87185497D01*
X169094288Y-87138436D01*
X169026820Y-87092440D01*
X168961864Y-87048152D01*
X168900366Y-87006217D01*
X168847229Y-86969980D01*
X168798510Y-86936756D01*
X168751193Y-86904495D01*
X168705653Y-86873451D01*
X168662262Y-86843880D01*
X168621394Y-86816034D01*
X168583422Y-86790168D01*
X168548720Y-86766536D01*
X168517661Y-86745393D01*
X168490618Y-86726993D01*
X168467965Y-86711590D01*
X168450074Y-86699438D01*
X168437321Y-86690792D01*
X168430076Y-86685906D01*
X168429036Y-86685212D01*
X168418666Y-86678047D01*
X168411265Y-86672333D01*
X168408383Y-86669268D01*
X168408383Y-86669222D01*
X168410420Y-86665868D01*
X168416165Y-86657151D01*
X168425205Y-86643680D01*
X168437127Y-86626065D01*
X168451517Y-86604914D01*
X168467961Y-86580838D01*
X168486046Y-86554446D01*
X168500949Y-86532757D01*
X168521003Y-86503776D01*
X168539601Y-86477233D01*
X168556350Y-86453668D01*
X168570856Y-86433623D01*
X168582724Y-86417638D01*
X168591561Y-86406253D01*
X168596974Y-86400010D01*
X168598430Y-86398957D01*
X168601959Y-86401020D01*
G36*
X168601959Y-86401020D02*
G01*
X168611151Y-86406957D01*
X168625677Y-86416545D01*
X168645209Y-86429563D01*
X168669419Y-86445789D01*
X168697978Y-86465002D01*
X168730558Y-86486978D01*
X168766831Y-86511497D01*
X168806467Y-86538336D01*
X168849139Y-86567274D01*
X168894518Y-86598088D01*
X168942276Y-86630558D01*
X168992085Y-86664461D01*
X169043615Y-86699575D01*
X169063757Y-86713311D01*
X169123485Y-86754050D01*
X169186376Y-86796948D01*
X169251674Y-86841489D01*
X169318624Y-86887156D01*
X169386469Y-86933435D01*
X169454454Y-86979809D01*
X169521822Y-87025764D01*
X169587819Y-87070783D01*
X169651687Y-87114350D01*
X169712671Y-87155951D01*
X169770015Y-87195069D01*
X169822963Y-87231189D01*
X169870759Y-87263795D01*
X169875929Y-87267322D01*
X169921350Y-87298347D01*
X169965060Y-87328282D01*
X170006689Y-87356867D01*
X170045866Y-87383846D01*
X170082221Y-87408959D01*
X170115382Y-87431950D01*
X170144980Y-87452561D01*
X170170644Y-87470533D01*
X170192002Y-87485610D01*
X170208686Y-87497533D01*
X170220323Y-87506044D01*
X170226543Y-87510885D01*
X170227523Y-87511913D01*
X170225460Y-87515752D01*
X170219706Y-87524953D01*
X170210673Y-87538891D01*
X170198775Y-87556944D01*
X170184424Y-87578487D01*
X170168034Y-87602896D01*
X170150018Y-87629549D01*
X170135316Y-87651178D01*
X170043486Y-87785967D01*
X170010508Y-87763103D01*
X170003297Y-87758140D01*
X169990495Y-87749371D01*
X169972511Y-87737075D01*
X169949754Y-87721529D01*
X169922630Y-87703012D01*
X169891548Y-87681802D01*
X169856916Y-87658179D01*
X169819143Y-87632420D01*
X169778636Y-87604803D01*
X169735804Y-87575608D01*
X169691054Y-87545112D01*
X169644795Y-87513594D01*
X169611043Y-87490602D01*
X169557506Y-87454131D01*
X169498919Y-87414215D01*
X169436228Y-87371497D01*
X169370378Y-87326622D01*
X169302313Y-87280234D01*
X169232980Y-87232978D01*
X169163323Y-87185497D01*
X169094288Y-87138436D01*
X169026820Y-87092440D01*
X168961864Y-87048152D01*
X168900366Y-87006217D01*
X168847229Y-86969980D01*
X168798510Y-86936756D01*
X168751193Y-86904495D01*
X168705653Y-86873451D01*
X168662262Y-86843880D01*
X168621394Y-86816034D01*
X168583422Y-86790168D01*
X168548720Y-86766536D01*
X168517661Y-86745393D01*
X168490618Y-86726993D01*
X168467965Y-86711590D01*
X168450074Y-86699438D01*
X168437321Y-86690792D01*
X168430076Y-86685906D01*
X168429036Y-86685212D01*
X168418666Y-86678047D01*
X168411265Y-86672333D01*
X168408383Y-86669268D01*
X168408383Y-86669222D01*
X168410420Y-86665868D01*
X168416165Y-86657151D01*
X168425205Y-86643680D01*
X168437127Y-86626065D01*
X168451517Y-86604914D01*
X168467961Y-86580838D01*
X168486046Y-86554446D01*
X168500949Y-86532757D01*
X168521003Y-86503776D01*
X168539601Y-86477233D01*
X168556350Y-86453668D01*
X168570856Y-86433623D01*
X168582724Y-86417638D01*
X168591561Y-86406253D01*
X168596974Y-86400010D01*
X168598430Y-86398957D01*
X168601959Y-86401020D01*
G37*
X168597411Y-87547558D02*
X168606604Y-87553477D01*
X168621101Y-87563030D01*
X168640560Y-87575985D01*
X168664637Y-87592110D01*
X168692989Y-87611173D01*
X168725273Y-87632944D01*
X168761147Y-87657191D01*
X168800267Y-87683682D01*
X168842291Y-87712185D01*
X168886874Y-87742470D01*
X168933675Y-87774304D01*
X168982350Y-87807456D01*
X169021534Y-87834174D01*
X169079374Y-87873629D01*
X169140697Y-87915455D01*
X169204680Y-87959090D01*
X169270496Y-88003970D01*
X169337322Y-88049535D01*
X169404333Y-88095221D01*
X169470704Y-88140466D01*
X169535609Y-88184708D01*
X169598224Y-88227385D01*
X169657725Y-88267934D01*
X169713286Y-88305793D01*
X169764082Y-88340400D01*
X169787029Y-88356031D01*
X169839742Y-88391988D01*
X169889238Y-88425857D01*
X169935248Y-88457450D01*
X169977504Y-88486579D01*
X170015739Y-88513059D01*
X170049683Y-88536701D01*
X170079069Y-88557319D01*
X170103628Y-88574725D01*
X170123092Y-88588733D01*
X170137194Y-88599155D01*
X170145664Y-88605805D01*
X170147607Y-88607558D01*
X170167469Y-88632608D01*
X170181849Y-88661157D01*
X170190407Y-88691865D01*
X170192799Y-88723393D01*
X170188686Y-88754400D01*
X170186785Y-88761314D01*
X170176612Y-88787004D01*
X170162594Y-88811399D01*
X170146166Y-88832238D01*
X170135097Y-88842630D01*
X170130790Y-88845746D01*
X170120852Y-88852708D01*
X170105589Y-88863307D01*
X170085307Y-88877333D01*
X170060313Y-88894576D01*
X170030913Y-88914826D01*
X169997414Y-88937873D01*
X169960122Y-88963508D01*
X169919345Y-88991520D01*
X169875388Y-89021699D01*
X169828558Y-89053837D01*
X169779162Y-89087722D01*
X169727506Y-89123146D01*
X169673896Y-89159898D01*
X169618640Y-89197768D01*
X169562044Y-89236546D01*
X169504414Y-89276024D01*
X169446057Y-89315990D01*
X169387280Y-89356235D01*
X169328388Y-89396550D01*
X169269689Y-89436724D01*
X169211489Y-89476547D01*
X169154095Y-89515810D01*
X169097813Y-89554302D01*
X169042950Y-89591815D01*
X168989812Y-89628137D01*
X168938706Y-89663060D01*
X168889938Y-89696373D01*
X168843815Y-89727867D01*
X168800644Y-89757331D01*
X168760730Y-89784556D01*
X168724381Y-89809332D01*
X168691904Y-89831449D01*
X168663604Y-89850698D01*
X168639788Y-89866867D01*
X168620763Y-89879749D01*
X168606835Y-89889132D01*
X168598311Y-89894807D01*
X168595516Y-89896569D01*
X168592880Y-89893916D01*
X168586703Y-89885982D01*
X168577496Y-89873506D01*
X168565770Y-89857228D01*
X168552036Y-89837888D01*
X168536804Y-89816225D01*
X168520586Y-89792979D01*
X168503893Y-89768890D01*
X168487235Y-89744697D01*
X168471123Y-89721140D01*
X168456068Y-89698958D01*
X168442581Y-89678892D01*
X168431173Y-89661680D01*
X168422355Y-89648062D01*
X168416637Y-89638779D01*
X168414530Y-89634569D01*
X168414529Y-89634543D01*
X168414603Y-89634131D01*
X168414998Y-89633525D01*
X168415928Y-89632578D01*
X168417607Y-89631142D01*
X168420249Y-89629070D01*
X168424069Y-89626214D01*
X168429280Y-89622428D01*
X168436096Y-89617563D01*
X168444732Y-89611472D01*
X168455401Y-89604008D01*
X168468318Y-89595023D01*
X168483696Y-89584370D01*
X168501750Y-89571901D01*
X168522694Y-89557469D01*
X168546742Y-89540927D01*
X168574108Y-89522126D01*
X168605006Y-89500920D01*
X168639649Y-89477162D01*
X168678254Y-89450703D01*
X168721032Y-89421396D01*
X168768198Y-89389094D01*
X168819967Y-89353649D01*
X168876553Y-89314914D01*
X168938169Y-89272742D01*
X169005030Y-89226985D01*
X169077349Y-89177495D01*
X169155341Y-89124126D01*
X169194784Y-89097135D01*
X169251648Y-89058204D01*
X169306874Y-89020357D01*
X169360166Y-88983797D01*
X169411229Y-88948729D01*
X169459766Y-88915357D01*
X169505483Y-88883886D01*
X169548083Y-88854519D01*
X169587270Y-88827462D01*
X169622750Y-88802917D01*
X169654226Y-88781091D01*
X169681403Y-88762186D01*
X169703985Y-88746407D01*
X169721676Y-88733959D01*
X169734181Y-88725046D01*
X169741203Y-88719871D01*
X169742699Y-88718573D01*
X169739647Y-88716282D01*
X169730867Y-88710090D01*
X169716628Y-88700184D01*
X169697202Y-88686747D01*
X169672858Y-88669966D01*
X169643867Y-88650025D01*
X169610497Y-88627108D01*
X169573019Y-88601402D01*
X169531704Y-88573090D01*
X169486821Y-88542359D01*
X169438641Y-88509393D01*
X169387433Y-88474377D01*
X169333467Y-88437497D01*
X169277014Y-88398936D01*
X169218344Y-88358881D01*
X169157726Y-88317516D01*
X169095431Y-88275026D01*
X169075961Y-88261750D01*
X169013220Y-88218971D01*
X168952078Y-88177278D01*
X168892803Y-88136855D01*
X168835666Y-88097887D01*
X168780935Y-88060556D01*
X168728881Y-88025048D01*
X168679773Y-87991545D01*
X168633881Y-87960233D01*
X168591474Y-87931295D01*
X168552823Y-87904915D01*
X168518196Y-87881277D01*
X168487864Y-87860566D01*
X168462096Y-87842965D01*
X168441161Y-87828657D01*
X168425330Y-87817829D01*
X168414872Y-87810662D01*
X168410057Y-87807342D01*
X168409752Y-87807122D01*
X168411634Y-87804077D01*
X168417220Y-87795666D01*
X168426094Y-87782497D01*
X168437842Y-87765182D01*
X168452050Y-87744328D01*
X168468305Y-87720546D01*
X168486190Y-87694446D01*
X168499023Y-87675757D01*
X168518000Y-87648315D01*
X168535825Y-87622870D01*
X168552058Y-87600025D01*
X168566262Y-87580383D01*
X168577996Y-87564546D01*
X168586823Y-87553118D01*
X168592303Y-87546702D01*
X168593866Y-87545503D01*
X168597411Y-87547558D01*
G36*
X168597411Y-87547558D02*
G01*
X168606604Y-87553477D01*
X168621101Y-87563030D01*
X168640560Y-87575985D01*
X168664637Y-87592110D01*
X168692989Y-87611173D01*
X168725273Y-87632944D01*
X168761147Y-87657191D01*
X168800267Y-87683682D01*
X168842291Y-87712185D01*
X168886874Y-87742470D01*
X168933675Y-87774304D01*
X168982350Y-87807456D01*
X169021534Y-87834174D01*
X169079374Y-87873629D01*
X169140697Y-87915455D01*
X169204680Y-87959090D01*
X169270496Y-88003970D01*
X169337322Y-88049535D01*
X169404333Y-88095221D01*
X169470704Y-88140466D01*
X169535609Y-88184708D01*
X169598224Y-88227385D01*
X169657725Y-88267934D01*
X169713286Y-88305793D01*
X169764082Y-88340400D01*
X169787029Y-88356031D01*
X169839742Y-88391988D01*
X169889238Y-88425857D01*
X169935248Y-88457450D01*
X169977504Y-88486579D01*
X170015739Y-88513059D01*
X170049683Y-88536701D01*
X170079069Y-88557319D01*
X170103628Y-88574725D01*
X170123092Y-88588733D01*
X170137194Y-88599155D01*
X170145664Y-88605805D01*
X170147607Y-88607558D01*
X170167469Y-88632608D01*
X170181849Y-88661157D01*
X170190407Y-88691865D01*
X170192799Y-88723393D01*
X170188686Y-88754400D01*
X170186785Y-88761314D01*
X170176612Y-88787004D01*
X170162594Y-88811399D01*
X170146166Y-88832238D01*
X170135097Y-88842630D01*
X170130790Y-88845746D01*
X170120852Y-88852708D01*
X170105589Y-88863307D01*
X170085307Y-88877333D01*
X170060313Y-88894576D01*
X170030913Y-88914826D01*
X169997414Y-88937873D01*
X169960122Y-88963508D01*
X169919345Y-88991520D01*
X169875388Y-89021699D01*
X169828558Y-89053837D01*
X169779162Y-89087722D01*
X169727506Y-89123146D01*
X169673896Y-89159898D01*
X169618640Y-89197768D01*
X169562044Y-89236546D01*
X169504414Y-89276024D01*
X169446057Y-89315990D01*
X169387280Y-89356235D01*
X169328388Y-89396550D01*
X169269689Y-89436724D01*
X169211489Y-89476547D01*
X169154095Y-89515810D01*
X169097813Y-89554302D01*
X169042950Y-89591815D01*
X168989812Y-89628137D01*
X168938706Y-89663060D01*
X168889938Y-89696373D01*
X168843815Y-89727867D01*
X168800644Y-89757331D01*
X168760730Y-89784556D01*
X168724381Y-89809332D01*
X168691904Y-89831449D01*
X168663604Y-89850698D01*
X168639788Y-89866867D01*
X168620763Y-89879749D01*
X168606835Y-89889132D01*
X168598311Y-89894807D01*
X168595516Y-89896569D01*
X168592880Y-89893916D01*
X168586703Y-89885982D01*
X168577496Y-89873506D01*
X168565770Y-89857228D01*
X168552036Y-89837888D01*
X168536804Y-89816225D01*
X168520586Y-89792979D01*
X168503893Y-89768890D01*
X168487235Y-89744697D01*
X168471123Y-89721140D01*
X168456068Y-89698958D01*
X168442581Y-89678892D01*
X168431173Y-89661680D01*
X168422355Y-89648062D01*
X168416637Y-89638779D01*
X168414530Y-89634569D01*
X168414529Y-89634543D01*
X168414603Y-89634131D01*
X168414998Y-89633525D01*
X168415928Y-89632578D01*
X168417607Y-89631142D01*
X168420249Y-89629070D01*
X168424069Y-89626214D01*
X168429280Y-89622428D01*
X168436096Y-89617563D01*
X168444732Y-89611472D01*
X168455401Y-89604008D01*
X168468318Y-89595023D01*
X168483696Y-89584370D01*
X168501750Y-89571901D01*
X168522694Y-89557469D01*
X168546742Y-89540927D01*
X168574108Y-89522126D01*
X168605006Y-89500920D01*
X168639649Y-89477162D01*
X168678254Y-89450703D01*
X168721032Y-89421396D01*
X168768198Y-89389094D01*
X168819967Y-89353649D01*
X168876553Y-89314914D01*
X168938169Y-89272742D01*
X169005030Y-89226985D01*
X169077349Y-89177495D01*
X169155341Y-89124126D01*
X169194784Y-89097135D01*
X169251648Y-89058204D01*
X169306874Y-89020357D01*
X169360166Y-88983797D01*
X169411229Y-88948729D01*
X169459766Y-88915357D01*
X169505483Y-88883886D01*
X169548083Y-88854519D01*
X169587270Y-88827462D01*
X169622750Y-88802917D01*
X169654226Y-88781091D01*
X169681403Y-88762186D01*
X169703985Y-88746407D01*
X169721676Y-88733959D01*
X169734181Y-88725046D01*
X169741203Y-88719871D01*
X169742699Y-88718573D01*
X169739647Y-88716282D01*
X169730867Y-88710090D01*
X169716628Y-88700184D01*
X169697202Y-88686747D01*
X169672858Y-88669966D01*
X169643867Y-88650025D01*
X169610497Y-88627108D01*
X169573019Y-88601402D01*
X169531704Y-88573090D01*
X169486821Y-88542359D01*
X169438641Y-88509393D01*
X169387433Y-88474377D01*
X169333467Y-88437497D01*
X169277014Y-88398936D01*
X169218344Y-88358881D01*
X169157726Y-88317516D01*
X169095431Y-88275026D01*
X169075961Y-88261750D01*
X169013220Y-88218971D01*
X168952078Y-88177278D01*
X168892803Y-88136855D01*
X168835666Y-88097887D01*
X168780935Y-88060556D01*
X168728881Y-88025048D01*
X168679773Y-87991545D01*
X168633881Y-87960233D01*
X168591474Y-87931295D01*
X168552823Y-87904915D01*
X168518196Y-87881277D01*
X168487864Y-87860566D01*
X168462096Y-87842965D01*
X168441161Y-87828657D01*
X168425330Y-87817829D01*
X168414872Y-87810662D01*
X168410057Y-87807342D01*
X168409752Y-87807122D01*
X168411634Y-87804077D01*
X168417220Y-87795666D01*
X168426094Y-87782497D01*
X168437842Y-87765182D01*
X168452050Y-87744328D01*
X168468305Y-87720546D01*
X168486190Y-87694446D01*
X168499023Y-87675757D01*
X168518000Y-87648315D01*
X168535825Y-87622870D01*
X168552058Y-87600025D01*
X168566262Y-87580383D01*
X168577996Y-87564546D01*
X168586823Y-87553118D01*
X168592303Y-87546702D01*
X168593866Y-87545503D01*
X168597411Y-87547558D01*
G37*
%TD*%
D11*
%TO.C,Q1*%
X164437500Y-108350000D03*
X164437500Y-106450000D03*
X162562500Y-107400000D03*
%TD*%
D12*
%TO.C,R1*%
X166256812Y-106325000D03*
X166256812Y-107975000D03*
%TD*%
D13*
%TO.C,U2*%
X148274000Y-106807000D03*
X148274000Y-108077000D03*
X148274000Y-109347000D03*
X148274000Y-110617000D03*
X153224000Y-110617000D03*
X153224000Y-109347000D03*
X153224000Y-108077000D03*
X153224000Y-106807000D03*
%TD*%
D14*
%TO.C,C4*%
X155300000Y-107825000D03*
X155300000Y-109375000D03*
%TD*%
D15*
%TO.C,L2*%
X151350000Y-120050000D03*
X147650000Y-120050000D03*
%TD*%
D16*
%TO.C,C5*%
X145300000Y-92025000D03*
X145300000Y-90475000D03*
%TD*%
D11*
%TO.C,Q2*%
X161317500Y-113090000D03*
X161317500Y-111190000D03*
X159442500Y-112140000D03*
%TD*%
D17*
%TO.C,R3*%
X163110000Y-111515000D03*
X163110000Y-109865000D03*
%TD*%
D12*
%TO.C,R6*%
X156800000Y-107775000D03*
X156800000Y-109425000D03*
%TD*%
%TO.C,R2*%
X167756812Y-106325000D03*
X167756812Y-107975000D03*
%TD*%
D18*
%TO.C,D1*%
X155462500Y-111000000D03*
X157187500Y-111000000D03*
%TD*%
D19*
%TO.C,R14*%
X150245000Y-112610000D03*
X151895000Y-112610000D03*
%TD*%
D20*
%TO.C,R8*%
X157150000Y-112500000D03*
X155500000Y-112500000D03*
%TD*%
D14*
%TO.C,C10*%
X154175000Y-114675000D03*
X154175000Y-116225000D03*
%TD*%
%TO.C,C6*%
X145400000Y-95350000D03*
X145400000Y-96900000D03*
%TD*%
D12*
%TO.C,R9*%
X144000000Y-85025000D03*
X144000000Y-86675000D03*
%TD*%
D21*
%TO.C,C12*%
X146525000Y-116600000D03*
X148075000Y-116600000D03*
%TD*%
D14*
%TO.C,C1*%
X159300000Y-106600000D03*
X159300000Y-108150000D03*
%TD*%
D19*
%TO.C,R4*%
X155600000Y-114200000D03*
X157250000Y-114200000D03*
%TD*%
D22*
%TO.C,H2*%
X131775000Y-108605000D03*
X132258274Y-107438274D03*
X132258274Y-109771726D03*
X133425000Y-106955000D03*
D23*
X133425000Y-108605000D03*
D22*
X133425000Y-110255000D03*
X134591726Y-107438274D03*
X134591726Y-109771726D03*
X135075000Y-108605000D03*
%TD*%
D16*
%TO.C,C13*%
X143800000Y-92025000D03*
X143800000Y-90475000D03*
%TD*%
%TO.C,C2*%
X145500000Y-86625000D03*
X145500000Y-85075000D03*
%TD*%
D24*
%TO.C,C3*%
X145350000Y-89000000D03*
X143800000Y-89000000D03*
%TD*%
D25*
%TO.C,H1*%
X165550000Y-123605000D03*
X166143109Y-122173109D03*
X166143109Y-125036891D03*
X167575000Y-121580000D03*
D26*
X167575000Y-123605000D03*
D25*
X167575000Y-125630000D03*
X169006891Y-122173109D03*
X169006891Y-125036891D03*
X169600000Y-123605000D03*
%TD*%
D27*
%TO.C,J4*%
X168300000Y-114600000D03*
D28*
X166800000Y-116075000D03*
X166800000Y-113125000D03*
D27*
X165300000Y-114600000D03*
%TD*%
D29*
%TO.C,U1*%
X147750000Y-86238000D03*
X147750000Y-87508000D03*
X147750000Y-88778000D03*
X147750000Y-90048000D03*
X147750000Y-91318000D03*
X147750000Y-92588000D03*
X147750000Y-93858000D03*
X147750000Y-95128000D03*
X147750000Y-96398000D03*
X147750000Y-97668000D03*
X147750000Y-98938000D03*
X147750000Y-100208000D03*
X147750000Y-101478000D03*
X147750000Y-102748000D03*
D30*
X150790000Y-103998000D03*
X152060000Y-103998000D03*
X153330000Y-103998000D03*
X154600000Y-103998000D03*
X155870000Y-103998000D03*
X157140000Y-103998000D03*
X158410000Y-103998000D03*
X159680000Y-103998000D03*
X160950000Y-103998000D03*
X162220000Y-103998000D03*
D29*
X165250000Y-102748000D03*
X165250000Y-101478000D03*
X165250000Y-100208000D03*
X165250000Y-98938000D03*
X165250000Y-97668000D03*
X165250000Y-96398000D03*
X165250000Y-95128000D03*
X165250000Y-93858000D03*
X165250000Y-92588000D03*
X165250000Y-91318000D03*
X165250000Y-90048000D03*
X165250000Y-88778000D03*
X165250000Y-87508000D03*
X165250000Y-86238000D03*
D31*
X153600000Y-93258000D03*
X153600000Y-94658000D03*
X154300000Y-92558000D03*
X154300000Y-93958000D03*
X154300000Y-95358000D03*
X154975000Y-93258000D03*
X154975000Y-94658000D03*
D32*
X155000000Y-93958000D03*
D31*
X155700000Y-92558000D03*
X155700000Y-93958000D03*
X155700000Y-95358000D03*
X156400000Y-93258000D03*
X156400000Y-94658000D03*
%TD*%
D33*
%TO.C,Q4*%
X162040000Y-121777500D03*
X163940000Y-121777500D03*
X162990000Y-119902500D03*
%TD*%
D12*
%TO.C,R16*%
X161300000Y-116575000D03*
X161300000Y-118225000D03*
%TD*%
D21*
%TO.C,C11*%
X146525000Y-115100000D03*
X148075000Y-115100000D03*
%TD*%
D19*
%TO.C,R7*%
X159225000Y-109700000D03*
X160875000Y-109700000D03*
%TD*%
D12*
%TO.C,R5*%
X160800000Y-106550000D03*
X160800000Y-108200000D03*
%TD*%
D34*
%TO.C,TP1*%
X150100000Y-83550000D03*
%TD*%
D19*
%TO.C,R13*%
X146475000Y-113600000D03*
X148125000Y-113600000D03*
%TD*%
D35*
%TO.C,U5*%
X150450000Y-116587500D03*
X151400000Y-116587500D03*
X152350000Y-116587500D03*
X152350000Y-114312500D03*
X150450000Y-114312500D03*
%TD*%
D34*
%TO.C,TP2*%
X154600000Y-84010000D03*
%TD*%
D12*
%TO.C,R10*%
X159722382Y-120499320D03*
X159722382Y-122149320D03*
%TD*%
%TO.C,R11*%
X158122382Y-120474320D03*
X158122382Y-122124320D03*
%TD*%
D33*
%TO.C,Q5*%
X157790000Y-118820000D03*
X159690000Y-118820000D03*
X158740000Y-116945000D03*
%TD*%
D12*
%TO.C,R15*%
X162800000Y-116575000D03*
X162800000Y-118225000D03*
%TD*%
%TO.C,R12*%
X167977061Y-117889345D03*
X167977061Y-119539345D03*
%TD*%
D17*
%TO.C,R17*%
X169477061Y-119539345D03*
X169477061Y-117889345D03*
%TD*%
D36*
%TO.C,BZ1*%
X134700000Y-88640000D03*
D37*
X137900000Y-88640000D03*
%TD*%
D38*
%TO.C,U4*%
X141115000Y-104455000D03*
D39*
X134815000Y-102175000D03*
D38*
X141115000Y-99895000D03*
%TD*%
D25*
%TO.C,H4*%
X131400000Y-77605000D03*
X131993109Y-76173109D03*
X131993109Y-79036891D03*
D26*
X133400000Y-77605000D03*
D25*
X133425000Y-75580000D03*
X133425000Y-79630000D03*
X134856891Y-76173109D03*
X134856891Y-79036891D03*
X135450000Y-77605000D03*
%TD*%
D40*
%TO.C,Q3*%
X141480000Y-95452500D03*
X139580000Y-95452500D03*
X140530000Y-97327500D03*
%TD*%
D41*
%TO.C,C7*%
X139150000Y-108475000D03*
X142750000Y-108475000D03*
%TD*%
D12*
%TO.C,R18*%
X141520000Y-91985000D03*
X141520000Y-93635000D03*
%TD*%
D42*
%TO.C,J1*%
X145625000Y-124725000D03*
D43*
X148165000Y-124725000D03*
X150705000Y-124725000D03*
X153245000Y-124725000D03*
X155785000Y-124725000D03*
X158325000Y-124725000D03*
X160865000Y-124725000D03*
X163405000Y-124725000D03*
%TD*%
D12*
%TO.C,R19*%
X137550000Y-96245000D03*
X137550000Y-97895000D03*
%TD*%
D44*
%TO.C,J3*%
X136042500Y-113200000D03*
D45*
X136042500Y-119200000D03*
D46*
X140742500Y-116200000D03*
%TD*%
D25*
%TO.C,H3*%
X165550000Y-77605000D03*
X166143109Y-76173109D03*
X166143109Y-79036891D03*
X167575000Y-75580000D03*
X167575000Y-79630000D03*
D26*
X167606891Y-77605000D03*
D25*
X169006891Y-76173109D03*
X169006891Y-79036891D03*
X169600000Y-77605000D03*
%TD*%
D42*
%TO.C,J2*%
X137850000Y-76700000D03*
D43*
X140390000Y-76700000D03*
X142930000Y-76700000D03*
X145470000Y-76700000D03*
X148010000Y-76700000D03*
X150550000Y-76700000D03*
X153090000Y-76700000D03*
X155630000Y-76700000D03*
X158170000Y-76700000D03*
X160710000Y-76700000D03*
X163250000Y-76700000D03*
%TD*%
M02*
