%TF.GenerationSoftware,KiCad,Pcbnew,9.0.4*%
%TF.CreationDate,2025-09-20T18:39:02+03:00*%
%TF.ProjectId,HydraX-Meshtastic-PCB,48796472-6158-42d4-9d65-736874617374,2.1*%
%TF.SameCoordinates,Original*%
%TF.FileFunction,Soldermask,Bot*%
%TF.FilePolarity,Negative*%
%FSLAX46Y46*%
G04 Gerber Fmt 4.6, Leading zero omitted, Abs format (unit mm)*
G04 Created by KiCad (PCBNEW 9.0.4) date 2025-09-20 18:39:02*
%MOMM*%
%LPD*%
G01*
G04 APERTURE LIST*
G04 Aperture macros list*
%AMRoundRect*
0 Rectangle with rounded corners*
0 $1 Rounding radius*
0 $2 $3 $4 $5 $6 $7 $8 $9 X,Y pos of 4 corners*
0 Add a 4 corners polygon primitive as box body*
4,1,4,$2,$3,$4,$5,$6,$7,$8,$9,$2,$3,0*
0 Add four circle primitives for the rounded corners*
1,1,$1+$1,$2,$3*
1,1,$1+$1,$4,$5*
1,1,$1+$1,$6,$7*
1,1,$1+$1,$8,$9*
0 Add four rect primitives between the rounded corners*
20,1,$1+$1,$2,$3,$4,$5,0*
20,1,$1+$1,$4,$5,$6,$7,0*
20,1,$1+$1,$6,$7,$8,$9,0*
20,1,$1+$1,$8,$9,$2,$3,0*%
G04 Aperture macros list end*
%ADD10C,0.700000*%
%ADD11C,4.400000*%
%ADD12C,0.800000*%
%ADD13C,5.400000*%
%ADD14R,1.600000X1.600000*%
%ADD15C,1.600000*%
%ADD16R,1.700000X1.700000*%
%ADD17C,1.700000*%
%ADD18R,3.500000X3.500000*%
%ADD19RoundRect,0.750000X1.000000X-0.750000X1.000000X0.750000X-1.000000X0.750000X-1.000000X-0.750000X0*%
%ADD20RoundRect,0.875000X0.875000X-0.875000X0.875000X0.875000X-0.875000X0.875000X-0.875000X-0.875000X0*%
%ADD21R,2.500000X1.500000*%
G04 APERTURE END LIST*
D10*
%TO.C,H2*%
X131775000Y-108605000D03*
X132258274Y-107438274D03*
X132258274Y-109771726D03*
X133425000Y-106955000D03*
D11*
X133425000Y-108605000D03*
D10*
X133425000Y-110255000D03*
X134591726Y-107438274D03*
X134591726Y-109771726D03*
X135075000Y-108605000D03*
%TD*%
D12*
%TO.C,H1*%
X165550000Y-123605000D03*
X166143109Y-122173109D03*
X166143109Y-125036891D03*
X167575000Y-121580000D03*
D13*
X167575000Y-123605000D03*
D12*
X167575000Y-125630000D03*
X169006891Y-122173109D03*
X169006891Y-125036891D03*
X169600000Y-123605000D03*
%TD*%
D14*
%TO.C,BZ1*%
X134700000Y-88640000D03*
D15*
X137900000Y-88640000D03*
%TD*%
D12*
%TO.C,H4*%
X131400000Y-77605000D03*
X131993109Y-76173109D03*
X131993109Y-79036891D03*
D13*
X133400000Y-77605000D03*
D12*
X133425000Y-75580000D03*
X133425000Y-79630000D03*
X134856891Y-76173109D03*
X134856891Y-79036891D03*
X135450000Y-77605000D03*
%TD*%
D16*
%TO.C,J1*%
X145625000Y-124725000D03*
D17*
X148165000Y-124725000D03*
X150705000Y-124725000D03*
X153245000Y-124725000D03*
X155785000Y-124725000D03*
X158325000Y-124725000D03*
X160865000Y-124725000D03*
X163405000Y-124725000D03*
%TD*%
D18*
%TO.C,J3*%
X136042500Y-113200000D03*
D19*
X136042500Y-119200000D03*
D20*
X140742500Y-116200000D03*
%TD*%
D12*
%TO.C,H3*%
X165550000Y-77605000D03*
X166143109Y-76173109D03*
X166143109Y-79036891D03*
X167575000Y-75580000D03*
X167575000Y-79630000D03*
D13*
X167606891Y-77605000D03*
D12*
X169006891Y-76173109D03*
X169006891Y-79036891D03*
X169600000Y-77605000D03*
%TD*%
D21*
%TO.C,U3*%
X144500000Y-116890000D03*
X144500000Y-114350000D03*
X144500000Y-111810000D03*
X144500000Y-104190000D03*
X144500000Y-101650000D03*
X144500000Y-99110000D03*
X144500000Y-96570000D03*
X144500000Y-94030000D03*
X144500000Y-91490000D03*
X144500000Y-88950000D03*
X144500000Y-86410000D03*
X168500000Y-86410000D03*
X168500000Y-88950000D03*
X168500000Y-91490000D03*
X168500000Y-94030000D03*
X168500000Y-96570000D03*
X168500000Y-99110000D03*
X168500000Y-101650000D03*
X168500000Y-104190000D03*
X168500000Y-111810000D03*
X168500000Y-114350000D03*
X168500000Y-116890000D03*
%TD*%
D16*
%TO.C,J2*%
X137850000Y-76700000D03*
D17*
X140390000Y-76700000D03*
X142930000Y-76700000D03*
X145470000Y-76700000D03*
X148010000Y-76700000D03*
X150550000Y-76700000D03*
X153090000Y-76700000D03*
X155630000Y-76700000D03*
X158170000Y-76700000D03*
X160710000Y-76700000D03*
X163250000Y-76700000D03*
%TD*%
M02*
