%TF.GenerationSoftware,KiCad,Pcbnew,9.0.4*%
%TF.CreationDate,2025-09-20T18:39:02+03:00*%
%TF.ProjectId,HydraX-Meshtastic-PCB,48796472-6158-42d4-9d65-736874617374,2.1*%
%TF.SameCoordinates,Original*%
%TF.FileFunction,Copper,L2,Bot*%
%TF.FilePolarity,Positive*%
%FSLAX46Y46*%
G04 Gerber Fmt 4.6, Leading zero omitted, Abs format (unit mm)*
G04 Created by KiCad (PCBNEW 9.0.4) date 2025-09-20 18:39:02*
%MOMM*%
%LPD*%
G01*
G04 APERTURE LIST*
G04 Aperture macros list*
%AMRoundRect*
0 Rectangle with rounded corners*
0 $1 Rounding radius*
0 $2 $3 $4 $5 $6 $7 $8 $9 X,Y pos of 4 corners*
0 Add a 4 corners polygon primitive as box body*
4,1,4,$2,$3,$4,$5,$6,$7,$8,$9,$2,$3,0*
0 Add four circle primitives for the rounded corners*
1,1,$1+$1,$2,$3*
1,1,$1+$1,$4,$5*
1,1,$1+$1,$6,$7*
1,1,$1+$1,$8,$9*
0 Add four rect primitives between the rounded corners*
20,1,$1+$1,$2,$3,$4,$5,0*
20,1,$1+$1,$4,$5,$6,$7,0*
20,1,$1+$1,$6,$7,$8,$9,0*
20,1,$1+$1,$8,$9,$2,$3,0*%
G04 Aperture macros list end*
%TA.AperFunction,EtchedComponent*%
%ADD10C,0.000000*%
%TD*%
%TA.AperFunction,ComponentPad*%
%ADD11C,0.700000*%
%TD*%
%TA.AperFunction,ComponentPad*%
%ADD12C,4.400000*%
%TD*%
%TA.AperFunction,ComponentPad*%
%ADD13C,0.800000*%
%TD*%
%TA.AperFunction,ComponentPad*%
%ADD14C,5.400000*%
%TD*%
%TA.AperFunction,HeatsinkPad*%
%ADD15C,0.600000*%
%TD*%
%TA.AperFunction,ComponentPad*%
%ADD16R,1.600000X1.600000*%
%TD*%
%TA.AperFunction,ComponentPad*%
%ADD17C,1.600000*%
%TD*%
%TA.AperFunction,ComponentPad*%
%ADD18R,1.700000X1.700000*%
%TD*%
%TA.AperFunction,ComponentPad*%
%ADD19C,1.700000*%
%TD*%
%TA.AperFunction,ComponentPad*%
%ADD20R,3.500000X3.500000*%
%TD*%
%TA.AperFunction,ComponentPad*%
%ADD21RoundRect,0.750000X1.000000X-0.750000X1.000000X0.750000X-1.000000X0.750000X-1.000000X-0.750000X0*%
%TD*%
%TA.AperFunction,ComponentPad*%
%ADD22RoundRect,0.875000X0.875000X-0.875000X0.875000X0.875000X-0.875000X0.875000X-0.875000X-0.875000X0*%
%TD*%
%TA.AperFunction,SMDPad,CuDef*%
%ADD23C,0.500000*%
%TD*%
%TA.AperFunction,SMDPad,CuDef*%
%ADD24R,2.500000X1.500000*%
%TD*%
%TA.AperFunction,ViaPad*%
%ADD25C,0.600000*%
%TD*%
%TA.AperFunction,ViaPad*%
%ADD26C,0.800000*%
%TD*%
%TA.AperFunction,ViaPad*%
%ADD27C,1.000000*%
%TD*%
%TA.AperFunction,Conductor*%
%ADD28C,0.200000*%
%TD*%
%TA.AperFunction,Conductor*%
%ADD29C,0.400000*%
%TD*%
%TA.AperFunction,Conductor*%
%ADD30C,0.600000*%
%TD*%
%TA.AperFunction,Conductor*%
%ADD31C,0.500000*%
%TD*%
%TA.AperFunction,Conductor*%
%ADD32C,1.000000*%
%TD*%
%TA.AperFunction,Conductor*%
%ADD33C,0.800000*%
%TD*%
G04 APERTURE END LIST*
D10*
%TA.AperFunction,EtchedComponent*%
%TO.C,NT1*%
G36*
X151950000Y-112650000D02*
G01*
X151450000Y-112650000D01*
X151450000Y-111650000D01*
X151950000Y-111650000D01*
X151950000Y-112650000D01*
G37*
%TD.AperFunction*%
%TD*%
D11*
%TO.P,H2,1,1*%
%TO.N,GND*%
X131775000Y-108605000D03*
X132258274Y-107438274D03*
X132258274Y-109771726D03*
X133425000Y-106955000D03*
D12*
X133425000Y-108605000D03*
D11*
X133425000Y-110255000D03*
X134591726Y-107438274D03*
X134591726Y-109771726D03*
X135075000Y-108605000D03*
%TD*%
D13*
%TO.P,H1,1,1*%
%TO.N,GND*%
X165550000Y-123605000D03*
X166143109Y-122173109D03*
X166143109Y-125036891D03*
X167575000Y-121580000D03*
D14*
X167575000Y-123605000D03*
D13*
X167575000Y-125630000D03*
X169006891Y-122173109D03*
X169006891Y-125036891D03*
X169600000Y-123605000D03*
%TD*%
D15*
%TO.P,U1,39,GND*%
%TO.N,GND*%
X153600000Y-93258000D03*
X153600000Y-94658000D03*
X154300000Y-92558000D03*
X154300000Y-93958000D03*
X154300000Y-95358000D03*
X154975000Y-93258000D03*
X154975000Y-94658000D03*
X155700000Y-92558000D03*
X155700000Y-93958000D03*
X155700000Y-95358000D03*
X156400000Y-93258000D03*
X156400000Y-94658000D03*
%TD*%
D16*
%TO.P,BZ1,1,+*%
%TO.N,+5V*%
X134700000Y-88640000D03*
D17*
%TO.P,BZ1,2,-*%
%TO.N,Net-(BZ1--)*%
X137900000Y-88640000D03*
%TD*%
D13*
%TO.P,H4,1,1*%
%TO.N,unconnected-(H4-Pad1)*%
X131400000Y-77605000D03*
X131993109Y-76173109D03*
X131993109Y-79036891D03*
D14*
X133400000Y-77605000D03*
D13*
X133425000Y-75580000D03*
X133425000Y-79630000D03*
X134856891Y-76173109D03*
X134856891Y-79036891D03*
X135450000Y-77605000D03*
%TD*%
D18*
%TO.P,J1,1,Pin_1*%
%TO.N,/DTR*%
X145625000Y-124725000D03*
D19*
%TO.P,J1,2,Pin_2*%
%TO.N,/RTS*%
X148165000Y-124725000D03*
%TO.P,J1,3,Pin_3*%
%TO.N,+5V*%
X150705000Y-124725000D03*
%TO.P,J1,4,Pin_4*%
%TO.N,Net-(J1-Pin_4)*%
X153245000Y-124725000D03*
%TO.P,J1,5,Pin_5*%
%TO.N,Net-(J1-Pin_5)*%
X155785000Y-124725000D03*
%TO.P,J1,6,Pin_6*%
%TO.N,GND*%
X158325000Y-124725000D03*
%TO.P,J1,7,Pin_7*%
%TO.N,/EN*%
X160865000Y-124725000D03*
%TO.P,J1,8,Pin_8*%
%TO.N,/GPIO0*%
X163405000Y-124725000D03*
%TD*%
D20*
%TO.P,J3,1*%
%TO.N,Net-(U4-IN)*%
X136042500Y-113200000D03*
D21*
%TO.P,J3,2*%
%TO.N,GND*%
X136042500Y-119200000D03*
D22*
%TO.P,J3,3*%
%TO.N,unconnected-(J3-Pad3)*%
X140742500Y-116200000D03*
%TD*%
D13*
%TO.P,H3,1,1*%
%TO.N,unconnected-(H3-Pad1)*%
X165550000Y-77605000D03*
X166143109Y-76173109D03*
X166143109Y-79036891D03*
X167575000Y-75580000D03*
X167575000Y-79630000D03*
D14*
X167606891Y-77605000D03*
D13*
X169006891Y-76173109D03*
X169006891Y-79036891D03*
X169600000Y-77605000D03*
%TD*%
D23*
%TO.P,NT1,1*%
%TO.N,GNDA*%
X151700000Y-112650000D03*
%TO.P,NT1,2*%
%TO.N,GND*%
X151700000Y-111650000D03*
%TD*%
D24*
%TO.P,U3,1,GND*%
%TO.N,GND*%
X144500000Y-116890000D03*
%TO.P,U3,2,GND*%
X144500000Y-114350000D03*
%TO.P,U3,3,GND*%
X144500000Y-111810000D03*
%TO.P,U3,4,GND*%
X144500000Y-104190000D03*
%TO.P,U3,5,GND*%
X144500000Y-101650000D03*
%TO.P,U3,6,RXEN*%
%TO.N,/e22_RXEN*%
X144500000Y-99110000D03*
%TO.P,U3,7,TXEN*%
%TO.N,/e22_TXEN*%
X144500000Y-96570000D03*
%TO.P,U3,8,DIO2*%
%TO.N,unconnected-(U3-DIO2-Pad8)*%
X144500000Y-94030000D03*
%TO.P,U3,9,VCC*%
%TO.N,+5V*%
X144500000Y-91490000D03*
%TO.P,U3,10,VCC*%
X144500000Y-88950000D03*
%TO.P,U3,11,GND*%
%TO.N,GND*%
X144500000Y-86410000D03*
%TO.P,U3,12,GND*%
X168500000Y-86410000D03*
%TO.P,U3,13,DIO1*%
%TO.N,/e22_DIO1*%
X168500000Y-88950000D03*
%TO.P,U3,14,BUSY*%
%TO.N,/e22_BUSY*%
X168500000Y-91490000D03*
%TO.P,U3,15,NRST*%
%TO.N,/e22_NRST*%
X168500000Y-94030000D03*
%TO.P,U3,16,MISO*%
%TO.N,/e22_MISO*%
X168500000Y-96570000D03*
%TO.P,U3,17,MOSI*%
%TO.N,/e22_MOSI*%
X168500000Y-99110000D03*
%TO.P,U3,18,SCK*%
%TO.N,/e22_SCK*%
X168500000Y-101650000D03*
%TO.P,U3,19,NSS*%
%TO.N,/e22_NSS*%
X168500000Y-104190000D03*
%TO.P,U3,20,GND*%
%TO.N,GND*%
X168500000Y-111810000D03*
%TO.P,U3,21,ANT*%
%TO.N,Net-(J4-In)*%
X168500000Y-114350000D03*
%TO.P,U3,22,GND*%
%TO.N,GND*%
X168500000Y-116890000D03*
%TD*%
D18*
%TO.P,J2,1*%
%TO.N,+3.3V*%
X137850000Y-76700000D03*
D19*
%TO.P,J2,2*%
%TO.N,/gpio_26*%
X140390000Y-76700000D03*
%TO.P,J2,3*%
%TO.N,/USR_BTN*%
X142930000Y-76700000D03*
%TO.P,J2,4*%
%TO.N,/vbat_mon*%
X145470000Y-76700000D03*
%TO.P,J2,5*%
%TO.N,/5V_pwrctrl*%
X148010000Y-76700000D03*
%TO.P,J2,6*%
%TO.N,/SCL*%
X150550000Y-76700000D03*
%TO.P,J2,7*%
%TO.N,/SDA*%
X153090000Y-76700000D03*
%TO.P,J2,8*%
%TO.N,/GPS_pwr*%
X155630000Y-76700000D03*
%TO.P,J2,9*%
%TO.N,/GPS_RX*%
X158170000Y-76700000D03*
%TO.P,J2,10*%
%TO.N,/GPS_TX*%
X160710000Y-76700000D03*
%TO.P,J2,11*%
%TO.N,GND*%
X163250000Y-76700000D03*
%TD*%
D25*
%TO.N,GND*%
X169400000Y-115700000D03*
X168200000Y-115700000D03*
X168800000Y-115700000D03*
X168200000Y-113000000D03*
X166600000Y-112300000D03*
X168800000Y-113000000D03*
D26*
X160000000Y-92400000D03*
D25*
X166700000Y-117300000D03*
X157950000Y-108050000D03*
D26*
X159200000Y-90200000D03*
X147500000Y-111450000D03*
X160800000Y-90200000D03*
D25*
X144800000Y-87600000D03*
D26*
X155800000Y-86000000D03*
X161600000Y-90200000D03*
X149600000Y-111499990D03*
D25*
X164900000Y-117000000D03*
X166000000Y-112300000D03*
X157950000Y-106850000D03*
D26*
X149800000Y-103950000D03*
D25*
X145400000Y-87600000D03*
X147999977Y-85000000D03*
X166000000Y-111700000D03*
D26*
X150600004Y-111500000D03*
D25*
X165100000Y-113450000D03*
X164321143Y-114604185D03*
X157950000Y-107450000D03*
X150200000Y-86950000D03*
D26*
X160800000Y-92400000D03*
X148600000Y-111500000D03*
D25*
X151000000Y-86150000D03*
X150200000Y-85350000D03*
D26*
X159200000Y-92400000D03*
D25*
X166600000Y-111700000D03*
D26*
X147400000Y-103950000D03*
X158800000Y-86000000D03*
D25*
X164300000Y-115200000D03*
D26*
X164100000Y-86000000D03*
X157300000Y-86000000D03*
D25*
X151000000Y-86950000D03*
X164900000Y-115800000D03*
D26*
X160300000Y-86000000D03*
X161600000Y-92400000D03*
D25*
X165500000Y-117300000D03*
X146800000Y-85000000D03*
X146400000Y-95900000D03*
X164900000Y-116400000D03*
X169400000Y-113000000D03*
X166100000Y-117300000D03*
D26*
X160000000Y-90200000D03*
X148200000Y-103950000D03*
D25*
X147400000Y-85000000D03*
X150200000Y-86150000D03*
D26*
X149000000Y-103950000D03*
D25*
X164300000Y-115800000D03*
X151000000Y-85350000D03*
X143600000Y-87600000D03*
X144200000Y-87600000D03*
%TO.N,/EN*%
X163300000Y-103100011D03*
X151099364Y-97499364D03*
X157869975Y-101819975D03*
X161935277Y-108402705D03*
X149400000Y-88800000D03*
%TO.N,/GPIO2*%
X156237208Y-106109850D03*
X156600000Y-110350000D03*
D26*
%TO.N,+3.3V*%
X159250000Y-113450000D03*
X161054504Y-120800010D03*
D25*
%TO.N,/GPIO0*%
X162750000Y-108450000D03*
D27*
%TO.N,Net-(J4-In)*%
X169250000Y-114600000D03*
D25*
%TO.N,/GPIO16*%
X149657000Y-106807000D03*
X163200003Y-101500000D03*
X152050735Y-105800735D03*
%TO.N,/e22_NRST*%
X163000000Y-94400000D03*
%TO.N,/SDA*%
X163300000Y-88500000D03*
%TO.N,/e22_MISO*%
X163000000Y-95700000D03*
%TO.N,/e22_NSS*%
X161126472Y-101499999D03*
%TO.N,/e22_SCK*%
X162000000Y-101486863D03*
%TO.N,/SRAM_CLK*%
X160300000Y-101500000D03*
X151419363Y-107800746D03*
%TO.N,/SDI_SD1*%
X155428015Y-106070514D03*
X150361908Y-109278993D03*
%TO.N,/SDO_SD0*%
X149700000Y-108077000D03*
X155398859Y-105242745D03*
%TO.N,/SWP_SD3*%
X150625292Y-108078992D03*
X154600000Y-105199989D03*
%TO.N,/SHD_SD2*%
X150167700Y-107422783D03*
X151252554Y-105746794D03*
%TO.N,/e22_TXEN*%
X151000000Y-101200000D03*
%TO.N,/e22_RXEN*%
X146390000Y-99110000D03*
%TO.N,/e22_MOSI*%
X157900000Y-100219964D03*
%TO.N,/e22_DIO1*%
X151104453Y-95400000D03*
%TO.N,/e22_BUSY*%
X151104453Y-96200000D03*
D26*
%TO.N,+5V*%
X145300000Y-122100000D03*
X145300000Y-121300000D03*
D25*
X144800000Y-92750000D03*
X145400000Y-92750000D03*
D26*
X153900000Y-113700000D03*
D25*
X144200000Y-92750000D03*
X143600000Y-92750000D03*
D26*
X153100000Y-113700000D03*
D25*
X149784467Y-116356893D03*
D26*
X145300000Y-120500000D03*
X157380000Y-123310000D03*
D25*
%TO.N,/5V_pwrctrl*%
X149504442Y-94500000D03*
X149700000Y-97600000D03*
%TO.N,GNDA*%
X151400000Y-115450000D03*
X152600000Y-115450000D03*
X152000000Y-115450000D03*
X150800000Y-115450000D03*
X150200000Y-115450000D03*
X147400000Y-112750000D03*
X149000000Y-115600000D03*
X149000000Y-114400000D03*
X149600000Y-114400000D03*
X149600000Y-115000000D03*
X149000000Y-115000000D03*
%TO.N,/GPS_TX*%
X163300012Y-86900000D03*
%TO.N,/USR_BTN*%
X150949264Y-88199265D03*
%TO.N,/GPS_PWR_enable*%
X161250000Y-119100000D03*
X164440000Y-105602831D03*
X164400000Y-119700000D03*
%TO.N,/GPS_RX*%
X150500010Y-93476246D03*
X151100000Y-98700000D03*
X153275735Y-83925735D03*
%TO.N,/gpio_26*%
X149700000Y-98900000D03*
D26*
X140450000Y-82130000D03*
D25*
%TO.N,Net-(U1-IO34)*%
X151186778Y-88964677D03*
X153300032Y-88550000D03*
%TD*%
D28*
%TO.N,GND*%
X161600000Y-92400000D02*
X160800000Y-92400000D01*
X160000000Y-92400000D02*
X159200000Y-92400000D01*
D29*
X157300000Y-86000000D02*
X155800000Y-86000000D01*
D30*
X148400000Y-111700000D02*
X146800000Y-111700000D01*
D28*
X157950000Y-108050000D02*
X157950000Y-107450000D01*
D30*
X144200000Y-87600000D02*
X144200000Y-86750000D01*
X143600000Y-87600000D02*
X143600000Y-86650000D01*
D28*
X149800000Y-104100000D02*
X149000000Y-104100000D01*
D30*
X144800000Y-87600000D02*
X144800000Y-86850000D01*
X168200000Y-113000000D02*
X168200000Y-112300000D01*
X148600000Y-111600000D02*
X148500000Y-111600000D01*
D28*
X166150000Y-111700000D02*
X166750000Y-111700000D01*
D31*
X164100000Y-77550000D02*
X163250000Y-76700000D01*
D28*
X144500000Y-86410000D02*
X144500000Y-86700000D01*
D30*
X168800000Y-115700000D02*
X168800000Y-116300000D01*
X167800000Y-117300000D02*
X168000000Y-117100000D01*
D28*
X160800000Y-90200000D02*
X161600000Y-90200000D01*
D30*
X169400000Y-113000000D02*
X169400000Y-112600000D01*
D28*
X148200000Y-104100000D02*
X147400000Y-104100000D01*
D30*
X150200000Y-85350000D02*
X151000000Y-85350000D01*
D29*
X150599994Y-111599990D02*
X150600004Y-111600000D01*
D30*
X147400000Y-85000000D02*
X146800000Y-85000000D01*
D28*
X168500000Y-112010000D02*
X168500000Y-112800000D01*
D30*
X147400000Y-85000000D02*
X147999977Y-85000000D01*
X147500000Y-111700000D02*
X146800000Y-111700000D01*
D31*
X164100000Y-86000000D02*
X164100000Y-77550000D01*
D29*
X160300000Y-86000000D02*
X158800000Y-86000000D01*
D30*
X169400000Y-112700000D02*
X168800000Y-112700000D01*
D28*
X164300000Y-114625328D02*
X164321143Y-114604185D01*
X166750000Y-112300000D02*
X166150000Y-112300000D01*
D30*
X169400000Y-113000000D02*
X168200000Y-113000000D01*
D28*
X164300000Y-115800000D02*
X164900000Y-115800000D01*
D30*
X148500000Y-111600000D02*
X148400000Y-111700000D01*
X145400000Y-87600000D02*
X145400000Y-86850000D01*
D28*
X164900000Y-116400000D02*
X164900000Y-117000000D01*
D31*
X163250000Y-76700000D02*
X163770000Y-77220000D01*
D30*
X168800000Y-116300000D02*
X169400000Y-115700000D01*
D28*
X164300000Y-115200000D02*
X164300000Y-114625328D01*
X144200000Y-87600000D02*
X144800000Y-87600000D01*
D30*
X168200000Y-115700000D02*
X168200000Y-116300000D01*
D28*
X159200000Y-90200000D02*
X160000000Y-90200000D01*
D30*
X150200000Y-85350000D02*
X150200000Y-86150000D01*
X169400000Y-115700000D02*
X169400000Y-116200000D01*
D29*
X158800000Y-86000000D02*
X157300000Y-86000000D01*
D30*
X168200000Y-115700000D02*
X169400000Y-115700000D01*
X151000000Y-86150000D02*
X151000000Y-86950000D01*
D28*
X165500000Y-117300000D02*
X166100000Y-117300000D01*
X168200000Y-116000000D02*
X168800000Y-116000000D01*
D29*
X149600000Y-111599990D02*
X150599994Y-111599990D01*
D30*
X143600000Y-86650000D02*
X143800000Y-86450000D01*
D32*
X150600004Y-111500000D02*
X152850000Y-111500000D01*
D29*
X148599970Y-111600030D02*
X148600000Y-111600000D01*
X147500000Y-111600030D02*
X148599970Y-111600030D01*
D30*
X166700000Y-117300000D02*
X167800000Y-117300000D01*
D28*
%TO.N,/EN*%
X161234302Y-102200000D02*
X161342151Y-102307849D01*
X162349990Y-110151462D02*
X160249989Y-112251462D01*
X158494230Y-101619984D02*
X159530016Y-101619984D01*
X150504453Y-94359805D02*
X150504452Y-96704452D01*
X161521173Y-102486871D02*
X161868615Y-102486871D01*
X161750504Y-120511717D02*
X161750504Y-123839496D01*
X161868615Y-102486871D02*
X162281764Y-102900021D01*
X160249989Y-119515687D02*
X160367151Y-119632849D01*
X150504452Y-96704452D02*
X150504452Y-96829337D01*
X151100011Y-93188245D02*
X151100011Y-93764247D01*
X162281764Y-102900021D02*
X163100010Y-102900021D01*
X163100010Y-102900021D02*
X163300000Y-103100011D01*
X151100011Y-93764247D02*
X150504453Y-94359805D01*
X161342151Y-102307849D02*
X161521173Y-102486871D01*
X157869975Y-101819975D02*
X158294239Y-101819975D01*
X160834311Y-120100010D02*
X160367151Y-119632849D01*
X162349990Y-108949990D02*
X162349990Y-110151462D01*
X150761766Y-92850000D02*
X151100011Y-93188245D01*
X159698033Y-101788001D02*
X159530016Y-101619984D01*
X160834311Y-120100010D02*
X161338797Y-120100010D01*
X157869975Y-101819975D02*
X157869975Y-101969975D01*
X149400000Y-88800000D02*
X149900000Y-89300000D01*
X161750504Y-123839496D02*
X160865000Y-124725000D01*
X161935277Y-108402705D02*
X161935277Y-108535277D01*
X160011999Y-102100001D02*
X159699999Y-101788001D01*
X149900000Y-89300000D02*
X149900000Y-92600000D01*
X160367151Y-119632849D02*
X160249989Y-119515688D01*
X159699999Y-101788001D02*
X159698033Y-101788001D01*
X158294239Y-101819975D02*
X158494230Y-101619984D01*
X149600000Y-89000000D02*
X149400000Y-88800000D01*
X150504452Y-96704452D02*
X150504452Y-96904452D01*
X160011999Y-102100001D02*
X161134302Y-102100000D01*
X149900000Y-92600000D02*
X150150000Y-92850000D01*
X161134302Y-102100000D02*
X161342151Y-102307849D01*
X161338797Y-120100010D02*
X161750504Y-120511717D01*
X160249989Y-112251462D02*
X160249989Y-119515687D01*
X151100011Y-93764247D02*
X150600010Y-94264248D01*
X161935277Y-108535277D02*
X162349990Y-108949990D01*
X150504452Y-96904452D02*
X151099364Y-97499364D01*
X150150000Y-92850000D02*
X150761766Y-92850000D01*
%TO.N,/GPIO2*%
X155429485Y-106670515D02*
X155676543Y-106670515D01*
X154770515Y-106670515D02*
X155676543Y-106670515D01*
X154770515Y-106670515D02*
X155429485Y-106670515D01*
X153800010Y-107162780D02*
X154292275Y-106670515D01*
X155350000Y-109200000D02*
X154200000Y-109200000D01*
X153800010Y-107165689D02*
X153800010Y-107162780D01*
X154200000Y-109200000D02*
X153400000Y-108400000D01*
X156500000Y-110350000D02*
X155350000Y-109200000D01*
X153400000Y-108400000D02*
X153400000Y-107565699D01*
X155716016Y-106670515D02*
X156237208Y-106149323D01*
X154292275Y-106670515D02*
X154770515Y-106670515D01*
X156237208Y-106149323D02*
X156237208Y-106109850D01*
X153400000Y-107565699D02*
X153800010Y-107165689D01*
X155429485Y-106670515D02*
X155716016Y-106670515D01*
D30*
%TO.N,+3.3V*%
X159300000Y-113450000D02*
X159649979Y-113799979D01*
X159649979Y-113799979D02*
X159649979Y-119764207D01*
X160685782Y-120800010D02*
X161054504Y-120800010D01*
X159250000Y-113450000D02*
X159300000Y-113450000D01*
X159649979Y-119764207D02*
X160685782Y-120800010D01*
D28*
%TO.N,/GPIO0*%
X161502825Y-119704010D02*
X162146504Y-120347689D01*
X160649999Y-112417151D02*
X160649999Y-119349999D01*
X162750000Y-110317150D02*
X160649999Y-112417151D01*
X160649999Y-119349999D02*
X161000000Y-119700000D01*
X163405000Y-124325000D02*
X163405000Y-124725000D01*
X162146504Y-123066504D02*
X163405000Y-124325000D01*
X161000000Y-119700000D02*
X161000000Y-119704010D01*
X164150000Y-124750000D02*
X164100000Y-124800000D01*
X162750000Y-108450000D02*
X162750000Y-110317150D01*
X162146504Y-120347689D02*
X162146504Y-123066504D01*
X161000000Y-119704010D02*
X161502825Y-119704010D01*
D32*
%TO.N,Net-(J4-In)*%
X169250000Y-114600000D02*
X168700000Y-114600000D01*
D28*
%TO.N,/GPIO16*%
X162700000Y-101500000D02*
X162600001Y-101400001D01*
X156499990Y-101736259D02*
X157416285Y-100819964D01*
X152050735Y-105800735D02*
X152050735Y-105696446D01*
X162600001Y-101198862D02*
X162221103Y-100819964D01*
X150964553Y-105146793D02*
X150652553Y-105458793D01*
X150652553Y-106447447D02*
X150293000Y-106807000D01*
X162600001Y-101400001D02*
X162600001Y-101198862D01*
X152050735Y-105800735D02*
X153701480Y-104149990D01*
X153701480Y-104149990D02*
X156034312Y-104149990D01*
X156499990Y-103684312D02*
X156499990Y-101736259D01*
X152050735Y-105696446D02*
X151501082Y-105146793D01*
X150293000Y-106807000D02*
X149657000Y-106807000D01*
X162221103Y-100819964D02*
X157416285Y-100819964D01*
X156034312Y-104149990D02*
X156499990Y-103684312D01*
X150652553Y-105458793D02*
X150652553Y-106447447D01*
X151501082Y-105146793D02*
X150964553Y-105146793D01*
X163200003Y-101500000D02*
X162700000Y-101500000D01*
%TO.N,/e22_NRST*%
X168500000Y-94030000D02*
X163370000Y-94030000D01*
X163370000Y-94030000D02*
X163000000Y-94400000D01*
%TO.N,/SDA*%
X153090000Y-83268598D02*
X153090000Y-76700000D01*
X163300000Y-88500000D02*
X155875000Y-88500000D01*
X163300000Y-88353688D02*
X163300000Y-88500000D01*
X155875000Y-88500000D02*
X152674735Y-85299735D01*
X152674735Y-83683863D02*
X153090000Y-83268598D01*
X152674735Y-85299735D02*
X152674735Y-83683863D01*
%TO.N,/e22_MISO*%
X168500000Y-96570000D02*
X163870000Y-96570000D01*
X163870000Y-96570000D02*
X163000000Y-95700000D01*
%TO.N,/e22_NSS*%
X161686863Y-102086863D02*
X161125462Y-101525462D01*
X168500000Y-104190000D02*
X168490000Y-104200000D01*
X162447453Y-102500011D02*
X162034305Y-102086863D01*
X161125462Y-101525462D02*
X161125462Y-101476532D01*
X168490000Y-104200000D02*
X165299978Y-104200000D01*
X162034305Y-102086863D02*
X161686863Y-102086863D01*
X163599989Y-102500011D02*
X162447453Y-102500011D01*
X165299978Y-104200000D02*
X163599989Y-102500011D01*
%TO.N,/e22_SCK*%
X168500000Y-101650000D02*
X163950002Y-101650000D01*
X162106567Y-101593430D02*
X162000000Y-101486863D01*
X163950002Y-101650000D02*
X163500001Y-102100001D01*
X162106570Y-101593430D02*
X162106567Y-101593430D01*
X162000002Y-101486862D02*
X162106570Y-101593430D01*
X162613141Y-102100001D02*
X162556570Y-102043430D01*
X162556570Y-102043430D02*
X162106570Y-101593430D01*
X163500001Y-102100001D02*
X162613141Y-102100001D01*
%TO.N,/SRAM_CLK*%
X151500001Y-107720108D02*
X151419363Y-107800746D01*
X156900000Y-101901948D02*
X156900000Y-103850000D01*
X157581974Y-101219974D02*
X156900000Y-101901948D01*
X151500000Y-107800746D02*
X151500001Y-107199999D01*
X151500001Y-107199999D02*
X151500001Y-107720108D01*
X160300000Y-101500000D02*
X160019974Y-101219974D01*
X160019974Y-101219974D02*
X157581974Y-101219974D01*
X154150002Y-104550000D02*
X151500003Y-107199999D01*
X156900000Y-103850000D02*
X156200000Y-104550000D01*
X151500003Y-107199999D02*
X151500001Y-107199999D01*
X156200000Y-104550000D02*
X154150002Y-104550000D01*
%TO.N,/SDI_SD1*%
X153100020Y-107299980D02*
X153400000Y-107000000D01*
X154148546Y-106248548D02*
X152900021Y-107497073D01*
X150440134Y-109200767D02*
X152038742Y-109200767D01*
X153400000Y-106997092D02*
X154148546Y-106248546D01*
X154500010Y-106200010D02*
X154300010Y-106200010D01*
X150440134Y-109200767D02*
X150361908Y-109278993D01*
X154148546Y-106248546D02*
X154197082Y-106200010D01*
X154500010Y-106200010D02*
X155298519Y-106200010D01*
X154148546Y-106248546D02*
X154148546Y-106248548D01*
X152038742Y-109200767D02*
X152900021Y-108339488D01*
X155298519Y-106200010D02*
X155428015Y-106070514D01*
X154197082Y-106200010D02*
X154500010Y-106200010D01*
X152900021Y-108339488D02*
X152900021Y-107497073D01*
X153400000Y-107000000D02*
X153400000Y-106997092D01*
%TO.N,/SDO_SD0*%
X152500011Y-108173799D02*
X152500011Y-107331385D01*
X151873053Y-108800757D02*
X152500011Y-108173799D01*
X152500011Y-107331385D02*
X152715698Y-107115698D01*
X150781358Y-108800757D02*
X151873053Y-108800757D01*
X155398859Y-105251141D02*
X154850001Y-105799999D01*
X154850001Y-105799999D02*
X154031395Y-105799999D01*
X155398859Y-105242745D02*
X155398859Y-105251141D01*
X149700000Y-108077000D02*
X150301993Y-108678993D01*
X150659594Y-108678993D02*
X150781358Y-108800757D01*
X149900000Y-108100000D02*
X149900000Y-108202230D01*
X150301993Y-108678993D02*
X150659594Y-108678993D01*
X154031395Y-105799999D02*
X152625746Y-107205648D01*
%TO.N,/SWP_SD3*%
X154600000Y-105199989D02*
X154065708Y-105199989D01*
X150625292Y-108078992D02*
X150947047Y-108400747D01*
X151707364Y-108400747D02*
X152100001Y-108008110D01*
X152100001Y-108008110D02*
X152100001Y-107165696D01*
X154065708Y-105199989D02*
X152100001Y-107165696D01*
X150947047Y-108400747D02*
X151707364Y-108400747D01*
X150625292Y-108078992D02*
X150604284Y-108100000D01*
%TO.N,/SHD_SD2*%
X151252554Y-105746794D02*
X151200000Y-105799348D01*
X151252554Y-106881748D02*
X150711519Y-107422783D01*
X151252554Y-105746794D02*
X151252554Y-106881748D01*
X150711519Y-107422783D02*
X150167700Y-107422783D01*
%TO.N,/e22_TXEN*%
X148700000Y-101200000D02*
X151000000Y-101200000D01*
X147100000Y-99600000D02*
X148700000Y-101200000D01*
X147100000Y-96900000D02*
X147100000Y-99600000D01*
X144500000Y-96570000D02*
X146770000Y-96570000D01*
X146770000Y-96570000D02*
X147100000Y-96900000D01*
%TO.N,/e22_RXEN*%
X146390000Y-99110000D02*
X146559990Y-99110000D01*
X144500000Y-99110000D02*
X146390000Y-99110000D01*
%TO.N,/e22_MOSI*%
X157900000Y-100219964D02*
X157900000Y-100250000D01*
X168500000Y-99110000D02*
X166040000Y-99110000D01*
X158019964Y-100219964D02*
X158219954Y-100419954D01*
X158219954Y-100419954D02*
X162280046Y-100419954D01*
X162280046Y-100419954D02*
X163590000Y-99110000D01*
X158080036Y-100400000D02*
X157900000Y-100219964D01*
X163590000Y-99110000D02*
X166040000Y-99110000D01*
X157900000Y-100219964D02*
X158019964Y-100219964D01*
%TO.N,/e22_DIO1*%
X165600000Y-90629980D02*
X165600000Y-89250000D01*
X151304444Y-94125513D02*
X150904463Y-94525493D01*
X151500021Y-93929936D02*
X151500021Y-91934279D01*
X165600000Y-89250000D02*
X165900000Y-88950000D01*
X150904463Y-95200010D02*
X151104453Y-95400000D01*
X165900000Y-88950000D02*
X168500000Y-88950000D01*
X165139990Y-91089990D02*
X165600000Y-90629980D01*
X152344310Y-91089990D02*
X165139990Y-91089990D01*
X150904463Y-94525493D02*
X150904463Y-95200010D01*
X151304444Y-94125513D02*
X151500021Y-93929936D01*
X151500021Y-91934279D02*
X152344310Y-91089990D01*
%TO.N,/e22_BUSY*%
X151900031Y-94095624D02*
X151900031Y-93900031D01*
X168500000Y-91490000D02*
X152509999Y-91490000D01*
X151500000Y-94495655D02*
X151900031Y-94095624D01*
X151704454Y-95111999D02*
X151500000Y-94907545D01*
X151500000Y-94907545D02*
X151500000Y-94495655D01*
X151192455Y-96200000D02*
X151104453Y-96200000D01*
X152509999Y-91490000D02*
X151900031Y-92099968D01*
X151900031Y-93749969D02*
X151900031Y-93900031D01*
X151704454Y-95111999D02*
X151704454Y-95688001D01*
X151900031Y-92099968D02*
X151900031Y-93749969D01*
X151704454Y-95688001D02*
X151192455Y-96200000D01*
D32*
%TO.N,+5V*%
X153300000Y-122700000D02*
X151790000Y-122700000D01*
X151050000Y-122700000D02*
X151875000Y-122700000D01*
X153300000Y-122400000D02*
X152737500Y-121837500D01*
X145300000Y-120500000D02*
X145300000Y-122200000D01*
X155200000Y-118780000D02*
X155200000Y-119050000D01*
X154187500Y-120387500D02*
X155200000Y-119375000D01*
X153100000Y-113700000D02*
X154550000Y-113700000D01*
X154550000Y-113700000D02*
X155200000Y-114350000D01*
X151875000Y-122700000D02*
X152737500Y-121837500D01*
D30*
X144899998Y-88600000D02*
X144900000Y-88599998D01*
D28*
X149784467Y-116356893D02*
X154843107Y-116356893D01*
D30*
X144900002Y-88600000D02*
X144900000Y-88599998D01*
D32*
X155200000Y-117600000D02*
X155200000Y-116000000D01*
X153300000Y-122700000D02*
X153300000Y-122400000D01*
X152737500Y-121837500D02*
X154187500Y-120387500D01*
X155200000Y-114350000D02*
X155200000Y-116000000D01*
X145300000Y-122200000D02*
X145800000Y-122700000D01*
X155200000Y-118780000D02*
X155200000Y-117600000D01*
D30*
X155200000Y-118550000D02*
X155200000Y-117600000D01*
D32*
X150705000Y-123045000D02*
X150705000Y-124725000D01*
X151050000Y-122700000D02*
X150705000Y-123045000D01*
X151050000Y-122700000D02*
X153300000Y-122700000D01*
X155200000Y-117600000D02*
X155200000Y-119000000D01*
X155200000Y-119375000D02*
X155200000Y-118780000D01*
X145800000Y-122700000D02*
X151050000Y-122700000D01*
X156770000Y-122700000D02*
X157380000Y-123310000D01*
X153300000Y-122700000D02*
X156770000Y-122700000D01*
D28*
X154843107Y-116356893D02*
X155200000Y-116000000D01*
%TO.N,/5V_pwrctrl*%
X149700000Y-97600000D02*
X149700000Y-94695558D01*
X149700000Y-94695558D02*
X149504442Y-94500000D01*
X149504442Y-94500000D02*
X149504442Y-94504442D01*
%TO.N,GNDA*%
X148400000Y-112850000D02*
X147400000Y-112850000D01*
X149000000Y-113450000D02*
X148400000Y-112850000D01*
X149000000Y-115000000D02*
X149000000Y-113550000D01*
D30*
X149000000Y-115600000D02*
X149000000Y-115000000D01*
D28*
X149000000Y-113550000D02*
X149000000Y-113450000D01*
D33*
X150350000Y-112700000D02*
X152400000Y-112700000D01*
D28*
X149000000Y-114400000D02*
X149600000Y-114400000D01*
%TO.N,/GPS_TX*%
X163300012Y-86900000D02*
X163300012Y-79420012D01*
X163300012Y-79420012D02*
X160710000Y-76830000D01*
X160710000Y-76830000D02*
X160710000Y-76700000D01*
%TO.N,/USR_BTN*%
X149395990Y-87000933D02*
X149395990Y-83935961D01*
X140786000Y-78934000D02*
X142930000Y-76790000D01*
X140786000Y-81481707D02*
X140786000Y-78934000D01*
X142930000Y-76790000D02*
X142930000Y-76700000D01*
X141108293Y-81804000D02*
X140786000Y-81481707D01*
X149400990Y-87000933D02*
X149395990Y-87000933D01*
X147264028Y-81804000D02*
X141108293Y-81804000D01*
X150949264Y-88199265D02*
X150599322Y-88199265D01*
X149395990Y-83935961D02*
X147264028Y-81804000D01*
X150599322Y-88199265D02*
X149400990Y-87000933D01*
%TO.N,/GPS_PWR_enable*%
X163350001Y-108738001D02*
X163150010Y-108937992D01*
X161050009Y-112582839D02*
X161050009Y-118900009D01*
X164440000Y-105602831D02*
X164200000Y-105842831D01*
X161050009Y-118900009D02*
X161250000Y-119100000D01*
X161250000Y-119100000D02*
X163800000Y-119100000D01*
X163150010Y-110482839D02*
X161050009Y-112582839D01*
X163150010Y-108937992D02*
X163150010Y-110482839D01*
X161150000Y-119000000D02*
X161250000Y-119100000D01*
X163800000Y-119100000D02*
X164400000Y-119700000D01*
X163350001Y-106999999D02*
X163350001Y-108738001D01*
X164200000Y-106150000D02*
X163350001Y-106999999D01*
X164200000Y-105842831D02*
X164200000Y-106150000D01*
%TO.N,/GPS_RX*%
X150300000Y-97888002D02*
X150300000Y-97311998D01*
X150400000Y-98700000D02*
X150100000Y-98400000D01*
X153275735Y-83642891D02*
X153486000Y-83432626D01*
X150104443Y-93871813D02*
X150500010Y-93476246D01*
X150100000Y-98400000D02*
X150100000Y-98088002D01*
X150100000Y-98088002D02*
X150300000Y-97888002D01*
X150104443Y-97116441D02*
X150104443Y-93871813D01*
X151100000Y-98700000D02*
X150400000Y-98700000D01*
X153275735Y-83925735D02*
X153275735Y-83642891D01*
X150104443Y-97116441D02*
X150300000Y-97311998D01*
X153486000Y-83432626D02*
X153486000Y-78104000D01*
X156766000Y-78104000D02*
X158170000Y-76700000D01*
X153486000Y-78104000D02*
X156766000Y-78104000D01*
%TO.N,/gpio_26*%
X149099999Y-97311999D02*
X149299990Y-97112008D01*
X140390000Y-82070000D02*
X140390000Y-76700000D01*
X140520000Y-82200000D02*
X147100000Y-82200000D01*
X148800000Y-88511998D02*
X148800000Y-89050000D01*
X148904441Y-94788001D02*
X149299990Y-95183550D01*
X147100000Y-82200000D02*
X148999990Y-84099990D01*
X149700000Y-98300000D02*
X149600001Y-98200001D01*
X149500000Y-89750000D02*
X149500000Y-93616440D01*
X140450000Y-82130000D02*
X140520000Y-82200000D01*
X148999990Y-84099990D02*
X148999990Y-88312008D01*
X149500000Y-93616440D02*
X148904441Y-94211999D01*
X149099999Y-97888001D02*
X149099999Y-97311999D01*
X149700000Y-98900000D02*
X149700000Y-98300000D01*
X149299990Y-95183550D02*
X149299990Y-96700000D01*
X149600001Y-98200001D02*
X149411999Y-98200001D01*
X149411999Y-98200001D02*
X149099999Y-97888001D01*
X148904441Y-94595559D02*
X148904441Y-94788001D01*
X149299990Y-97112008D02*
X149299990Y-96700000D01*
X148904441Y-94211999D02*
X148904441Y-94595559D01*
X140450000Y-82130000D02*
X140390000Y-82070000D01*
X148800000Y-89050000D02*
X149500000Y-89750000D01*
X148904441Y-94211999D02*
X148904441Y-94788001D01*
X149700000Y-98600000D02*
X149700000Y-98900000D01*
X148999990Y-88312008D02*
X148800000Y-88511998D01*
%TO.N,Net-(U1-IO34)*%
X153300032Y-88550000D02*
X151601455Y-88550000D01*
X151601455Y-88550000D02*
X151186778Y-88964677D01*
%TD*%
%TA.AperFunction,Conductor*%
%TO.N,GNDA*%
G36*
X150516490Y-112300500D02*
G01*
X151068432Y-112300500D01*
X151154775Y-112320207D01*
X151224016Y-112375426D01*
X151262443Y-112455218D01*
X151262443Y-112543782D01*
X151260651Y-112551005D01*
X151250001Y-112590750D01*
X151250000Y-112590758D01*
X151250000Y-112709246D01*
X151249999Y-112709246D01*
X151257860Y-112738583D01*
X151257861Y-112738584D01*
X151382509Y-112613937D01*
X151401494Y-112602007D01*
X151417349Y-112586153D01*
X151438510Y-112578747D01*
X151457497Y-112566818D01*
X151479778Y-112564307D01*
X151500942Y-112556902D01*
X151523223Y-112559412D01*
X151545504Y-112556902D01*
X151566667Y-112564307D01*
X151588949Y-112566818D01*
X151607935Y-112578747D01*
X151629097Y-112586153D01*
X151663937Y-112613937D01*
X151699999Y-112649999D01*
X151736064Y-112613936D01*
X151811053Y-112566818D01*
X151899059Y-112556902D01*
X151982653Y-112586154D01*
X152017491Y-112613937D01*
X152142137Y-112738583D01*
X152149999Y-112709243D01*
X152150000Y-112709242D01*
X152150000Y-112590758D01*
X152149998Y-112590750D01*
X152139349Y-112551005D01*
X152136037Y-112462504D01*
X152171453Y-112381330D01*
X152238581Y-112323561D01*
X152324127Y-112300639D01*
X152331568Y-112300500D01*
X152933514Y-112300500D01*
X152943694Y-112300000D01*
X154501000Y-112300000D01*
X154522858Y-112304989D01*
X154545282Y-112304989D01*
X154565483Y-112314717D01*
X154587343Y-112319707D01*
X154604874Y-112333688D01*
X154625074Y-112343416D01*
X154639053Y-112360946D01*
X154656584Y-112374926D01*
X154666311Y-112395125D01*
X154680293Y-112412657D01*
X154685282Y-112434516D01*
X154695011Y-112454718D01*
X154700000Y-112499000D01*
X154700000Y-112700500D01*
X154680293Y-112786843D01*
X154625074Y-112856084D01*
X154545282Y-112894511D01*
X154501000Y-112899500D01*
X153021158Y-112899500D01*
X152970072Y-112909661D01*
X152866506Y-112930262D01*
X152866499Y-112930264D01*
X152720825Y-112990603D01*
X152720818Y-112990607D01*
X152589715Y-113078208D01*
X152589707Y-113078214D01*
X152478214Y-113189707D01*
X152478208Y-113189715D01*
X152390607Y-113320818D01*
X152390603Y-113320825D01*
X152330264Y-113466499D01*
X152330262Y-113466506D01*
X152299500Y-113621158D01*
X152299500Y-113778841D01*
X152330262Y-113933493D01*
X152330264Y-113933500D01*
X152390603Y-114079174D01*
X152390606Y-114079179D01*
X152478211Y-114210289D01*
X152589711Y-114321789D01*
X152719939Y-114408805D01*
X152720818Y-114409392D01*
X152720825Y-114409396D01*
X152793662Y-114439565D01*
X152866503Y-114469737D01*
X153021158Y-114500500D01*
X154135994Y-114500500D01*
X154168541Y-114507928D01*
X154201720Y-114511667D01*
X154211303Y-114517688D01*
X154222337Y-114520207D01*
X154276708Y-114558786D01*
X154341214Y-114623292D01*
X154388333Y-114698280D01*
X154399500Y-114764006D01*
X154399500Y-115757393D01*
X154379793Y-115843736D01*
X154324574Y-115912977D01*
X154244782Y-115951404D01*
X154200500Y-115956393D01*
X150315631Y-115956393D01*
X150229288Y-115936686D01*
X150174917Y-115898107D01*
X150153183Y-115876373D01*
X150153179Y-115876370D01*
X150016260Y-115797320D01*
X150016252Y-115797316D01*
X150016251Y-115797316D01*
X150016249Y-115797315D01*
X150016248Y-115797315D01*
X149863524Y-115756393D01*
X149705410Y-115756393D01*
X149552685Y-115797315D01*
X149552673Y-115797320D01*
X149415754Y-115876370D01*
X149415750Y-115876373D01*
X149303947Y-115988176D01*
X149303944Y-115988180D01*
X149224894Y-116125099D01*
X149224889Y-116125111D01*
X149183967Y-116277835D01*
X149183967Y-116435950D01*
X149224889Y-116588674D01*
X149224894Y-116588686D01*
X149303944Y-116725605D01*
X149303947Y-116725609D01*
X149415750Y-116837412D01*
X149415754Y-116837415D01*
X149552673Y-116916465D01*
X149552677Y-116916467D01*
X149552683Y-116916470D01*
X149705410Y-116957393D01*
X149863524Y-116957393D01*
X150016251Y-116916470D01*
X150153183Y-116837413D01*
X150174917Y-116815679D01*
X150249905Y-116768560D01*
X150315631Y-116757393D01*
X154200500Y-116757393D01*
X154286843Y-116777100D01*
X154356084Y-116832319D01*
X154394511Y-116912111D01*
X154399500Y-116956393D01*
X154399500Y-118818072D01*
X154379793Y-118904415D01*
X154341214Y-118958786D01*
X151558286Y-121741714D01*
X151483298Y-121788833D01*
X151417572Y-121800000D01*
X146999000Y-121800000D01*
X146912657Y-121780293D01*
X146843416Y-121725074D01*
X146804989Y-121645282D01*
X146800000Y-121601000D01*
X146800000Y-113092137D01*
X151611414Y-113092137D01*
X151611415Y-113092138D01*
X151640752Y-113099999D01*
X151640759Y-113100000D01*
X151759242Y-113100000D01*
X151759243Y-113099999D01*
X151788583Y-113092137D01*
X151699998Y-113003553D01*
X151611414Y-113092137D01*
X146800000Y-113092137D01*
X146800000Y-112499500D01*
X146819707Y-112413157D01*
X146874926Y-112343916D01*
X146954718Y-112305489D01*
X146999000Y-112300500D01*
X147579057Y-112300500D01*
X148320939Y-112300500D01*
X148320943Y-112300501D01*
X148479057Y-112300501D01*
X148480777Y-112300039D01*
X148495373Y-112300001D01*
X148495489Y-112300027D01*
X148495905Y-112300000D01*
X150506310Y-112300000D01*
X150516490Y-112300500D01*
G37*
%TD.AperFunction*%
%TD*%
%TA.AperFunction,Conductor*%
%TO.N,GND*%
G36*
X148605798Y-85054276D02*
G01*
X148660991Y-85072409D01*
X148694984Y-85119520D01*
X148699490Y-85148275D01*
X148699490Y-88148601D01*
X148681538Y-88203853D01*
X148671958Y-88215069D01*
X148559539Y-88327487D01*
X148519981Y-88396005D01*
X148519979Y-88396009D01*
X148499500Y-88472436D01*
X148499500Y-89089562D01*
X148519979Y-89165989D01*
X148539904Y-89200500D01*
X148559540Y-89234511D01*
X148559543Y-89234514D01*
X149171968Y-89846939D01*
X149198343Y-89898702D01*
X149199500Y-89913407D01*
X149199500Y-93453033D01*
X149181548Y-93508285D01*
X149171968Y-93519501D01*
X148663980Y-94027488D01*
X148624422Y-94096006D01*
X148624420Y-94096010D01*
X148613923Y-94135186D01*
X148603941Y-94172437D01*
X148603941Y-94827563D01*
X148624420Y-94903990D01*
X148637985Y-94927486D01*
X148660445Y-94966386D01*
X148660446Y-94966392D01*
X148660448Y-94966392D01*
X148663980Y-94972511D01*
X148971958Y-95280489D01*
X148998333Y-95332252D01*
X148999490Y-95346957D01*
X148999490Y-96948601D01*
X148981538Y-97003853D01*
X148971958Y-97015069D01*
X148859538Y-97127488D01*
X148819980Y-97196006D01*
X148819978Y-97196010D01*
X148799499Y-97272437D01*
X148799499Y-97927563D01*
X148819978Y-98003990D01*
X148819981Y-98003995D01*
X148845641Y-98048440D01*
X148845642Y-98048441D01*
X148859538Y-98072511D01*
X148859542Y-98072516D01*
X149227483Y-98440457D01*
X149227486Y-98440459D01*
X149227488Y-98440461D01*
X149266004Y-98462698D01*
X149304878Y-98505871D01*
X149310951Y-98563648D01*
X149300412Y-98591104D01*
X149233610Y-98706810D01*
X149233607Y-98706815D01*
X149199500Y-98834106D01*
X149199500Y-98965893D01*
X149221766Y-99048993D01*
X149233608Y-99093186D01*
X149237829Y-99100497D01*
X149299497Y-99207310D01*
X149299503Y-99207318D01*
X149392681Y-99300496D01*
X149392685Y-99300499D01*
X149392686Y-99300500D01*
X149506814Y-99366392D01*
X149549245Y-99377761D01*
X149634106Y-99400500D01*
X149634108Y-99400500D01*
X149765894Y-99400500D01*
X149829539Y-99383446D01*
X149893186Y-99366392D01*
X150007314Y-99300500D01*
X150100500Y-99207314D01*
X150166392Y-99093186D01*
X150178233Y-99048992D01*
X150209874Y-99000270D01*
X150264110Y-98979451D01*
X150293352Y-98982524D01*
X150360438Y-99000500D01*
X150653750Y-99000500D01*
X150709002Y-99018452D01*
X150720218Y-99028032D01*
X150792682Y-99100497D01*
X150792685Y-99100499D01*
X150792686Y-99100500D01*
X150906814Y-99166392D01*
X150949245Y-99177761D01*
X151034106Y-99200500D01*
X151034108Y-99200500D01*
X151165894Y-99200500D01*
X151229539Y-99183446D01*
X151293186Y-99166392D01*
X151407314Y-99100500D01*
X151500500Y-99007314D01*
X151566392Y-98893186D01*
X151600500Y-98765892D01*
X151600500Y-98634108D01*
X151600500Y-98634106D01*
X151566392Y-98506815D01*
X151566392Y-98506814D01*
X151500500Y-98392686D01*
X151500499Y-98392685D01*
X151500496Y-98392681D01*
X151407318Y-98299503D01*
X151407310Y-98299497D01*
X151293191Y-98233611D01*
X151293184Y-98233607D01*
X151165894Y-98199500D01*
X151165892Y-98199500D01*
X151034108Y-98199500D01*
X151034106Y-98199500D01*
X150906815Y-98233607D01*
X150906808Y-98233611D01*
X150792689Y-98299497D01*
X150792682Y-98299502D01*
X150720218Y-98371968D01*
X150713460Y-98375411D01*
X150709002Y-98381548D01*
X150688067Y-98388350D01*
X150668455Y-98398343D01*
X150653750Y-98399500D01*
X150563407Y-98399500D01*
X150508155Y-98381548D01*
X150496939Y-98371968D01*
X150435440Y-98310469D01*
X150409065Y-98258706D01*
X150418153Y-98201326D01*
X150435440Y-98177533D01*
X150453473Y-98159500D01*
X150540460Y-98072513D01*
X150580022Y-98003990D01*
X150600500Y-97927564D01*
X150600500Y-97927559D01*
X150601125Y-97922811D01*
X150626131Y-97870373D01*
X150677184Y-97842648D01*
X150734783Y-97850227D01*
X150760790Y-97868605D01*
X150792045Y-97899860D01*
X150792049Y-97899863D01*
X150792050Y-97899864D01*
X150906178Y-97965756D01*
X150948609Y-97977125D01*
X151033470Y-97999864D01*
X151033472Y-97999864D01*
X151165258Y-97999864D01*
X151228903Y-97982810D01*
X151292550Y-97965756D01*
X151406678Y-97899864D01*
X151499864Y-97806678D01*
X151565756Y-97692550D01*
X151599864Y-97565256D01*
X151599864Y-97433472D01*
X151599864Y-97433470D01*
X151565756Y-97306179D01*
X151565756Y-97306178D01*
X151521828Y-97230092D01*
X151499866Y-97192053D01*
X151499860Y-97192045D01*
X151406682Y-97098867D01*
X151406674Y-97098861D01*
X151292555Y-97032975D01*
X151292548Y-97032971D01*
X151165258Y-96998864D01*
X151165256Y-96998864D01*
X151062771Y-96998864D01*
X151007519Y-96980912D01*
X150996303Y-96971332D01*
X150858934Y-96833963D01*
X150832559Y-96782200D01*
X150841647Y-96724820D01*
X150882727Y-96683740D01*
X150940107Y-96674652D01*
X150949725Y-96676696D01*
X150976011Y-96683740D01*
X151038559Y-96700500D01*
X151038561Y-96700500D01*
X151170347Y-96700500D01*
X151233992Y-96683446D01*
X151297639Y-96666392D01*
X151411767Y-96600500D01*
X151504953Y-96507314D01*
X151570845Y-96393186D01*
X151604953Y-96265892D01*
X151604953Y-96251409D01*
X151622905Y-96196157D01*
X151632485Y-96184941D01*
X151716930Y-96100496D01*
X151944914Y-95872512D01*
X151955263Y-95854587D01*
X151984475Y-95803990D01*
X152004954Y-95727563D01*
X152004954Y-95634106D01*
X162499500Y-95634106D01*
X162499500Y-95765893D01*
X162533607Y-95893184D01*
X162533611Y-95893191D01*
X162599497Y-96007310D01*
X162599503Y-96007318D01*
X162692681Y-96100496D01*
X162692685Y-96100499D01*
X162692686Y-96100500D01*
X162806814Y-96166392D01*
X162840806Y-96175500D01*
X162934106Y-96200500D01*
X163036593Y-96200500D01*
X163091845Y-96218452D01*
X163103061Y-96228032D01*
X163629540Y-96754511D01*
X163685489Y-96810460D01*
X163754011Y-96850021D01*
X163830438Y-96870500D01*
X163909562Y-96870500D01*
X166955500Y-96870500D01*
X167010752Y-96888452D01*
X167044899Y-96935452D01*
X167049500Y-96964500D01*
X167049500Y-97339751D01*
X167061132Y-97398227D01*
X167061132Y-97398229D01*
X167061132Y-97398230D01*
X167061133Y-97398231D01*
X167105448Y-97464552D01*
X167171769Y-97508867D01*
X167230252Y-97520500D01*
X167230255Y-97520500D01*
X169769745Y-97520500D01*
X169769748Y-97520500D01*
X169828231Y-97508867D01*
X169894552Y-97464552D01*
X169938867Y-97398231D01*
X169950500Y-97339748D01*
X169950500Y-95800252D01*
X169938867Y-95741769D01*
X169894552Y-95675448D01*
X169828231Y-95631133D01*
X169828228Y-95631132D01*
X169769751Y-95619500D01*
X169769748Y-95619500D01*
X167230252Y-95619500D01*
X167230248Y-95619500D01*
X167171772Y-95631132D01*
X167171770Y-95631132D01*
X167105448Y-95675448D01*
X167061132Y-95741770D01*
X167061132Y-95741772D01*
X167049500Y-95800248D01*
X167049500Y-96175500D01*
X167031548Y-96230752D01*
X166984548Y-96264899D01*
X166955500Y-96269500D01*
X164033407Y-96269500D01*
X163978155Y-96251548D01*
X163966939Y-96241968D01*
X163528032Y-95803061D01*
X163501657Y-95751298D01*
X163500500Y-95736593D01*
X163500500Y-95634106D01*
X163466392Y-95506815D01*
X163466392Y-95506814D01*
X163400500Y-95392686D01*
X163400499Y-95392685D01*
X163400496Y-95392681D01*
X163307318Y-95299503D01*
X163307310Y-95299497D01*
X163193191Y-95233611D01*
X163193184Y-95233607D01*
X163065894Y-95199500D01*
X163065892Y-95199500D01*
X162934108Y-95199500D01*
X162934106Y-95199500D01*
X162806815Y-95233607D01*
X162806808Y-95233611D01*
X162692689Y-95299497D01*
X162692681Y-95299503D01*
X162599503Y-95392681D01*
X162599497Y-95392689D01*
X162533611Y-95506808D01*
X162533607Y-95506815D01*
X162499500Y-95634106D01*
X152004954Y-95634106D01*
X152004954Y-95072437D01*
X152003647Y-95067561D01*
X152003645Y-95067552D01*
X151984478Y-94996015D01*
X151984476Y-94996011D01*
X151944914Y-94927488D01*
X151944912Y-94927486D01*
X151944910Y-94927483D01*
X151828032Y-94810605D01*
X151824588Y-94803847D01*
X151818452Y-94799389D01*
X151811649Y-94778454D01*
X151801657Y-94758842D01*
X151800500Y-94744137D01*
X151800500Y-94659062D01*
X151818452Y-94603810D01*
X151828032Y-94592594D01*
X151954734Y-94465892D01*
X152086520Y-94334106D01*
X162499500Y-94334106D01*
X162499500Y-94465893D01*
X162533607Y-94593184D01*
X162533611Y-94593191D01*
X162599497Y-94707310D01*
X162599503Y-94707318D01*
X162692681Y-94800496D01*
X162692685Y-94800499D01*
X162692686Y-94800500D01*
X162806814Y-94866392D01*
X162849245Y-94877761D01*
X162934106Y-94900500D01*
X162934108Y-94900500D01*
X163065894Y-94900500D01*
X163129539Y-94883446D01*
X163193186Y-94866392D01*
X163307314Y-94800500D01*
X163400500Y-94707314D01*
X163466392Y-94593186D01*
X163500500Y-94465892D01*
X163500500Y-94424500D01*
X163518452Y-94369248D01*
X163565452Y-94335101D01*
X163594500Y-94330500D01*
X166955500Y-94330500D01*
X167010752Y-94348452D01*
X167044899Y-94395452D01*
X167049500Y-94424500D01*
X167049500Y-94799751D01*
X167061132Y-94858227D01*
X167061132Y-94858229D01*
X167061132Y-94858230D01*
X167061133Y-94858231D01*
X167105448Y-94924552D01*
X167171769Y-94968867D01*
X167230252Y-94980500D01*
X167230255Y-94980500D01*
X169769745Y-94980500D01*
X169769748Y-94980500D01*
X169828231Y-94968867D01*
X169894552Y-94924552D01*
X169938867Y-94858231D01*
X169950500Y-94799748D01*
X169950500Y-93260252D01*
X169938867Y-93201769D01*
X169894552Y-93135448D01*
X169828231Y-93091133D01*
X169828228Y-93091132D01*
X169769751Y-93079500D01*
X169769748Y-93079500D01*
X167230252Y-93079500D01*
X167230248Y-93079500D01*
X167171772Y-93091132D01*
X167171770Y-93091132D01*
X167105448Y-93135448D01*
X167061132Y-93201770D01*
X167061132Y-93201772D01*
X167049500Y-93260248D01*
X167049500Y-93635500D01*
X167031548Y-93690752D01*
X166984548Y-93724899D01*
X166955500Y-93729500D01*
X163330438Y-93729500D01*
X163254010Y-93749979D01*
X163254007Y-93749980D01*
X163195848Y-93783559D01*
X163185493Y-93789537D01*
X163185485Y-93789543D01*
X163103060Y-93871968D01*
X163051296Y-93898343D01*
X163036592Y-93899500D01*
X162934106Y-93899500D01*
X162806815Y-93933607D01*
X162806808Y-93933611D01*
X162692689Y-93999497D01*
X162692681Y-93999503D01*
X162599503Y-94092681D01*
X162599497Y-94092689D01*
X162533611Y-94206808D01*
X162533607Y-94206815D01*
X162499500Y-94334106D01*
X152086520Y-94334106D01*
X152140491Y-94280135D01*
X152156988Y-94251561D01*
X152180052Y-94211613D01*
X152200531Y-94135186D01*
X152200531Y-93860469D01*
X152200531Y-93710407D01*
X152200531Y-92263375D01*
X152218483Y-92208123D01*
X152228063Y-92196907D01*
X152606938Y-91818032D01*
X152658701Y-91791657D01*
X152673406Y-91790500D01*
X166955500Y-91790500D01*
X167010752Y-91808452D01*
X167044899Y-91855452D01*
X167049500Y-91884500D01*
X167049500Y-92259751D01*
X167061132Y-92318227D01*
X167061132Y-92318229D01*
X167061132Y-92318230D01*
X167061133Y-92318231D01*
X167105448Y-92384552D01*
X167171769Y-92428867D01*
X167230252Y-92440500D01*
X167230255Y-92440500D01*
X169769745Y-92440500D01*
X169769748Y-92440500D01*
X169828231Y-92428867D01*
X169894552Y-92384552D01*
X169938867Y-92318231D01*
X169950500Y-92259748D01*
X169950500Y-90720252D01*
X169938867Y-90661769D01*
X169894552Y-90595448D01*
X169828231Y-90551133D01*
X169828228Y-90551132D01*
X169769751Y-90539500D01*
X169769748Y-90539500D01*
X167230252Y-90539500D01*
X167230248Y-90539500D01*
X167171772Y-90551132D01*
X167171770Y-90551132D01*
X167105448Y-90595448D01*
X167061132Y-90661770D01*
X167061132Y-90661772D01*
X167049500Y-90720248D01*
X167049500Y-91095500D01*
X167031548Y-91150752D01*
X166984548Y-91184899D01*
X166955500Y-91189500D01*
X165692387Y-91189500D01*
X165637135Y-91171548D01*
X165602988Y-91124548D01*
X165602988Y-91066452D01*
X165625919Y-91029032D01*
X165840460Y-90814491D01*
X165854894Y-90789490D01*
X165880021Y-90745969D01*
X165900500Y-90669542D01*
X165900500Y-89413407D01*
X165902843Y-89406193D01*
X165901657Y-89398702D01*
X165911649Y-89379089D01*
X165918452Y-89358155D01*
X165928032Y-89346939D01*
X165996939Y-89278032D01*
X166048702Y-89251657D01*
X166063407Y-89250500D01*
X166955500Y-89250500D01*
X167010752Y-89268452D01*
X167044899Y-89315452D01*
X167049500Y-89344500D01*
X167049500Y-89719751D01*
X167061132Y-89778227D01*
X167061132Y-89778229D01*
X167061132Y-89778230D01*
X167061133Y-89778231D01*
X167105448Y-89844552D01*
X167171769Y-89888867D01*
X167230252Y-89900500D01*
X167230255Y-89900500D01*
X169769745Y-89900500D01*
X169769748Y-89900500D01*
X169828231Y-89888867D01*
X169894552Y-89844552D01*
X169938867Y-89778231D01*
X169950500Y-89719748D01*
X169950500Y-88180252D01*
X169938867Y-88121769D01*
X169894552Y-88055448D01*
X169828231Y-88011133D01*
X169828228Y-88011132D01*
X169769751Y-87999500D01*
X169769748Y-87999500D01*
X167230252Y-87999500D01*
X167230248Y-87999500D01*
X167171772Y-88011132D01*
X167171770Y-88011132D01*
X167105448Y-88055448D01*
X167061132Y-88121770D01*
X167061132Y-88121772D01*
X167049500Y-88180248D01*
X167049500Y-88555500D01*
X167031548Y-88610752D01*
X166984548Y-88644899D01*
X166955500Y-88649500D01*
X165860438Y-88649500D01*
X165784011Y-88669979D01*
X165784007Y-88669981D01*
X165732419Y-88699765D01*
X165715493Y-88709537D01*
X165715485Y-88709543D01*
X165359539Y-89065489D01*
X165319981Y-89134007D01*
X165319979Y-89134011D01*
X165299500Y-89210437D01*
X165299500Y-90466573D01*
X165281548Y-90521825D01*
X165271968Y-90533041D01*
X165043051Y-90761958D01*
X164991288Y-90788333D01*
X164976583Y-90789490D01*
X152304748Y-90789490D01*
X152228321Y-90809969D01*
X152228317Y-90809971D01*
X152159799Y-90849529D01*
X151259560Y-91749768D01*
X151220002Y-91818286D01*
X151220000Y-91818290D01*
X151199521Y-91894716D01*
X151199521Y-92635848D01*
X151193519Y-92654319D01*
X151191588Y-92673643D01*
X151184746Y-92681319D01*
X151181569Y-92691100D01*
X151165855Y-92702516D01*
X151152935Y-92717014D01*
X151142887Y-92719203D01*
X151134569Y-92725247D01*
X151115150Y-92725247D01*
X151096172Y-92729382D01*
X151087446Y-92725247D01*
X151076473Y-92725247D01*
X151042980Y-92706023D01*
X151040957Y-92704220D01*
X150946277Y-92609540D01*
X150921808Y-92595413D01*
X150877755Y-92569979D01*
X150801328Y-92549500D01*
X150313407Y-92549500D01*
X150306193Y-92547156D01*
X150298702Y-92548343D01*
X150279089Y-92538350D01*
X150258155Y-92531548D01*
X150246939Y-92521968D01*
X150228032Y-92503061D01*
X150201657Y-92451298D01*
X150200500Y-92436593D01*
X150200500Y-89260440D01*
X150200500Y-89260438D01*
X150197837Y-89250500D01*
X150180022Y-89184012D01*
X150140460Y-89115489D01*
X150140458Y-89115487D01*
X150140456Y-89115484D01*
X149928032Y-88903060D01*
X149901657Y-88851297D01*
X149900500Y-88836592D01*
X149900500Y-88734106D01*
X149872513Y-88629659D01*
X149866392Y-88606814D01*
X149822464Y-88530728D01*
X149800502Y-88492689D01*
X149800496Y-88492681D01*
X149707318Y-88399503D01*
X149707310Y-88399497D01*
X149593191Y-88333611D01*
X149593184Y-88333607D01*
X149465894Y-88299500D01*
X149465892Y-88299500D01*
X149394490Y-88299500D01*
X149339238Y-88281548D01*
X149305091Y-88234548D01*
X149300490Y-88205500D01*
X149300490Y-87552340D01*
X149318442Y-87497088D01*
X149365442Y-87462941D01*
X149423538Y-87462941D01*
X149460958Y-87485872D01*
X150358862Y-88383776D01*
X150414811Y-88439725D01*
X150483333Y-88479286D01*
X150511102Y-88486726D01*
X150553240Y-88511055D01*
X150641946Y-88599762D01*
X150641948Y-88599763D01*
X150641950Y-88599765D01*
X150693730Y-88629660D01*
X150732602Y-88672832D01*
X150738675Y-88730609D01*
X150728139Y-88758061D01*
X150720384Y-88771493D01*
X150686278Y-88898783D01*
X150686278Y-89030570D01*
X150720385Y-89157861D01*
X150720389Y-89157868D01*
X150786275Y-89271987D01*
X150786281Y-89271995D01*
X150879459Y-89365173D01*
X150879467Y-89365179D01*
X150903560Y-89379089D01*
X150993592Y-89431069D01*
X151036023Y-89442438D01*
X151120884Y-89465177D01*
X151120886Y-89465177D01*
X151252672Y-89465177D01*
X151316317Y-89448123D01*
X151379964Y-89431069D01*
X151494092Y-89365177D01*
X151587278Y-89271991D01*
X151653170Y-89157863D01*
X151687278Y-89030569D01*
X151687278Y-88944500D01*
X151705230Y-88889248D01*
X151752230Y-88855101D01*
X151781278Y-88850500D01*
X152853782Y-88850500D01*
X152909034Y-88868452D01*
X152920250Y-88878032D01*
X152992714Y-88950497D01*
X152992717Y-88950499D01*
X152992718Y-88950500D01*
X153106846Y-89016392D01*
X153149277Y-89027761D01*
X153234138Y-89050500D01*
X153234140Y-89050500D01*
X153365926Y-89050500D01*
X153440308Y-89030569D01*
X153493218Y-89016392D01*
X153607346Y-88950500D01*
X153700532Y-88857314D01*
X153766424Y-88743186D01*
X153800532Y-88615892D01*
X153800532Y-88484108D01*
X153800532Y-88484106D01*
X153766424Y-88356815D01*
X153766424Y-88356814D01*
X153700532Y-88242686D01*
X153700531Y-88242685D01*
X153700528Y-88242681D01*
X153607350Y-88149503D01*
X153607342Y-88149497D01*
X153509299Y-88092892D01*
X153493218Y-88083608D01*
X153493217Y-88083607D01*
X153493216Y-88083607D01*
X153365926Y-88049500D01*
X153365924Y-88049500D01*
X153234140Y-88049500D01*
X153234138Y-88049500D01*
X153106847Y-88083607D01*
X153106840Y-88083611D01*
X152992721Y-88149497D01*
X152992714Y-88149502D01*
X152920250Y-88221968D01*
X152868487Y-88248343D01*
X152853782Y-88249500D01*
X151561888Y-88249500D01*
X151556029Y-88250271D01*
X151498907Y-88239682D01*
X151458919Y-88197539D01*
X151449764Y-88157075D01*
X151449764Y-88133371D01*
X151417010Y-88011132D01*
X151415656Y-88006079D01*
X151349764Y-87891951D01*
X151349763Y-87891950D01*
X151349760Y-87891946D01*
X151256582Y-87798768D01*
X151256574Y-87798762D01*
X151142455Y-87732876D01*
X151142448Y-87732872D01*
X151015158Y-87698765D01*
X151015156Y-87698765D01*
X150883372Y-87698765D01*
X150883370Y-87698765D01*
X150756079Y-87732872D01*
X150756078Y-87732873D01*
X150692902Y-87769347D01*
X150636078Y-87781425D01*
X150583006Y-87757795D01*
X150579436Y-87754408D01*
X149724022Y-86898994D01*
X149697647Y-86847231D01*
X149696490Y-86832526D01*
X149696490Y-85152156D01*
X149714442Y-85096904D01*
X149761442Y-85062757D01*
X149790792Y-85058157D01*
X152280543Y-85066312D01*
X152335736Y-85084445D01*
X152369729Y-85131556D01*
X152374235Y-85160311D01*
X152374235Y-85339297D01*
X152394714Y-85415724D01*
X152434275Y-85484246D01*
X155634540Y-88684511D01*
X155690489Y-88740460D01*
X155759011Y-88780021D01*
X155835438Y-88800500D01*
X155914562Y-88800500D01*
X162853750Y-88800500D01*
X162909002Y-88818452D01*
X162920218Y-88828032D01*
X162992682Y-88900497D01*
X162992685Y-88900499D01*
X162992686Y-88900500D01*
X163106814Y-88966392D01*
X163149245Y-88977761D01*
X163234106Y-89000500D01*
X163234108Y-89000500D01*
X163365894Y-89000500D01*
X163429539Y-88983446D01*
X163493186Y-88966392D01*
X163607314Y-88900500D01*
X163700500Y-88807314D01*
X163766392Y-88693186D01*
X163800500Y-88565892D01*
X163800500Y-88434108D01*
X163800500Y-88434106D01*
X163771931Y-88327487D01*
X163766392Y-88306814D01*
X163700500Y-88192686D01*
X163700499Y-88192685D01*
X163700496Y-88192681D01*
X163607318Y-88099503D01*
X163607310Y-88099497D01*
X163493191Y-88033611D01*
X163493184Y-88033607D01*
X163365894Y-87999500D01*
X163365892Y-87999500D01*
X163234108Y-87999500D01*
X163234106Y-87999500D01*
X163106815Y-88033607D01*
X163106808Y-88033611D01*
X162992689Y-88099497D01*
X162992682Y-88099502D01*
X162920218Y-88171968D01*
X162868455Y-88198343D01*
X162853750Y-88199500D01*
X156038407Y-88199500D01*
X155983155Y-88181548D01*
X155971939Y-88171968D01*
X153029421Y-85229450D01*
X153003046Y-85177687D01*
X153012134Y-85120307D01*
X153053214Y-85079227D01*
X153096196Y-85068983D01*
X162905820Y-85101111D01*
X162961013Y-85119244D01*
X162995006Y-85166355D01*
X162999512Y-85195110D01*
X162999512Y-86453749D01*
X162981560Y-86509001D01*
X162971980Y-86520217D01*
X162899515Y-86592681D01*
X162899509Y-86592689D01*
X162833623Y-86706808D01*
X162833619Y-86706815D01*
X162799512Y-86834106D01*
X162799512Y-86965893D01*
X162833619Y-87093184D01*
X162833623Y-87093191D01*
X162899509Y-87207310D01*
X162899515Y-87207318D01*
X162992693Y-87300496D01*
X162992697Y-87300499D01*
X162992698Y-87300500D01*
X163106826Y-87366392D01*
X163149257Y-87377761D01*
X163234118Y-87400500D01*
X163234120Y-87400500D01*
X163365906Y-87400500D01*
X163429551Y-87383446D01*
X163493198Y-87366392D01*
X163607326Y-87300500D01*
X163700512Y-87207314D01*
X163701972Y-87204786D01*
X166950001Y-87204786D01*
X166950002Y-87204805D01*
X166952908Y-87229872D01*
X166998212Y-87332477D01*
X167077522Y-87411787D01*
X167180123Y-87457089D01*
X167205207Y-87459999D01*
X168200000Y-87459999D01*
X168800000Y-87459999D01*
X169794787Y-87459999D01*
X169794805Y-87459997D01*
X169819872Y-87457091D01*
X169922477Y-87411787D01*
X170001787Y-87332477D01*
X170047089Y-87229876D01*
X170049999Y-87204793D01*
X170050000Y-87204791D01*
X170050000Y-86710000D01*
X168800000Y-86710000D01*
X168800000Y-87459999D01*
X168200000Y-87459999D01*
X168200000Y-86710000D01*
X166950001Y-86710000D01*
X166950001Y-87204786D01*
X163701972Y-87204786D01*
X163766404Y-87093186D01*
X163800512Y-86965892D01*
X163800512Y-86834108D01*
X163800512Y-86834106D01*
X163790378Y-86796289D01*
X163766404Y-86706814D01*
X163700512Y-86592686D01*
X163700511Y-86592685D01*
X163700508Y-86592681D01*
X163628044Y-86520217D01*
X163601669Y-86468454D01*
X163600512Y-86453749D01*
X163600512Y-85615206D01*
X166950000Y-85615206D01*
X166950000Y-86110000D01*
X168200000Y-86110000D01*
X168800000Y-86110000D01*
X170049999Y-86110000D01*
X170049999Y-85615213D01*
X170049997Y-85615194D01*
X170047091Y-85590127D01*
X170001787Y-85487522D01*
X169922477Y-85408212D01*
X169819876Y-85362910D01*
X169794793Y-85360000D01*
X168800000Y-85360000D01*
X168800000Y-86110000D01*
X168200000Y-86110000D01*
X168200000Y-85360000D01*
X167205213Y-85360000D01*
X167205194Y-85360002D01*
X167180127Y-85362908D01*
X167077522Y-85408212D01*
X166998212Y-85487522D01*
X166952910Y-85590123D01*
X166950000Y-85615206D01*
X163600512Y-85615206D01*
X163600512Y-85197693D01*
X163618464Y-85142441D01*
X163665464Y-85108294D01*
X163694814Y-85103694D01*
X170380808Y-85125593D01*
X170436001Y-85143726D01*
X170469994Y-85190837D01*
X170474500Y-85219592D01*
X170474500Y-123677541D01*
X170474371Y-123682461D01*
X170458463Y-123985996D01*
X170457435Y-123995781D01*
X170410270Y-124293570D01*
X170408224Y-124303194D01*
X170330194Y-124594407D01*
X170327154Y-124603765D01*
X170219105Y-124885241D01*
X170215103Y-124894229D01*
X170078228Y-125162863D01*
X170073308Y-125171384D01*
X169909105Y-125424233D01*
X169903322Y-125432193D01*
X169713583Y-125666501D01*
X169706999Y-125673813D01*
X169493813Y-125886999D01*
X169486501Y-125893583D01*
X169252193Y-126083322D01*
X169244233Y-126089105D01*
X168991384Y-126253308D01*
X168982863Y-126258228D01*
X168714229Y-126395103D01*
X168705241Y-126399105D01*
X168423765Y-126507154D01*
X168414407Y-126510194D01*
X168123194Y-126588224D01*
X168113570Y-126590270D01*
X167815781Y-126637435D01*
X167805996Y-126638463D01*
X167502461Y-126654371D01*
X167497541Y-126654500D01*
X133502459Y-126654500D01*
X133497539Y-126654371D01*
X133194003Y-126638463D01*
X133184218Y-126637435D01*
X132886429Y-126590270D01*
X132876805Y-126588224D01*
X132585592Y-126510194D01*
X132576234Y-126507154D01*
X132294758Y-126399105D01*
X132285770Y-126395103D01*
X132017136Y-126258228D01*
X132008615Y-126253308D01*
X131755766Y-126089105D01*
X131747806Y-126083322D01*
X131513498Y-125893583D01*
X131506186Y-125886999D01*
X131293000Y-125673813D01*
X131286416Y-125666501D01*
X131277865Y-125655941D01*
X131096674Y-125432190D01*
X131090894Y-125424233D01*
X131071686Y-125394655D01*
X130926685Y-125171374D01*
X130921777Y-125162873D01*
X130784893Y-124894224D01*
X130780894Y-124885241D01*
X130759100Y-124828465D01*
X130672842Y-124603756D01*
X130669805Y-124594407D01*
X130591772Y-124303181D01*
X130589732Y-124293584D01*
X130542562Y-123995764D01*
X130541537Y-123986011D01*
X130534684Y-123855248D01*
X144574500Y-123855248D01*
X144574500Y-125594751D01*
X144586132Y-125653227D01*
X144586132Y-125653229D01*
X144586132Y-125653230D01*
X144586133Y-125653231D01*
X144630448Y-125719552D01*
X144696769Y-125763867D01*
X144755252Y-125775500D01*
X144755255Y-125775500D01*
X146494745Y-125775500D01*
X146494748Y-125775500D01*
X146553231Y-125763867D01*
X146619552Y-125719552D01*
X146663867Y-125653231D01*
X146675500Y-125594748D01*
X146675500Y-124621531D01*
X147114500Y-124621531D01*
X147114500Y-124828468D01*
X147154869Y-125031417D01*
X147154870Y-125031420D01*
X147203683Y-125149264D01*
X147234062Y-125222605D01*
X147349020Y-125394652D01*
X147495347Y-125540979D01*
X147667394Y-125655937D01*
X147667399Y-125655939D01*
X147667402Y-125655941D01*
X147858580Y-125735130D01*
X148061535Y-125775500D01*
X148061538Y-125775500D01*
X148268462Y-125775500D01*
X148268465Y-125775500D01*
X148471420Y-125735130D01*
X148662598Y-125655941D01*
X148662602Y-125655938D01*
X148662605Y-125655937D01*
X148834652Y-125540979D01*
X148834653Y-125540979D01*
X148980979Y-125394653D01*
X148980979Y-125394652D01*
X149095937Y-125222605D01*
X149095938Y-125222602D01*
X149095941Y-125222598D01*
X149175130Y-125031420D01*
X149215500Y-124828465D01*
X149215500Y-124621535D01*
X149175130Y-124418580D01*
X149095941Y-124227402D01*
X149095939Y-124227399D01*
X149095937Y-124227394D01*
X148980979Y-124055347D01*
X148834652Y-123909020D01*
X148662605Y-123794062D01*
X148572027Y-123756543D01*
X148471420Y-123714870D01*
X148471418Y-123714869D01*
X148471417Y-123714869D01*
X148268468Y-123674500D01*
X148268465Y-123674500D01*
X148061535Y-123674500D01*
X148061531Y-123674500D01*
X147858582Y-123714869D01*
X147667394Y-123794062D01*
X147495347Y-123909020D01*
X147495347Y-123909021D01*
X147349021Y-124055347D01*
X147349020Y-124055347D01*
X147234062Y-124227394D01*
X147154869Y-124418582D01*
X147114500Y-124621531D01*
X146675500Y-124621531D01*
X146675500Y-123855252D01*
X146663867Y-123796769D01*
X146619552Y-123730448D01*
X146553231Y-123686133D01*
X146553228Y-123686132D01*
X146494751Y-123674500D01*
X146494748Y-123674500D01*
X144755252Y-123674500D01*
X144755248Y-123674500D01*
X144696772Y-123686132D01*
X144696770Y-123686132D01*
X144630448Y-123730448D01*
X144586132Y-123796770D01*
X144586132Y-123796772D01*
X144574500Y-123855248D01*
X130534684Y-123855248D01*
X130525629Y-123682460D01*
X130525500Y-123677541D01*
X130525500Y-118398404D01*
X133992500Y-118398404D01*
X133992500Y-118900000D01*
X134638356Y-118900000D01*
X134576575Y-119007007D01*
X134542500Y-119134174D01*
X134542500Y-119265826D01*
X134576575Y-119392993D01*
X134638356Y-119500000D01*
X133992500Y-119500000D01*
X133992500Y-120001595D01*
X134007690Y-120155829D01*
X134007693Y-120155841D01*
X134067731Y-120353761D01*
X134165232Y-120536172D01*
X134296445Y-120696054D01*
X134456327Y-120827267D01*
X134638738Y-120924768D01*
X134836658Y-120984806D01*
X134836670Y-120984809D01*
X134990904Y-121000000D01*
X135742500Y-121000000D01*
X135742500Y-119700000D01*
X136342500Y-119700000D01*
X136342500Y-121000000D01*
X137094095Y-121000000D01*
X137248329Y-120984809D01*
X137248341Y-120984806D01*
X137446261Y-120924768D01*
X137628672Y-120827267D01*
X137788554Y-120696054D01*
X137919767Y-120536172D01*
X137975981Y-120431005D01*
X144599500Y-120431005D01*
X144599500Y-122268995D01*
X144626420Y-122404328D01*
X144679223Y-122531808D01*
X144679227Y-122531816D01*
X144755883Y-122646540D01*
X145353459Y-123244116D01*
X145468183Y-123320772D01*
X145468189Y-123320775D01*
X145595672Y-123373580D01*
X145731006Y-123400500D01*
X145731007Y-123400500D01*
X149910500Y-123400500D01*
X149965752Y-123418452D01*
X149999899Y-123465452D01*
X150004500Y-123494500D01*
X150004500Y-123900932D01*
X149986548Y-123956184D01*
X149976968Y-123967400D01*
X149889021Y-124055347D01*
X149889020Y-124055347D01*
X149774062Y-124227394D01*
X149694869Y-124418582D01*
X149654500Y-124621531D01*
X149654500Y-124828468D01*
X149694869Y-125031417D01*
X149694870Y-125031420D01*
X149743683Y-125149264D01*
X149774062Y-125222605D01*
X149889020Y-125394652D01*
X150035347Y-125540979D01*
X150207394Y-125655937D01*
X150207399Y-125655939D01*
X150207402Y-125655941D01*
X150398580Y-125735130D01*
X150601535Y-125775500D01*
X150601538Y-125775500D01*
X150808462Y-125775500D01*
X150808465Y-125775500D01*
X151011420Y-125735130D01*
X151202598Y-125655941D01*
X151202602Y-125655938D01*
X151202605Y-125655937D01*
X151374652Y-125540979D01*
X151374653Y-125540979D01*
X151520979Y-125394653D01*
X151520979Y-125394652D01*
X151635937Y-125222605D01*
X151635938Y-125222602D01*
X151635941Y-125222598D01*
X151715130Y-125031420D01*
X151755500Y-124828465D01*
X151755500Y-124621535D01*
X151755499Y-124621531D01*
X152194500Y-124621531D01*
X152194500Y-124828468D01*
X152234869Y-125031417D01*
X152234870Y-125031420D01*
X152283683Y-125149264D01*
X152314062Y-125222605D01*
X152429020Y-125394652D01*
X152575347Y-125540979D01*
X152747394Y-125655937D01*
X152747399Y-125655939D01*
X152747402Y-125655941D01*
X152938580Y-125735130D01*
X153141535Y-125775500D01*
X153141538Y-125775500D01*
X153348462Y-125775500D01*
X153348465Y-125775500D01*
X153551420Y-125735130D01*
X153742598Y-125655941D01*
X153742602Y-125655938D01*
X153742605Y-125655937D01*
X153914652Y-125540979D01*
X153914653Y-125540979D01*
X154060979Y-125394653D01*
X154060979Y-125394652D01*
X154175937Y-125222605D01*
X154175938Y-125222602D01*
X154175941Y-125222598D01*
X154255130Y-125031420D01*
X154295500Y-124828465D01*
X154295500Y-124621535D01*
X154295499Y-124621531D01*
X154734500Y-124621531D01*
X154734500Y-124828468D01*
X154774869Y-125031417D01*
X154774870Y-125031420D01*
X154823683Y-125149264D01*
X154854062Y-125222605D01*
X154969020Y-125394652D01*
X155115347Y-125540979D01*
X155287394Y-125655937D01*
X155287399Y-125655939D01*
X155287402Y-125655941D01*
X155478580Y-125735130D01*
X155681535Y-125775500D01*
X155681538Y-125775500D01*
X155888462Y-125775500D01*
X155888465Y-125775500D01*
X156091420Y-125735130D01*
X156282598Y-125655941D01*
X156282602Y-125655938D01*
X156282605Y-125655937D01*
X156347663Y-125612467D01*
X156454652Y-125540979D01*
X156454653Y-125540979D01*
X156600979Y-125394653D01*
X156600979Y-125394652D01*
X156715937Y-125222605D01*
X156715938Y-125222602D01*
X156715941Y-125222598D01*
X156795130Y-125031420D01*
X156835500Y-124828465D01*
X156835500Y-124621535D01*
X156795130Y-124418580D01*
X156715941Y-124227402D01*
X156715939Y-124227399D01*
X156715937Y-124227394D01*
X156600979Y-124055347D01*
X156454652Y-123909020D01*
X156282605Y-123794062D01*
X156192027Y-123756543D01*
X156091420Y-123714870D01*
X156091418Y-123714869D01*
X156091417Y-123714869D01*
X155888468Y-123674500D01*
X155888465Y-123674500D01*
X155681535Y-123674500D01*
X155681531Y-123674500D01*
X155478582Y-123714869D01*
X155287394Y-123794062D01*
X155115347Y-123909020D01*
X155115347Y-123909021D01*
X154969021Y-124055347D01*
X154969020Y-124055347D01*
X154854062Y-124227394D01*
X154774869Y-124418582D01*
X154734500Y-124621531D01*
X154295499Y-124621531D01*
X154255130Y-124418580D01*
X154175941Y-124227402D01*
X154175939Y-124227399D01*
X154175937Y-124227394D01*
X154060979Y-124055347D01*
X153914652Y-123909020D01*
X153742605Y-123794062D01*
X153652027Y-123756543D01*
X153551420Y-123714870D01*
X153551418Y-123714869D01*
X153551417Y-123714869D01*
X153348468Y-123674500D01*
X153348465Y-123674500D01*
X153141535Y-123674500D01*
X153141531Y-123674500D01*
X152938582Y-123714869D01*
X152747394Y-123794062D01*
X152575347Y-123909020D01*
X152575347Y-123909021D01*
X152429021Y-124055347D01*
X152429020Y-124055347D01*
X152314062Y-124227394D01*
X152234869Y-124418582D01*
X152194500Y-124621531D01*
X151755499Y-124621531D01*
X151715130Y-124418580D01*
X151635941Y-124227402D01*
X151635939Y-124227399D01*
X151635937Y-124227394D01*
X151520979Y-124055347D01*
X151433032Y-123967400D01*
X151406657Y-123915637D01*
X151405500Y-123900932D01*
X151405500Y-123494500D01*
X151423452Y-123439248D01*
X151470452Y-123405101D01*
X151499500Y-123400500D01*
X151721007Y-123400500D01*
X151806006Y-123400500D01*
X151943994Y-123400500D01*
X153231007Y-123400500D01*
X153368993Y-123400500D01*
X156440907Y-123400500D01*
X156496159Y-123418452D01*
X156507375Y-123428032D01*
X156933459Y-123854116D01*
X157048181Y-123930771D01*
X157048186Y-123930773D01*
X157048189Y-123930775D01*
X157175671Y-123983580D01*
X157268548Y-124002053D01*
X157319236Y-124030439D01*
X157343558Y-124083197D01*
X157333965Y-124136922D01*
X157259253Y-124283553D01*
X157259251Y-124283557D01*
X157203317Y-124455703D01*
X157175000Y-124634496D01*
X157175000Y-124815503D01*
X157203317Y-124994296D01*
X157259251Y-125166442D01*
X157259255Y-125166451D01*
X157326773Y-125298960D01*
X157827094Y-124798641D01*
X157859075Y-124917993D01*
X157924901Y-125032007D01*
X158017993Y-125125099D01*
X158132007Y-125190925D01*
X158251358Y-125222905D01*
X157751038Y-125723225D01*
X157751038Y-125723226D01*
X157883548Y-125790744D01*
X157883557Y-125790748D01*
X158055703Y-125846682D01*
X158234496Y-125874999D01*
X158234499Y-125875000D01*
X158415501Y-125875000D01*
X158415503Y-125874999D01*
X158594296Y-125846682D01*
X158766442Y-125790748D01*
X158766451Y-125790744D01*
X158898961Y-125723226D01*
X158398641Y-125222905D01*
X158517993Y-125190925D01*
X158632007Y-125125099D01*
X158725099Y-125032007D01*
X158790925Y-124917993D01*
X158822905Y-124798640D01*
X159323226Y-125298961D01*
X159390744Y-125166451D01*
X159390748Y-125166442D01*
X159446682Y-124994296D01*
X159474999Y-124815503D01*
X159475000Y-124815501D01*
X159475000Y-124634499D01*
X159474999Y-124634496D01*
X159446682Y-124455703D01*
X159390748Y-124283557D01*
X159390744Y-124283548D01*
X159323225Y-124151038D01*
X158822905Y-124651357D01*
X158790925Y-124532007D01*
X158725099Y-124417993D01*
X158632007Y-124324901D01*
X158517993Y-124259075D01*
X158398640Y-124227094D01*
X158898960Y-123726773D01*
X158898960Y-123726772D01*
X158766451Y-123659255D01*
X158766442Y-123659251D01*
X158594296Y-123603317D01*
X158415503Y-123575000D01*
X158234494Y-123575000D01*
X158168443Y-123585461D01*
X158111063Y-123576372D01*
X158069984Y-123535292D01*
X158060896Y-123477912D01*
X158061535Y-123474331D01*
X158080499Y-123378994D01*
X158080499Y-123241006D01*
X158053580Y-123105671D01*
X158000775Y-122978189D01*
X158000773Y-122978186D01*
X158000771Y-122978181D01*
X157924116Y-122863459D01*
X157216540Y-122155883D01*
X157101816Y-122079227D01*
X157101808Y-122079223D01*
X156974328Y-122026420D01*
X156838995Y-121999500D01*
X156838994Y-121999500D01*
X156838993Y-121999500D01*
X153925123Y-121999500D01*
X153869871Y-121981548D01*
X153856687Y-121969940D01*
X153851317Y-121964237D01*
X153844114Y-121953457D01*
X153793624Y-121902967D01*
X153792657Y-121901940D01*
X153780826Y-121876886D01*
X153768250Y-121852205D01*
X153768481Y-121850744D01*
X153767850Y-121849408D01*
X153773002Y-121822196D01*
X153777338Y-121794825D01*
X153778484Y-121793246D01*
X153778659Y-121792327D01*
X153780222Y-121790854D01*
X153794625Y-121771032D01*
X155744116Y-119821541D01*
X155744116Y-119821540D01*
X155820771Y-119706818D01*
X155820772Y-119706815D01*
X155820775Y-119706811D01*
X155873580Y-119579329D01*
X155880326Y-119545413D01*
X155900500Y-119443993D01*
X155900500Y-118711007D01*
X155900500Y-117531007D01*
X155900500Y-115931007D01*
X155900500Y-114281007D01*
X155898520Y-114271055D01*
X155873580Y-114145672D01*
X155820775Y-114018189D01*
X155820772Y-114018183D01*
X155744116Y-113903459D01*
X155211598Y-113370941D01*
X158649500Y-113370941D01*
X158649500Y-113529058D01*
X158663217Y-113580252D01*
X158690423Y-113681784D01*
X158769480Y-113818716D01*
X158881284Y-113930520D01*
X159018216Y-114009577D01*
X159018220Y-114009578D01*
X159079807Y-114026080D01*
X159128530Y-114057720D01*
X159149350Y-114111956D01*
X159149479Y-114116877D01*
X159149479Y-119830100D01*
X159183586Y-119957391D01*
X159183590Y-119957398D01*
X159249476Y-120071517D01*
X159249482Y-120071525D01*
X160378463Y-121200506D01*
X160378467Y-121200509D01*
X160378468Y-121200510D01*
X160492596Y-121266402D01*
X160535027Y-121277771D01*
X160619888Y-121300510D01*
X160619890Y-121300510D01*
X160695207Y-121300510D01*
X160742206Y-121313103D01*
X160775674Y-121332425D01*
X160822720Y-121359587D01*
X160873629Y-121373228D01*
X160975445Y-121400510D01*
X160975447Y-121400510D01*
X161133563Y-121400510D01*
X161209924Y-121380048D01*
X161286288Y-121359587D01*
X161309004Y-121346471D01*
X161365829Y-121334393D01*
X161418902Y-121358022D01*
X161447950Y-121408334D01*
X161450004Y-121427878D01*
X161450004Y-123676088D01*
X161447660Y-123683301D01*
X161448847Y-123690793D01*
X161438854Y-123710405D01*
X161432052Y-123731340D01*
X161422472Y-123742556D01*
X161412930Y-123752098D01*
X161361167Y-123778473D01*
X161310490Y-123772475D01*
X161171419Y-123714869D01*
X160968468Y-123674500D01*
X160968465Y-123674500D01*
X160761535Y-123674500D01*
X160761531Y-123674500D01*
X160558582Y-123714869D01*
X160367394Y-123794062D01*
X160195347Y-123909020D01*
X160195347Y-123909021D01*
X160049021Y-124055347D01*
X160049020Y-124055347D01*
X159934062Y-124227394D01*
X159854869Y-124418582D01*
X159814500Y-124621531D01*
X159814500Y-124828468D01*
X159854869Y-125031417D01*
X159854870Y-125031420D01*
X159903683Y-125149264D01*
X159934062Y-125222605D01*
X160049020Y-125394652D01*
X160195347Y-125540979D01*
X160367394Y-125655937D01*
X160367399Y-125655939D01*
X160367402Y-125655941D01*
X160558580Y-125735130D01*
X160761535Y-125775500D01*
X160761538Y-125775500D01*
X160968462Y-125775500D01*
X160968465Y-125775500D01*
X161171420Y-125735130D01*
X161362598Y-125655941D01*
X161362602Y-125655938D01*
X161362605Y-125655937D01*
X161534652Y-125540979D01*
X161534653Y-125540979D01*
X161680979Y-125394653D01*
X161680979Y-125394652D01*
X161795937Y-125222605D01*
X161795938Y-125222602D01*
X161795941Y-125222598D01*
X161875130Y-125031420D01*
X161915500Y-124828465D01*
X161915500Y-124621535D01*
X161875130Y-124418580D01*
X161817523Y-124279507D01*
X161812966Y-124221592D01*
X161837899Y-124177070D01*
X161990964Y-124024007D01*
X162030526Y-123955484D01*
X162051004Y-123879058D01*
X162051004Y-123799934D01*
X162051004Y-123622911D01*
X162068956Y-123567659D01*
X162115956Y-123533512D01*
X162174052Y-123533512D01*
X162211472Y-123556443D01*
X162583479Y-123928450D01*
X162609854Y-123980213D01*
X162600766Y-124037593D01*
X162589678Y-124054547D01*
X162589017Y-124055351D01*
X162474062Y-124227394D01*
X162394869Y-124418582D01*
X162354500Y-124621531D01*
X162354500Y-124828468D01*
X162394869Y-125031417D01*
X162394870Y-125031420D01*
X162443683Y-125149264D01*
X162474062Y-125222605D01*
X162589020Y-125394652D01*
X162735347Y-125540979D01*
X162907394Y-125655937D01*
X162907399Y-125655939D01*
X162907402Y-125655941D01*
X163098580Y-125735130D01*
X163301535Y-125775500D01*
X163301538Y-125775500D01*
X163508462Y-125775500D01*
X163508465Y-125775500D01*
X163711420Y-125735130D01*
X163902598Y-125655941D01*
X163902602Y-125655938D01*
X163902605Y-125655937D01*
X164074652Y-125540979D01*
X164074653Y-125540979D01*
X164220979Y-125394653D01*
X164220979Y-125394652D01*
X164335937Y-125222605D01*
X164335938Y-125222602D01*
X164335941Y-125222598D01*
X164415130Y-125031420D01*
X164455500Y-124828465D01*
X164455500Y-124621535D01*
X164415130Y-124418580D01*
X164335941Y-124227402D01*
X164335939Y-124227399D01*
X164335937Y-124227394D01*
X164220979Y-124055347D01*
X164074652Y-123909020D01*
X163902605Y-123794062D01*
X163812027Y-123756543D01*
X163711420Y-123714870D01*
X163711418Y-123714869D01*
X163711417Y-123714869D01*
X163508468Y-123674500D01*
X163508465Y-123674500D01*
X163301535Y-123674500D01*
X163301528Y-123674500D01*
X163248999Y-123684949D01*
X163191307Y-123678120D01*
X163164194Y-123659223D01*
X162474536Y-122969565D01*
X162448161Y-122917802D01*
X162447004Y-122903097D01*
X162447004Y-120308126D01*
X162440679Y-120284522D01*
X162440679Y-120284521D01*
X162426526Y-120231701D01*
X162386964Y-120163178D01*
X162386962Y-120163176D01*
X162386960Y-120163173D01*
X161784754Y-119560968D01*
X161758379Y-119509205D01*
X161767467Y-119451825D01*
X161808547Y-119410745D01*
X161851222Y-119400500D01*
X163636593Y-119400500D01*
X163691845Y-119418452D01*
X163703061Y-119428032D01*
X163871968Y-119596939D01*
X163898343Y-119648702D01*
X163899500Y-119663407D01*
X163899500Y-119765893D01*
X163933607Y-119893184D01*
X163933611Y-119893191D01*
X163999497Y-120007310D01*
X163999503Y-120007318D01*
X164092681Y-120100496D01*
X164092685Y-120100499D01*
X164092686Y-120100500D01*
X164206814Y-120166392D01*
X164249245Y-120177761D01*
X164334106Y-120200500D01*
X164334108Y-120200500D01*
X164465894Y-120200500D01*
X164529539Y-120183446D01*
X164593186Y-120166392D01*
X164707314Y-120100500D01*
X164800500Y-120007314D01*
X164866392Y-119893186D01*
X164900500Y-119765892D01*
X164900500Y-119634108D01*
X164900500Y-119634106D01*
X164876734Y-119545413D01*
X164866392Y-119506814D01*
X164815376Y-119418452D01*
X164800502Y-119392689D01*
X164800496Y-119392681D01*
X164707318Y-119299503D01*
X164707310Y-119299497D01*
X164593191Y-119233611D01*
X164593184Y-119233607D01*
X164465894Y-119199500D01*
X164465892Y-119199500D01*
X164363407Y-119199500D01*
X164308155Y-119181548D01*
X164296939Y-119171968D01*
X163984511Y-118859540D01*
X163966243Y-118848993D01*
X163915989Y-118819979D01*
X163839562Y-118799500D01*
X161696250Y-118799500D01*
X161640998Y-118781548D01*
X161629782Y-118771968D01*
X161557317Y-118699502D01*
X161557310Y-118699497D01*
X161443191Y-118633611D01*
X161443192Y-118633611D01*
X161443186Y-118633608D01*
X161443183Y-118633607D01*
X161443181Y-118633606D01*
X161420177Y-118627442D01*
X161371455Y-118595800D01*
X161350638Y-118541563D01*
X161350509Y-118536646D01*
X161350509Y-117684786D01*
X166950001Y-117684786D01*
X166950002Y-117684805D01*
X166952908Y-117709872D01*
X166998212Y-117812477D01*
X167077522Y-117891787D01*
X167180123Y-117937089D01*
X167205207Y-117939999D01*
X168200000Y-117939999D01*
X168800000Y-117939999D01*
X169794787Y-117939999D01*
X169794805Y-117939997D01*
X169819872Y-117937091D01*
X169922477Y-117891787D01*
X170001787Y-117812477D01*
X170047089Y-117709876D01*
X170049999Y-117684793D01*
X170050000Y-117684791D01*
X170050000Y-117190000D01*
X168800000Y-117190000D01*
X168800000Y-117939999D01*
X168200000Y-117939999D01*
X168200000Y-117190000D01*
X166950001Y-117190000D01*
X166950001Y-117684786D01*
X161350509Y-117684786D01*
X161350509Y-116095206D01*
X166950000Y-116095206D01*
X166950000Y-116590000D01*
X168200000Y-116590000D01*
X168800000Y-116590000D01*
X170049999Y-116590000D01*
X170049999Y-116095213D01*
X170049997Y-116095194D01*
X170047091Y-116070127D01*
X170001787Y-115967522D01*
X169922477Y-115888212D01*
X169819876Y-115842910D01*
X169794793Y-115840000D01*
X168800000Y-115840000D01*
X168800000Y-116590000D01*
X168200000Y-116590000D01*
X168200000Y-115840000D01*
X167205213Y-115840000D01*
X167205194Y-115840002D01*
X167180127Y-115842908D01*
X167077522Y-115888212D01*
X166998212Y-115967522D01*
X166952910Y-116070123D01*
X166950000Y-116095206D01*
X161350509Y-116095206D01*
X161350509Y-113580248D01*
X167049500Y-113580248D01*
X167049500Y-115119751D01*
X167061132Y-115178227D01*
X167061132Y-115178229D01*
X167061132Y-115178230D01*
X167061133Y-115178231D01*
X167105448Y-115244552D01*
X167171769Y-115288867D01*
X167230252Y-115300500D01*
X167230255Y-115300500D01*
X169769745Y-115300500D01*
X169769748Y-115300500D01*
X169828231Y-115288867D01*
X169894552Y-115244552D01*
X169938867Y-115178231D01*
X169950500Y-115119748D01*
X169950500Y-113580252D01*
X169938867Y-113521769D01*
X169894552Y-113455448D01*
X169828231Y-113411133D01*
X169828228Y-113411132D01*
X169769751Y-113399500D01*
X169769748Y-113399500D01*
X167230252Y-113399500D01*
X167230248Y-113399500D01*
X167171772Y-113411132D01*
X167171770Y-113411132D01*
X167105448Y-113455448D01*
X167061132Y-113521770D01*
X167061132Y-113521772D01*
X167049500Y-113580248D01*
X161350509Y-113580248D01*
X161350509Y-112746246D01*
X161368461Y-112690994D01*
X161378041Y-112679778D01*
X161453033Y-112604786D01*
X166950001Y-112604786D01*
X166950002Y-112604805D01*
X166952908Y-112629872D01*
X166998212Y-112732477D01*
X167077522Y-112811787D01*
X167180123Y-112857089D01*
X167205207Y-112859999D01*
X168200000Y-112859999D01*
X168800000Y-112859999D01*
X169794787Y-112859999D01*
X169794805Y-112859997D01*
X169819872Y-112857091D01*
X169922477Y-112811787D01*
X170001787Y-112732477D01*
X170047089Y-112629876D01*
X170049999Y-112604793D01*
X170050000Y-112604791D01*
X170050000Y-112110000D01*
X168800000Y-112110000D01*
X168800000Y-112859999D01*
X168200000Y-112859999D01*
X168200000Y-112110000D01*
X166950001Y-112110000D01*
X166950001Y-112604786D01*
X161453033Y-112604786D01*
X162053223Y-112004596D01*
X162407820Y-111650000D01*
X163042614Y-111015206D01*
X166950000Y-111015206D01*
X166950000Y-111510000D01*
X168200000Y-111510000D01*
X168800000Y-111510000D01*
X170049999Y-111510000D01*
X170049999Y-111015213D01*
X170049997Y-111015194D01*
X170047091Y-110990127D01*
X170001787Y-110887522D01*
X169922477Y-110808212D01*
X169819876Y-110762910D01*
X169794793Y-110760000D01*
X168800000Y-110760000D01*
X168800000Y-111510000D01*
X168200000Y-111510000D01*
X168200000Y-110760000D01*
X167205213Y-110760000D01*
X167205194Y-110760002D01*
X167180127Y-110762908D01*
X167077522Y-110808212D01*
X166998212Y-110887522D01*
X166952910Y-110990123D01*
X166950000Y-111015206D01*
X163042614Y-111015206D01*
X163390470Y-110667350D01*
X163419164Y-110617650D01*
X163430031Y-110598828D01*
X163450510Y-110522401D01*
X163450510Y-109101399D01*
X163468462Y-109046147D01*
X163478042Y-109034931D01*
X163590461Y-108922512D01*
X163603747Y-108899500D01*
X163630022Y-108853990D01*
X163650501Y-108777563D01*
X163650501Y-107163406D01*
X163668453Y-107108154D01*
X163678033Y-107096938D01*
X164052994Y-106721977D01*
X164440460Y-106334511D01*
X164467249Y-106288110D01*
X164480021Y-106265989D01*
X164500500Y-106189562D01*
X164500500Y-106176904D01*
X164518452Y-106121652D01*
X164565452Y-106087505D01*
X164570147Y-106086113D01*
X164633186Y-106069223D01*
X164747314Y-106003331D01*
X164840500Y-105910145D01*
X164906392Y-105796017D01*
X164940500Y-105668723D01*
X164940500Y-105536939D01*
X164940500Y-105536937D01*
X164917761Y-105452076D01*
X164906392Y-105409645D01*
X164862464Y-105333559D01*
X164840502Y-105295520D01*
X164840496Y-105295512D01*
X164747318Y-105202334D01*
X164747310Y-105202328D01*
X164633191Y-105136442D01*
X164633184Y-105136438D01*
X164505894Y-105102331D01*
X164505892Y-105102331D01*
X164374108Y-105102331D01*
X164374106Y-105102331D01*
X164246815Y-105136438D01*
X164246808Y-105136442D01*
X164132689Y-105202328D01*
X164132681Y-105202334D01*
X164039503Y-105295512D01*
X164039497Y-105295520D01*
X163973611Y-105409639D01*
X163973607Y-105409646D01*
X163939500Y-105536937D01*
X163939500Y-105667843D01*
X163926908Y-105714840D01*
X163919980Y-105726839D01*
X163919979Y-105726842D01*
X163899500Y-105803268D01*
X163899500Y-105986593D01*
X163881548Y-106041845D01*
X163871968Y-106053061D01*
X163109540Y-106815488D01*
X163069982Y-106884006D01*
X163069980Y-106884010D01*
X163049501Y-106960436D01*
X163049501Y-107889592D01*
X163031549Y-107944844D01*
X162984549Y-107978991D01*
X162931172Y-107980389D01*
X162815894Y-107949500D01*
X162815892Y-107949500D01*
X162684108Y-107949500D01*
X162684106Y-107949500D01*
X162556815Y-107983607D01*
X162556808Y-107983611D01*
X162442687Y-108049498D01*
X162432752Y-108059433D01*
X162380988Y-108085806D01*
X162323608Y-108076716D01*
X162299818Y-108059431D01*
X162242595Y-108002208D01*
X162242587Y-108002202D01*
X162128468Y-107936316D01*
X162128461Y-107936312D01*
X162001171Y-107902205D01*
X162001169Y-107902205D01*
X161869385Y-107902205D01*
X161869383Y-107902205D01*
X161742092Y-107936312D01*
X161742085Y-107936316D01*
X161627966Y-108002202D01*
X161627958Y-108002208D01*
X161534780Y-108095386D01*
X161534774Y-108095394D01*
X161468888Y-108209513D01*
X161468884Y-108209520D01*
X161434777Y-108336811D01*
X161434777Y-108468598D01*
X161468884Y-108595889D01*
X161468888Y-108595896D01*
X161534774Y-108710015D01*
X161534780Y-108710023D01*
X161627958Y-108803201D01*
X161627962Y-108803204D01*
X161627963Y-108803205D01*
X161742091Y-108869097D01*
X161855558Y-108899500D01*
X161857144Y-108899925D01*
X161899283Y-108924254D01*
X162021958Y-109046929D01*
X162048333Y-109098692D01*
X162049490Y-109113397D01*
X162049490Y-109988053D01*
X162031538Y-110043305D01*
X162021958Y-110054521D01*
X160009528Y-112066951D01*
X159969970Y-112135469D01*
X159969968Y-112135473D01*
X159949489Y-112211899D01*
X159949489Y-113109737D01*
X159931537Y-113164989D01*
X159884537Y-113199136D01*
X159826441Y-113199136D01*
X159779441Y-113164989D01*
X159774083Y-113156737D01*
X159730522Y-113081288D01*
X159730520Y-113081284D01*
X159618716Y-112969480D01*
X159481784Y-112890423D01*
X159481782Y-112890422D01*
X159329059Y-112849500D01*
X159329057Y-112849500D01*
X159170943Y-112849500D01*
X159170941Y-112849500D01*
X159018217Y-112890422D01*
X159018216Y-112890423D01*
X158881284Y-112969480D01*
X158881283Y-112969481D01*
X158881280Y-112969483D01*
X158769483Y-113081280D01*
X158769481Y-113081283D01*
X158769480Y-113081284D01*
X158701439Y-113199136D01*
X158690423Y-113218216D01*
X158690422Y-113218217D01*
X158649500Y-113370941D01*
X155211598Y-113370941D01*
X154996542Y-113155885D01*
X154938176Y-113116886D01*
X154902210Y-113071263D01*
X154899929Y-113013212D01*
X154916918Y-112980108D01*
X154919141Y-112977322D01*
X154933464Y-112957824D01*
X154978134Y-112854822D01*
X154997841Y-112768479D01*
X155005500Y-112700500D01*
X155005500Y-112499000D01*
X155003579Y-112464797D01*
X154998590Y-112420515D01*
X154983044Y-112366555D01*
X154983123Y-112366538D01*
X154978134Y-112344679D01*
X154971819Y-112321319D01*
X154948851Y-112278093D01*
X154948194Y-112276359D01*
X154941558Y-112262577D01*
X154941559Y-112262577D01*
X154931832Y-112242378D01*
X154920477Y-112221009D01*
X154877248Y-112171000D01*
X154877907Y-112170476D01*
X154863928Y-112152946D01*
X154848107Y-112134642D01*
X154807875Y-112105085D01*
X154806545Y-112103766D01*
X154777829Y-112080865D01*
X154766012Y-112072184D01*
X154758332Y-112066541D01*
X154757033Y-112065977D01*
X154718925Y-112049448D01*
X154715547Y-112047903D01*
X154677820Y-112029735D01*
X154655644Y-112020120D01*
X154655632Y-112020116D01*
X154613657Y-112012269D01*
X154613657Y-112012270D01*
X154613424Y-112012227D01*
X154590651Y-112007970D01*
X154590839Y-112007149D01*
X154568981Y-112002160D01*
X154545290Y-111999490D01*
X154545282Y-111999489D01*
X154545276Y-111999489D01*
X154542581Y-111999185D01*
X154542574Y-111999184D01*
X154501000Y-111994500D01*
X152943694Y-111994500D01*
X152932113Y-111994784D01*
X152928702Y-111994868D01*
X152928589Y-111994873D01*
X152928287Y-111994888D01*
X152923716Y-111995000D01*
X152331568Y-111995000D01*
X152331394Y-111995001D01*
X152325907Y-111995052D01*
X152318410Y-111995192D01*
X152310440Y-111996318D01*
X152253222Y-111986265D01*
X152212840Y-111944500D01*
X152204719Y-111886975D01*
X152210456Y-111867270D01*
X152212516Y-111862295D01*
X152250000Y-111722409D01*
X152250000Y-111577590D01*
X152223786Y-111479765D01*
X151943244Y-111760308D01*
X151891481Y-111786683D01*
X151834101Y-111777595D01*
X151810308Y-111760308D01*
X151700000Y-111650000D01*
X151589691Y-111760308D01*
X151537928Y-111786683D01*
X151480548Y-111777594D01*
X151456755Y-111760308D01*
X151176211Y-111479764D01*
X151150000Y-111577589D01*
X151150000Y-111722409D01*
X151187482Y-111862291D01*
X151189841Y-111867986D01*
X151187116Y-111869114D01*
X151196694Y-111914127D01*
X151173077Y-111967205D01*
X151122772Y-111996264D01*
X151092685Y-111997732D01*
X151068436Y-111995000D01*
X151068432Y-111995000D01*
X150526288Y-111995000D01*
X150521716Y-111994888D01*
X150521397Y-111994872D01*
X150521301Y-111994868D01*
X150518442Y-111994797D01*
X150506310Y-111994500D01*
X148495905Y-111994500D01*
X148494720Y-111994500D01*
X148494572Y-111994502D01*
X148479978Y-111994540D01*
X148476933Y-111994746D01*
X148476920Y-111994559D01*
X148470284Y-111995001D01*
X148323878Y-111995001D01*
X148323846Y-111995000D01*
X148320939Y-111995000D01*
X146999000Y-111995000D01*
X146998998Y-111995000D01*
X146964787Y-111996921D01*
X146920513Y-112001910D01*
X146822167Y-112030242D01*
X146742363Y-112068675D01*
X146721014Y-112080018D01*
X146721013Y-112080019D01*
X146636080Y-112153434D01*
X146636076Y-112153437D01*
X146580856Y-112222681D01*
X146566535Y-112242176D01*
X146566534Y-112242178D01*
X146521866Y-112345177D01*
X146521865Y-112345180D01*
X146502158Y-112431524D01*
X146494500Y-112499497D01*
X146494500Y-121601001D01*
X146496421Y-121635212D01*
X146501410Y-121679486D01*
X146529742Y-121777832D01*
X146568175Y-121857635D01*
X146570172Y-121861394D01*
X146580243Y-121918609D01*
X146554761Y-121970818D01*
X146503458Y-121998077D01*
X146487162Y-121999500D01*
X146129093Y-121999500D01*
X146121879Y-121997156D01*
X146114388Y-121998343D01*
X146094775Y-121988350D01*
X146073841Y-121981548D01*
X146062625Y-121971968D01*
X146028032Y-121937375D01*
X146001657Y-121885612D01*
X146000500Y-121870907D01*
X146000500Y-120431009D01*
X146000500Y-120431007D01*
X145973580Y-120295672D01*
X145920775Y-120168189D01*
X145844114Y-120053458D01*
X145746542Y-119955886D01*
X145631811Y-119879225D01*
X145631808Y-119879223D01*
X145504328Y-119826420D01*
X145368994Y-119799500D01*
X145368993Y-119799500D01*
X145231007Y-119799500D01*
X145231005Y-119799500D01*
X145095671Y-119826420D01*
X144968191Y-119879223D01*
X144968188Y-119879225D01*
X144853458Y-119955885D01*
X144755885Y-120053458D01*
X144679225Y-120168188D01*
X144679223Y-120168191D01*
X144626420Y-120295671D01*
X144599500Y-120431005D01*
X137975981Y-120431005D01*
X138002133Y-120382078D01*
X138002133Y-120382077D01*
X138017267Y-120353763D01*
X138077306Y-120155841D01*
X138077309Y-120155829D01*
X138092500Y-120001595D01*
X138092500Y-119500000D01*
X137446644Y-119500000D01*
X137508425Y-119392993D01*
X137542500Y-119265826D01*
X137542500Y-119134174D01*
X137508425Y-119007007D01*
X137446644Y-118900000D01*
X138092500Y-118900000D01*
X138092500Y-118398404D01*
X138077309Y-118244170D01*
X138077306Y-118244158D01*
X138017268Y-118046238D01*
X137919767Y-117863827D01*
X137788554Y-117703945D01*
X137628672Y-117572732D01*
X137446261Y-117475231D01*
X137248341Y-117415193D01*
X137248329Y-117415190D01*
X137094096Y-117400000D01*
X136342500Y-117400000D01*
X136342500Y-118700000D01*
X135742500Y-118700000D01*
X135742500Y-117400000D01*
X134990904Y-117400000D01*
X134836670Y-117415190D01*
X134836658Y-117415193D01*
X134638738Y-117475231D01*
X134456327Y-117572732D01*
X134296445Y-117703945D01*
X134165232Y-117863827D01*
X134067731Y-118046238D01*
X134007693Y-118244158D01*
X134007690Y-118244170D01*
X133992500Y-118398404D01*
X130525500Y-118398404D01*
X130525500Y-115242880D01*
X138792000Y-115242880D01*
X138792000Y-117157119D01*
X138794749Y-117203266D01*
X138838408Y-117403964D01*
X138838410Y-117403970D01*
X138919260Y-117592773D01*
X138919263Y-117592777D01*
X139034388Y-117762875D01*
X139179625Y-117908112D01*
X139349723Y-118023237D01*
X139349726Y-118023239D01*
X139538529Y-118104089D01*
X139538535Y-118104091D01*
X139739237Y-118147751D01*
X139785382Y-118150500D01*
X139785392Y-118150500D01*
X141699608Y-118150500D01*
X141699618Y-118150500D01*
X141745763Y-118147751D01*
X141946465Y-118104091D01*
X142081565Y-118046238D01*
X142135273Y-118023239D01*
X142135274Y-118023238D01*
X142135277Y-118023237D01*
X142305375Y-117908112D01*
X142450612Y-117762875D01*
X142503464Y-117684786D01*
X142950001Y-117684786D01*
X142950002Y-117684805D01*
X142952908Y-117709872D01*
X142998212Y-117812477D01*
X143077522Y-117891787D01*
X143180123Y-117937089D01*
X143205207Y-117939999D01*
X144200000Y-117939999D01*
X144800000Y-117939999D01*
X145794787Y-117939999D01*
X145794805Y-117939997D01*
X145819872Y-117937091D01*
X145922477Y-117891787D01*
X146001787Y-117812477D01*
X146047089Y-117709876D01*
X146049999Y-117684793D01*
X146050000Y-117684791D01*
X146050000Y-117190000D01*
X144800000Y-117190000D01*
X144800000Y-117939999D01*
X144200000Y-117939999D01*
X144200000Y-117190000D01*
X142950001Y-117190000D01*
X142950001Y-117684786D01*
X142503464Y-117684786D01*
X142565737Y-117592777D01*
X142592189Y-117531007D01*
X142646589Y-117403970D01*
X142646591Y-117403964D01*
X142690251Y-117203263D01*
X142693000Y-117157118D01*
X142693000Y-116095206D01*
X142950000Y-116095206D01*
X142950000Y-116590000D01*
X144200000Y-116590000D01*
X144800000Y-116590000D01*
X146049999Y-116590000D01*
X146049999Y-116095213D01*
X146049997Y-116095194D01*
X146047091Y-116070127D01*
X146001787Y-115967522D01*
X145922477Y-115888212D01*
X145819876Y-115842910D01*
X145794793Y-115840000D01*
X144800000Y-115840000D01*
X144800000Y-116590000D01*
X144200000Y-116590000D01*
X144200000Y-115840000D01*
X143205213Y-115840000D01*
X143205194Y-115840002D01*
X143180127Y-115842908D01*
X143077522Y-115888212D01*
X142998212Y-115967522D01*
X142952910Y-116070123D01*
X142950000Y-116095206D01*
X142693000Y-116095206D01*
X142693000Y-115242882D01*
X142690251Y-115196737D01*
X142678950Y-115144786D01*
X142950001Y-115144786D01*
X142950002Y-115144805D01*
X142952908Y-115169872D01*
X142998212Y-115272477D01*
X143077522Y-115351787D01*
X143180123Y-115397089D01*
X143205207Y-115399999D01*
X144200000Y-115399999D01*
X144800000Y-115399999D01*
X145794787Y-115399999D01*
X145794805Y-115399997D01*
X145819872Y-115397091D01*
X145922477Y-115351787D01*
X146001787Y-115272477D01*
X146047089Y-115169876D01*
X146049999Y-115144793D01*
X146050000Y-115144791D01*
X146050000Y-114650000D01*
X144800000Y-114650000D01*
X144800000Y-115399999D01*
X144200000Y-115399999D01*
X144200000Y-114650000D01*
X142950001Y-114650000D01*
X142950001Y-115144786D01*
X142678950Y-115144786D01*
X142646591Y-114996035D01*
X142646589Y-114996029D01*
X142565739Y-114807226D01*
X142565737Y-114807223D01*
X142450612Y-114637125D01*
X142305375Y-114491888D01*
X142135277Y-114376763D01*
X142135278Y-114376763D01*
X142135273Y-114376760D01*
X141946470Y-114295910D01*
X141946464Y-114295908D01*
X141745766Y-114252249D01*
X141699619Y-114249500D01*
X141699618Y-114249500D01*
X139785382Y-114249500D01*
X139785380Y-114249500D01*
X139739233Y-114252249D01*
X139538535Y-114295908D01*
X139538529Y-114295910D01*
X139349726Y-114376760D01*
X139179623Y-114491889D01*
X139034389Y-114637123D01*
X138919260Y-114807226D01*
X138838410Y-114996029D01*
X138838408Y-114996035D01*
X138794749Y-115196733D01*
X138792000Y-115242880D01*
X130525500Y-115242880D01*
X130525500Y-111430248D01*
X134092000Y-111430248D01*
X134092000Y-114969751D01*
X134103632Y-115028227D01*
X134103632Y-115028229D01*
X134103632Y-115028230D01*
X134103633Y-115028231D01*
X134147948Y-115094552D01*
X134214269Y-115138867D01*
X134272752Y-115150500D01*
X134272755Y-115150500D01*
X137812245Y-115150500D01*
X137812248Y-115150500D01*
X137815453Y-115149862D01*
X137818332Y-115149290D01*
X137828158Y-115147335D01*
X137870731Y-115138867D01*
X137937052Y-115094552D01*
X137981367Y-115028231D01*
X137993000Y-114969748D01*
X137993000Y-113555206D01*
X142950000Y-113555206D01*
X142950000Y-114050000D01*
X144200000Y-114050000D01*
X144800000Y-114050000D01*
X146049999Y-114050000D01*
X146049999Y-113555213D01*
X146049997Y-113555194D01*
X146047091Y-113530127D01*
X146001787Y-113427522D01*
X145922477Y-113348212D01*
X145819876Y-113302910D01*
X145794793Y-113300000D01*
X144800000Y-113300000D01*
X144800000Y-114050000D01*
X144200000Y-114050000D01*
X144200000Y-113300000D01*
X143205213Y-113300000D01*
X143205194Y-113300002D01*
X143180127Y-113302908D01*
X143077522Y-113348212D01*
X142998212Y-113427522D01*
X142952910Y-113530123D01*
X142950000Y-113555206D01*
X137993000Y-113555206D01*
X137993000Y-112604786D01*
X142950001Y-112604786D01*
X142950002Y-112604805D01*
X142952908Y-112629872D01*
X142998212Y-112732477D01*
X143077522Y-112811787D01*
X143180123Y-112857089D01*
X143205207Y-112859999D01*
X144200000Y-112859999D01*
X144800000Y-112859999D01*
X145794787Y-112859999D01*
X145794805Y-112859997D01*
X145819872Y-112857091D01*
X145922477Y-112811787D01*
X146001787Y-112732477D01*
X146047089Y-112629876D01*
X146049999Y-112604793D01*
X146050000Y-112604791D01*
X146050000Y-112110000D01*
X144800000Y-112110000D01*
X144800000Y-112859999D01*
X144200000Y-112859999D01*
X144200000Y-112110000D01*
X142950001Y-112110000D01*
X142950001Y-112604786D01*
X137993000Y-112604786D01*
X137993000Y-111430252D01*
X137981367Y-111371769D01*
X137937052Y-111305448D01*
X137870731Y-111261133D01*
X137870728Y-111261132D01*
X137812251Y-111249500D01*
X137812248Y-111249500D01*
X134272752Y-111249500D01*
X134272748Y-111249500D01*
X134214272Y-111261132D01*
X134214270Y-111261132D01*
X134147948Y-111305448D01*
X134103632Y-111371770D01*
X134103632Y-111371772D01*
X134092000Y-111430248D01*
X130525500Y-111430248D01*
X130525500Y-111015206D01*
X142950000Y-111015206D01*
X142950000Y-111510000D01*
X144200000Y-111510000D01*
X144800000Y-111510000D01*
X146049999Y-111510000D01*
X146049999Y-111126211D01*
X151529764Y-111126211D01*
X151699999Y-111296446D01*
X151870234Y-111126211D01*
X151772411Y-111100000D01*
X151627589Y-111100000D01*
X151529764Y-111126211D01*
X146049999Y-111126211D01*
X146049999Y-111015213D01*
X146049997Y-111015194D01*
X146047091Y-110990127D01*
X146001787Y-110887522D01*
X145922477Y-110808212D01*
X145819876Y-110762910D01*
X145794793Y-110760000D01*
X144800000Y-110760000D01*
X144800000Y-111510000D01*
X144200000Y-111510000D01*
X144200000Y-110760000D01*
X143205213Y-110760000D01*
X143205194Y-110760002D01*
X143180127Y-110762908D01*
X143077522Y-110808212D01*
X142998212Y-110887522D01*
X142952910Y-110990123D01*
X142950000Y-111015206D01*
X130525500Y-111015206D01*
X130525500Y-106741106D01*
X149156500Y-106741106D01*
X149156500Y-106872893D01*
X149190607Y-107000184D01*
X149190611Y-107000191D01*
X149256497Y-107114310D01*
X149256503Y-107114318D01*
X149349681Y-107207496D01*
X149349685Y-107207499D01*
X149349686Y-107207500D01*
X149463814Y-107273392D01*
X149513576Y-107286725D01*
X149597059Y-107309095D01*
X149596673Y-107310532D01*
X149602169Y-107310528D01*
X149618999Y-107322733D01*
X149637780Y-107331649D01*
X149642023Y-107339430D01*
X149649199Y-107344634D01*
X149655617Y-107364358D01*
X149665594Y-107382653D01*
X149667200Y-107399870D01*
X149667200Y-107488675D01*
X149667278Y-107488967D01*
X149667284Y-107495398D01*
X149660106Y-107517554D01*
X149655830Y-107540449D01*
X149651301Y-107544734D01*
X149649380Y-107550666D01*
X149630549Y-107564372D01*
X149613634Y-107580380D01*
X149603362Y-107584161D01*
X149602410Y-107584855D01*
X149601476Y-107584855D01*
X149597614Y-107586278D01*
X149506814Y-107610608D01*
X149506808Y-107610611D01*
X149392689Y-107676497D01*
X149392681Y-107676503D01*
X149299503Y-107769681D01*
X149299497Y-107769689D01*
X149233611Y-107883808D01*
X149233607Y-107883815D01*
X149199500Y-108011106D01*
X149199500Y-108142893D01*
X149233607Y-108270184D01*
X149233611Y-108270191D01*
X149299497Y-108384310D01*
X149299503Y-108384318D01*
X149392681Y-108477496D01*
X149392685Y-108477499D01*
X149392686Y-108477500D01*
X149506814Y-108543392D01*
X149549245Y-108554761D01*
X149634106Y-108577500D01*
X149736593Y-108577500D01*
X149791845Y-108595452D01*
X149803061Y-108605032D01*
X149999089Y-108801060D01*
X150025464Y-108852823D01*
X150016376Y-108910203D01*
X149999090Y-108933995D01*
X149961411Y-108971674D01*
X149961405Y-108971682D01*
X149895519Y-109085801D01*
X149895515Y-109085808D01*
X149861408Y-109213099D01*
X149861408Y-109344886D01*
X149895515Y-109472177D01*
X149895519Y-109472184D01*
X149961405Y-109586303D01*
X149961411Y-109586311D01*
X150054589Y-109679489D01*
X150054593Y-109679492D01*
X150054594Y-109679493D01*
X150168722Y-109745385D01*
X150211153Y-109756754D01*
X150296014Y-109779493D01*
X150296016Y-109779493D01*
X150427802Y-109779493D01*
X150491447Y-109762439D01*
X150555094Y-109745385D01*
X150669222Y-109679493D01*
X150762408Y-109586307D01*
X150784370Y-109548266D01*
X150827544Y-109509394D01*
X150865777Y-109501267D01*
X152078304Y-109501267D01*
X152154731Y-109480788D01*
X152223253Y-109441227D01*
X152279202Y-109385278D01*
X153053286Y-108611192D01*
X153105049Y-108584818D01*
X153162429Y-108593906D01*
X153186222Y-108611193D01*
X153959540Y-109384511D01*
X154015489Y-109440460D01*
X154084011Y-109480021D01*
X154160438Y-109500500D01*
X154239562Y-109500500D01*
X155186593Y-109500500D01*
X155241845Y-109518452D01*
X155253061Y-109528032D01*
X156071968Y-110346939D01*
X156098343Y-110398702D01*
X156099500Y-110413407D01*
X156099500Y-110415893D01*
X156133607Y-110543184D01*
X156133611Y-110543191D01*
X156199497Y-110657310D01*
X156199503Y-110657318D01*
X156292681Y-110750496D01*
X156292689Y-110750502D01*
X156330728Y-110772464D01*
X156406814Y-110816392D01*
X156449245Y-110827761D01*
X156534106Y-110850500D01*
X156534108Y-110850500D01*
X156665894Y-110850500D01*
X156729539Y-110833446D01*
X156793186Y-110816392D01*
X156907314Y-110750500D01*
X157000500Y-110657314D01*
X157066392Y-110543186D01*
X157100500Y-110415892D01*
X157100500Y-110284108D01*
X157100500Y-110284106D01*
X157066392Y-110156815D01*
X157066392Y-110156814D01*
X157007333Y-110054521D01*
X157000502Y-110042689D01*
X157000496Y-110042681D01*
X156907318Y-109949503D01*
X156907310Y-109949497D01*
X156793191Y-109883611D01*
X156793184Y-109883607D01*
X156665894Y-109849500D01*
X156665892Y-109849500D01*
X156534108Y-109849500D01*
X156534106Y-109849500D01*
X156500060Y-109858622D01*
X156442044Y-109855581D01*
X156409264Y-109834293D01*
X155534514Y-108959543D01*
X155534511Y-108959540D01*
X155534506Y-108959537D01*
X155518852Y-108950499D01*
X155518851Y-108950499D01*
X155465994Y-108919981D01*
X155465990Y-108919979D01*
X155465989Y-108919979D01*
X155389562Y-108899500D01*
X154363407Y-108899500D01*
X154308155Y-108881548D01*
X154296939Y-108871968D01*
X153728032Y-108303061D01*
X153701657Y-108251298D01*
X153700500Y-108236593D01*
X153700500Y-107729106D01*
X153718452Y-107673854D01*
X153728032Y-107662638D01*
X154040471Y-107350199D01*
X154044223Y-107345309D01*
X154044683Y-107345662D01*
X154053193Y-107334566D01*
X154389214Y-106998547D01*
X154440977Y-106972172D01*
X154455682Y-106971015D01*
X155755578Y-106971015D01*
X155832005Y-106950536D01*
X155900527Y-106910975D01*
X155956476Y-106855026D01*
X156173620Y-106637882D01*
X156225383Y-106611507D01*
X156240088Y-106610350D01*
X156303102Y-106610350D01*
X156366747Y-106593296D01*
X156430394Y-106576242D01*
X156544522Y-106510350D01*
X156637708Y-106417164D01*
X156703600Y-106303036D01*
X156730877Y-106201235D01*
X156737708Y-106175743D01*
X156737708Y-106043956D01*
X156703600Y-105916665D01*
X156703600Y-105916664D01*
X156637708Y-105802536D01*
X156637707Y-105802535D01*
X156637704Y-105802531D01*
X156544526Y-105709353D01*
X156544518Y-105709347D01*
X156430399Y-105643461D01*
X156430392Y-105643457D01*
X156303102Y-105609350D01*
X156303100Y-105609350D01*
X156171316Y-105609350D01*
X156171314Y-105609350D01*
X156044023Y-105643457D01*
X156044016Y-105643461D01*
X155929895Y-105709348D01*
X155918745Y-105720498D01*
X155905481Y-105727255D01*
X155894954Y-105737783D01*
X155880246Y-105740112D01*
X155866981Y-105746871D01*
X155852279Y-105744541D01*
X155837574Y-105746871D01*
X155824306Y-105740110D01*
X155809601Y-105737781D01*
X155785811Y-105720496D01*
X155773834Y-105708519D01*
X155747459Y-105656756D01*
X155756547Y-105599376D01*
X155773833Y-105575584D01*
X155799359Y-105550059D01*
X155865251Y-105435931D01*
X155899359Y-105308637D01*
X155899359Y-105176853D01*
X155899359Y-105176851D01*
X155865251Y-105049560D01*
X155865251Y-105049559D01*
X155831731Y-104991500D01*
X155819652Y-104934674D01*
X155843281Y-104881602D01*
X155893593Y-104852554D01*
X155913137Y-104850500D01*
X156239562Y-104850500D01*
X156315989Y-104830021D01*
X156384511Y-104790460D01*
X156440460Y-104734511D01*
X157140460Y-104034511D01*
X157157216Y-104005489D01*
X157180021Y-103965989D01*
X157200500Y-103889562D01*
X157200500Y-102065355D01*
X157202843Y-102058142D01*
X157201657Y-102050652D01*
X157211649Y-102031039D01*
X157218452Y-102010103D01*
X157228030Y-101998889D01*
X157248508Y-101978410D01*
X157300269Y-101952036D01*
X157357649Y-101961122D01*
X157398730Y-102002201D01*
X157401821Y-102008907D01*
X157403583Y-102013162D01*
X157469472Y-102127285D01*
X157469478Y-102127293D01*
X157562656Y-102220471D01*
X157562660Y-102220474D01*
X157562661Y-102220475D01*
X157676789Y-102286367D01*
X157719220Y-102297736D01*
X157804081Y-102320475D01*
X157804083Y-102320475D01*
X157935869Y-102320475D01*
X157999514Y-102303421D01*
X158063161Y-102286367D01*
X158177289Y-102220475D01*
X158249757Y-102148007D01*
X158301520Y-102121632D01*
X158316225Y-102120475D01*
X158333801Y-102120475D01*
X158410228Y-102099996D01*
X158478750Y-102060435D01*
X158534699Y-102004486D01*
X158591169Y-101948016D01*
X158642932Y-101921641D01*
X158657637Y-101920484D01*
X159366609Y-101920484D01*
X159373343Y-101922672D01*
X159380324Y-101921490D01*
X159399715Y-101931240D01*
X159421861Y-101938436D01*
X159432365Y-101947312D01*
X159432744Y-101947683D01*
X159457573Y-101972512D01*
X159513522Y-102028461D01*
X159517762Y-102030908D01*
X159525616Y-102038597D01*
X159525692Y-102038743D01*
X159526328Y-102039301D01*
X159827483Y-102340457D01*
X159827486Y-102340459D01*
X159827488Y-102340461D01*
X159896011Y-102380023D01*
X159972437Y-102400501D01*
X160090485Y-102400501D01*
X160090498Y-102400500D01*
X160970895Y-102400500D01*
X161026147Y-102418452D01*
X161037363Y-102428032D01*
X161101691Y-102492360D01*
X161280713Y-102671382D01*
X161336662Y-102727331D01*
X161405184Y-102766892D01*
X161481611Y-102787371D01*
X161560735Y-102787371D01*
X161705208Y-102787371D01*
X161760460Y-102805323D01*
X161771675Y-102814902D01*
X162041303Y-103084531D01*
X162041304Y-103084532D01*
X162097253Y-103140481D01*
X162165775Y-103180042D01*
X162242202Y-103200521D01*
X162736647Y-103200521D01*
X162791899Y-103218473D01*
X162826046Y-103265473D01*
X162827439Y-103270175D01*
X162831515Y-103285387D01*
X162833608Y-103293198D01*
X162899497Y-103407321D01*
X162899503Y-103407329D01*
X162992681Y-103500507D01*
X162992685Y-103500510D01*
X162992686Y-103500511D01*
X163106814Y-103566403D01*
X163143217Y-103576157D01*
X163234106Y-103600511D01*
X163234108Y-103600511D01*
X163365894Y-103600511D01*
X163429539Y-103583457D01*
X163493186Y-103566403D01*
X163607314Y-103500511D01*
X163700500Y-103407325D01*
X163766392Y-103293197D01*
X163766900Y-103291300D01*
X163767663Y-103290124D01*
X163768748Y-103287507D01*
X163769232Y-103287707D01*
X163798535Y-103242579D01*
X163852770Y-103221755D01*
X163908887Y-103236787D01*
X163924165Y-103249158D01*
X165059518Y-104384511D01*
X165115467Y-104440460D01*
X165183989Y-104480021D01*
X165260416Y-104500500D01*
X165339540Y-104500500D01*
X166955500Y-104500500D01*
X167010752Y-104518452D01*
X167044899Y-104565452D01*
X167049500Y-104594500D01*
X167049500Y-104959751D01*
X167061132Y-105018227D01*
X167061132Y-105018229D01*
X167061132Y-105018230D01*
X167061133Y-105018231D01*
X167105448Y-105084552D01*
X167171769Y-105128867D01*
X167230252Y-105140500D01*
X167230255Y-105140500D01*
X169769745Y-105140500D01*
X169769748Y-105140500D01*
X169828231Y-105128867D01*
X169894552Y-105084552D01*
X169938867Y-105018231D01*
X169950500Y-104959748D01*
X169950500Y-103420252D01*
X169938867Y-103361769D01*
X169894552Y-103295448D01*
X169828231Y-103251133D01*
X169828228Y-103251132D01*
X169769751Y-103239500D01*
X169769748Y-103239500D01*
X167230252Y-103239500D01*
X167230248Y-103239500D01*
X167171772Y-103251132D01*
X167171770Y-103251132D01*
X167105448Y-103295448D01*
X167061132Y-103361770D01*
X167061132Y-103361772D01*
X167049500Y-103420248D01*
X167049500Y-103805500D01*
X167031548Y-103860752D01*
X166984548Y-103894899D01*
X166955500Y-103899500D01*
X165463385Y-103899500D01*
X165408133Y-103881548D01*
X165396917Y-103871968D01*
X163841428Y-102316479D01*
X163815053Y-102264716D01*
X163824141Y-102207336D01*
X163841424Y-102183547D01*
X164046941Y-101978032D01*
X164098705Y-101951657D01*
X164113409Y-101950500D01*
X166955500Y-101950500D01*
X167010752Y-101968452D01*
X167044899Y-102015452D01*
X167049500Y-102044500D01*
X167049500Y-102419751D01*
X167061132Y-102478227D01*
X167061132Y-102478229D01*
X167061132Y-102478230D01*
X167061133Y-102478231D01*
X167105448Y-102544552D01*
X167171769Y-102588867D01*
X167230252Y-102600500D01*
X167230255Y-102600500D01*
X169769745Y-102600500D01*
X169769748Y-102600500D01*
X169828231Y-102588867D01*
X169894552Y-102544552D01*
X169938867Y-102478231D01*
X169950500Y-102419748D01*
X169950500Y-100880252D01*
X169938867Y-100821769D01*
X169894552Y-100755448D01*
X169828231Y-100711133D01*
X169828228Y-100711132D01*
X169769751Y-100699500D01*
X169769748Y-100699500D01*
X167230252Y-100699500D01*
X167230248Y-100699500D01*
X167171772Y-100711132D01*
X167171770Y-100711132D01*
X167105448Y-100755448D01*
X167061132Y-100821770D01*
X167061132Y-100821772D01*
X167049500Y-100880248D01*
X167049500Y-101255500D01*
X167031548Y-101310752D01*
X166984548Y-101344899D01*
X166955500Y-101349500D01*
X163910440Y-101349500D01*
X163834014Y-101369978D01*
X163834006Y-101369981D01*
X163809597Y-101384074D01*
X163752772Y-101396152D01*
X163699699Y-101372521D01*
X163671802Y-101326995D01*
X163667450Y-101310752D01*
X163666395Y-101306814D01*
X163600503Y-101192686D01*
X163600502Y-101192685D01*
X163600499Y-101192681D01*
X163507321Y-101099503D01*
X163507313Y-101099497D01*
X163393194Y-101033611D01*
X163393187Y-101033607D01*
X163265897Y-100999500D01*
X163265895Y-100999500D01*
X163134111Y-100999500D01*
X163134109Y-100999500D01*
X163006818Y-101033607D01*
X163006813Y-101033610D01*
X162971794Y-101053828D01*
X162914968Y-101065906D01*
X162861896Y-101042276D01*
X162843389Y-101019422D01*
X162840461Y-101014351D01*
X162840457Y-101014346D01*
X162542008Y-100715898D01*
X162515633Y-100664135D01*
X162524721Y-100606755D01*
X162542005Y-100582965D01*
X163686939Y-99438032D01*
X163738702Y-99411657D01*
X163753407Y-99410500D01*
X166000438Y-99410500D01*
X166955500Y-99410500D01*
X167010752Y-99428452D01*
X167044899Y-99475452D01*
X167049500Y-99504500D01*
X167049500Y-99879751D01*
X167061132Y-99938227D01*
X167061132Y-99938229D01*
X167061132Y-99938230D01*
X167061133Y-99938231D01*
X167105448Y-100004552D01*
X167171769Y-100048867D01*
X167230252Y-100060500D01*
X167230255Y-100060500D01*
X169769745Y-100060500D01*
X169769748Y-100060500D01*
X169828231Y-100048867D01*
X169894552Y-100004552D01*
X169938867Y-99938231D01*
X169950500Y-99879748D01*
X169950500Y-98340252D01*
X169938867Y-98281769D01*
X169894552Y-98215448D01*
X169828231Y-98171133D01*
X169828228Y-98171132D01*
X169769751Y-98159500D01*
X169769748Y-98159500D01*
X167230252Y-98159500D01*
X167230248Y-98159500D01*
X167171772Y-98171132D01*
X167171770Y-98171132D01*
X167105448Y-98215448D01*
X167061132Y-98281770D01*
X167061132Y-98281772D01*
X167049500Y-98340248D01*
X167049500Y-98715500D01*
X167031548Y-98770752D01*
X166984548Y-98804899D01*
X166955500Y-98809500D01*
X163550438Y-98809500D01*
X163474012Y-98829978D01*
X163405487Y-98869541D01*
X163405484Y-98869543D01*
X162183107Y-100091922D01*
X162131344Y-100118297D01*
X162116639Y-100119454D01*
X158463353Y-100119454D01*
X158408101Y-100101502D01*
X158373954Y-100054502D01*
X158372560Y-100049799D01*
X158366392Y-100026778D01*
X158300500Y-99912650D01*
X158300499Y-99912649D01*
X158300496Y-99912645D01*
X158207318Y-99819467D01*
X158207310Y-99819461D01*
X158093191Y-99753575D01*
X158093184Y-99753571D01*
X157965894Y-99719464D01*
X157965892Y-99719464D01*
X157834108Y-99719464D01*
X157834106Y-99719464D01*
X157706815Y-99753571D01*
X157706808Y-99753575D01*
X157592689Y-99819461D01*
X157592681Y-99819467D01*
X157499503Y-99912645D01*
X157499497Y-99912653D01*
X157433611Y-100026772D01*
X157433607Y-100026779D01*
X157399500Y-100154070D01*
X157399500Y-100285857D01*
X157432047Y-100407323D01*
X157429007Y-100465338D01*
X157392446Y-100510487D01*
X157365581Y-100522449D01*
X157317339Y-100535376D01*
X157300296Y-100539943D01*
X157300295Y-100539943D01*
X157300293Y-100539944D01*
X157300289Y-100539946D01*
X157282011Y-100550498D01*
X157282012Y-100550499D01*
X157231775Y-100579503D01*
X157231770Y-100579507D01*
X156259529Y-101551748D01*
X156219971Y-101620266D01*
X156219969Y-101620270D01*
X156199490Y-101696696D01*
X156199490Y-103520905D01*
X156181538Y-103576157D01*
X156171958Y-103587373D01*
X155937373Y-103821958D01*
X155885610Y-103848333D01*
X155870905Y-103849490D01*
X153661918Y-103849490D01*
X153585490Y-103869969D01*
X153585484Y-103869972D01*
X153551555Y-103889560D01*
X153551556Y-103889561D01*
X153516971Y-103909529D01*
X153516965Y-103909533D01*
X152169347Y-105257151D01*
X152117584Y-105283526D01*
X152060204Y-105274438D01*
X152036411Y-105257151D01*
X151685593Y-104906333D01*
X151673739Y-104899489D01*
X151617071Y-104866772D01*
X151540644Y-104846293D01*
X151004115Y-104846293D01*
X150924991Y-104846293D01*
X150848565Y-104866771D01*
X150780040Y-104906334D01*
X150780037Y-104906336D01*
X150468042Y-105218333D01*
X150412092Y-105274282D01*
X150372534Y-105342800D01*
X150372532Y-105342804D01*
X150352053Y-105419230D01*
X150352053Y-106284040D01*
X150349709Y-106291253D01*
X150350896Y-106298745D01*
X150340903Y-106318357D01*
X150334101Y-106339292D01*
X150324521Y-106350508D01*
X150196061Y-106478968D01*
X150144298Y-106505343D01*
X150129593Y-106506500D01*
X150103250Y-106506500D01*
X150047998Y-106488548D01*
X150036782Y-106478968D01*
X149964317Y-106406502D01*
X149964310Y-106406497D01*
X149850191Y-106340611D01*
X149850184Y-106340607D01*
X149722894Y-106306500D01*
X149722892Y-106306500D01*
X149591108Y-106306500D01*
X149591106Y-106306500D01*
X149463815Y-106340607D01*
X149463808Y-106340611D01*
X149349689Y-106406497D01*
X149349681Y-106406503D01*
X149256503Y-106499681D01*
X149256497Y-106499689D01*
X149190611Y-106613808D01*
X149190607Y-106613815D01*
X149156500Y-106741106D01*
X130525500Y-106741106D01*
X130525500Y-104984786D01*
X142950001Y-104984786D01*
X142950002Y-104984805D01*
X142952908Y-105009872D01*
X142998212Y-105112477D01*
X143077522Y-105191787D01*
X143180123Y-105237089D01*
X143205207Y-105239999D01*
X144200000Y-105239999D01*
X144800000Y-105239999D01*
X145794787Y-105239999D01*
X145794805Y-105239997D01*
X145819872Y-105237091D01*
X145922477Y-105191787D01*
X146001787Y-105112477D01*
X146047089Y-105009876D01*
X146049999Y-104984793D01*
X146050000Y-104984791D01*
X146050000Y-104490000D01*
X144800000Y-104490000D01*
X144800000Y-105239999D01*
X144200000Y-105239999D01*
X144200000Y-104490000D01*
X142950001Y-104490000D01*
X142950001Y-104984786D01*
X130525500Y-104984786D01*
X130525500Y-103395206D01*
X142950000Y-103395206D01*
X142950000Y-103890000D01*
X144200000Y-103890000D01*
X144800000Y-103890000D01*
X146049999Y-103890000D01*
X146049999Y-103395213D01*
X146049997Y-103395194D01*
X146047091Y-103370127D01*
X146001787Y-103267522D01*
X145922477Y-103188212D01*
X145819876Y-103142910D01*
X145794793Y-103140000D01*
X144800000Y-103140000D01*
X144800000Y-103890000D01*
X144200000Y-103890000D01*
X144200000Y-103140000D01*
X143205213Y-103140000D01*
X143205194Y-103140002D01*
X143180127Y-103142908D01*
X143077522Y-103188212D01*
X142998212Y-103267522D01*
X142952910Y-103370123D01*
X142950000Y-103395206D01*
X130525500Y-103395206D01*
X130525500Y-102444786D01*
X142950001Y-102444786D01*
X142950002Y-102444805D01*
X142952908Y-102469872D01*
X142998212Y-102572477D01*
X143077522Y-102651787D01*
X143180123Y-102697089D01*
X143205207Y-102699999D01*
X144200000Y-102699999D01*
X144800000Y-102699999D01*
X145794787Y-102699999D01*
X145794805Y-102699997D01*
X145819872Y-102697091D01*
X145922477Y-102651787D01*
X146001787Y-102572477D01*
X146047089Y-102469876D01*
X146049999Y-102444793D01*
X146050000Y-102444791D01*
X146050000Y-101950000D01*
X144800000Y-101950000D01*
X144800000Y-102699999D01*
X144200000Y-102699999D01*
X144200000Y-101950000D01*
X142950001Y-101950000D01*
X142950001Y-102444786D01*
X130525500Y-102444786D01*
X130525500Y-100855206D01*
X142950000Y-100855206D01*
X142950000Y-101350000D01*
X144200000Y-101350000D01*
X144800000Y-101350000D01*
X146049999Y-101350000D01*
X146049999Y-100855213D01*
X146049997Y-100855194D01*
X146047091Y-100830127D01*
X146001787Y-100727522D01*
X145922477Y-100648212D01*
X145819876Y-100602910D01*
X145794793Y-100600000D01*
X144800000Y-100600000D01*
X144800000Y-101350000D01*
X144200000Y-101350000D01*
X144200000Y-100600000D01*
X143205213Y-100600000D01*
X143205194Y-100600002D01*
X143180127Y-100602908D01*
X143077522Y-100648212D01*
X142998212Y-100727522D01*
X142952910Y-100830123D01*
X142950000Y-100855206D01*
X130525500Y-100855206D01*
X130525500Y-95800248D01*
X143049500Y-95800248D01*
X143049500Y-97339751D01*
X143061132Y-97398227D01*
X143061132Y-97398229D01*
X143061132Y-97398230D01*
X143061133Y-97398231D01*
X143105448Y-97464552D01*
X143171769Y-97508867D01*
X143230252Y-97520500D01*
X143230255Y-97520500D01*
X145769745Y-97520500D01*
X145769748Y-97520500D01*
X145828231Y-97508867D01*
X145894552Y-97464552D01*
X145938867Y-97398231D01*
X145950500Y-97339748D01*
X145950500Y-96964500D01*
X145968452Y-96909248D01*
X146015452Y-96875101D01*
X146044500Y-96870500D01*
X146606593Y-96870500D01*
X146613806Y-96872843D01*
X146621298Y-96871657D01*
X146640910Y-96881649D01*
X146661845Y-96888452D01*
X146673061Y-96898032D01*
X146771968Y-96996939D01*
X146798343Y-97048702D01*
X146799500Y-97063407D01*
X146799500Y-98605684D01*
X146781548Y-98660936D01*
X146734548Y-98695083D01*
X146676452Y-98695083D01*
X146658502Y-98687092D01*
X146583186Y-98643608D01*
X146583184Y-98643607D01*
X146455894Y-98609500D01*
X146455892Y-98609500D01*
X146324108Y-98609500D01*
X146324106Y-98609500D01*
X146196815Y-98643607D01*
X146196814Y-98643608D01*
X146091500Y-98704411D01*
X146034674Y-98716489D01*
X145981601Y-98692859D01*
X145952554Y-98642547D01*
X145950500Y-98623004D01*
X145950500Y-98340254D01*
X145950499Y-98340248D01*
X145938867Y-98281769D01*
X145894552Y-98215448D01*
X145828231Y-98171133D01*
X145828228Y-98171132D01*
X145769751Y-98159500D01*
X145769748Y-98159500D01*
X143230252Y-98159500D01*
X143230248Y-98159500D01*
X143171772Y-98171132D01*
X143171770Y-98171132D01*
X143105448Y-98215448D01*
X143061132Y-98281770D01*
X143061132Y-98281772D01*
X143049500Y-98340248D01*
X143049500Y-99879751D01*
X143061132Y-99938227D01*
X143061132Y-99938229D01*
X143061132Y-99938230D01*
X143061133Y-99938231D01*
X143105448Y-100004552D01*
X143171769Y-100048867D01*
X143230252Y-100060500D01*
X143230255Y-100060500D01*
X145769745Y-100060500D01*
X145769748Y-100060500D01*
X145828231Y-100048867D01*
X145894552Y-100004552D01*
X145938867Y-99938231D01*
X145950500Y-99879748D01*
X145950500Y-99596995D01*
X145968452Y-99541743D01*
X146015452Y-99507596D01*
X146073548Y-99507596D01*
X146091501Y-99515589D01*
X146196814Y-99576392D01*
X146239245Y-99587761D01*
X146324106Y-99610500D01*
X146324108Y-99610500D01*
X146455894Y-99610500D01*
X146519539Y-99593446D01*
X146583186Y-99576392D01*
X146658501Y-99532908D01*
X146715325Y-99520830D01*
X146768398Y-99544459D01*
X146797446Y-99594771D01*
X146799500Y-99614315D01*
X146799500Y-99639562D01*
X146819979Y-99715989D01*
X146835329Y-99742577D01*
X146859539Y-99784510D01*
X148515484Y-101440456D01*
X148515487Y-101440458D01*
X148515489Y-101440460D01*
X148584012Y-101480022D01*
X148660438Y-101500500D01*
X148739562Y-101500500D01*
X150553750Y-101500500D01*
X150609002Y-101518452D01*
X150620218Y-101528032D01*
X150692682Y-101600497D01*
X150692685Y-101600499D01*
X150692686Y-101600500D01*
X150806814Y-101666392D01*
X150849245Y-101677761D01*
X150934106Y-101700500D01*
X150934108Y-101700500D01*
X151065894Y-101700500D01*
X151129539Y-101683446D01*
X151193186Y-101666392D01*
X151307314Y-101600500D01*
X151400500Y-101507314D01*
X151466392Y-101393186D01*
X151500500Y-101265892D01*
X151500500Y-101134108D01*
X151500500Y-101134106D01*
X151469770Y-101019422D01*
X151466392Y-101006814D01*
X151400500Y-100892686D01*
X151400499Y-100892685D01*
X151400496Y-100892681D01*
X151307318Y-100799503D01*
X151307310Y-100799497D01*
X151193191Y-100733611D01*
X151193184Y-100733607D01*
X151065894Y-100699500D01*
X151065892Y-100699500D01*
X150934108Y-100699500D01*
X150934106Y-100699500D01*
X150806815Y-100733607D01*
X150806808Y-100733611D01*
X150692689Y-100799497D01*
X150692682Y-100799502D01*
X150620218Y-100871968D01*
X150568455Y-100898343D01*
X150553750Y-100899500D01*
X148863407Y-100899500D01*
X148808155Y-100881548D01*
X148796939Y-100871968D01*
X147428032Y-99503061D01*
X147401657Y-99451298D01*
X147400500Y-99436593D01*
X147400500Y-96860437D01*
X147387108Y-96810460D01*
X147380021Y-96784011D01*
X147340460Y-96715489D01*
X147284511Y-96659540D01*
X146954511Y-96329540D01*
X146954508Y-96329538D01*
X146931040Y-96315988D01*
X146931038Y-96315988D01*
X146885989Y-96289979D01*
X146809562Y-96269500D01*
X146044500Y-96269500D01*
X145989248Y-96251548D01*
X145955101Y-96204548D01*
X145950500Y-96175500D01*
X145950500Y-95800254D01*
X145950499Y-95800248D01*
X145945177Y-95773492D01*
X145938867Y-95741769D01*
X145894552Y-95675448D01*
X145828231Y-95631133D01*
X145828228Y-95631132D01*
X145769751Y-95619500D01*
X145769748Y-95619500D01*
X143230252Y-95619500D01*
X143230248Y-95619500D01*
X143171772Y-95631132D01*
X143171770Y-95631132D01*
X143105448Y-95675448D01*
X143061132Y-95741770D01*
X143061132Y-95741772D01*
X143049500Y-95800248D01*
X130525500Y-95800248D01*
X130525500Y-87820248D01*
X133699500Y-87820248D01*
X133699500Y-89459751D01*
X133711132Y-89518227D01*
X133711132Y-89518229D01*
X133711132Y-89518230D01*
X133711133Y-89518231D01*
X133755448Y-89584552D01*
X133821769Y-89628867D01*
X133880252Y-89640500D01*
X133880255Y-89640500D01*
X135519745Y-89640500D01*
X135519748Y-89640500D01*
X135578231Y-89628867D01*
X135644552Y-89584552D01*
X135688867Y-89518231D01*
X135700500Y-89459748D01*
X135700500Y-88541457D01*
X136899500Y-88541457D01*
X136899500Y-88738542D01*
X136937949Y-88931835D01*
X137013368Y-89113914D01*
X137118991Y-89271991D01*
X137122861Y-89277782D01*
X137262218Y-89417139D01*
X137426086Y-89526632D01*
X137608165Y-89602051D01*
X137801459Y-89640500D01*
X137801462Y-89640500D01*
X137998538Y-89640500D01*
X137998541Y-89640500D01*
X138191835Y-89602051D01*
X138373914Y-89526632D01*
X138537782Y-89417139D01*
X138677139Y-89277782D01*
X138786632Y-89113914D01*
X138862051Y-88931835D01*
X138900500Y-88738541D01*
X138900500Y-88541459D01*
X138880264Y-88439725D01*
X138873051Y-88403463D01*
X138870072Y-88388487D01*
X142944500Y-88388487D01*
X142944500Y-92853514D01*
X142951480Y-92918430D01*
X142951482Y-92918445D01*
X142962864Y-92970769D01*
X142962867Y-92970780D01*
X142973824Y-93008987D01*
X142973826Y-93008991D01*
X143030501Y-93105897D01*
X143040796Y-93117779D01*
X143063409Y-93171293D01*
X143061947Y-93197670D01*
X143049500Y-93260245D01*
X143049500Y-94799751D01*
X143061132Y-94858227D01*
X143061132Y-94858229D01*
X143061132Y-94858230D01*
X143061133Y-94858231D01*
X143105448Y-94924552D01*
X143171769Y-94968867D01*
X143230252Y-94980500D01*
X143230255Y-94980500D01*
X145769745Y-94980500D01*
X145769748Y-94980500D01*
X145828231Y-94968867D01*
X145894552Y-94924552D01*
X145938867Y-94858231D01*
X145950500Y-94799748D01*
X145950500Y-93260252D01*
X145947224Y-93243783D01*
X145954052Y-93186092D01*
X145977872Y-93154396D01*
X145980057Y-93152503D01*
X146022238Y-93107767D01*
X146073123Y-93007690D01*
X146093125Y-92939569D01*
X146105500Y-92853500D01*
X146105500Y-88388482D01*
X146105499Y-88388473D01*
X146105499Y-88388467D01*
X146101166Y-88348165D01*
X146098519Y-88323545D01*
X146087133Y-88271203D01*
X146076175Y-88232994D01*
X146060095Y-88205500D01*
X146019498Y-88136084D01*
X146019497Y-88136083D01*
X146019496Y-88136081D01*
X145973003Y-88082425D01*
X145972996Y-88082419D01*
X145972991Y-88082413D01*
X145928269Y-88040246D01*
X145928267Y-88040244D01*
X145828190Y-87989359D01*
X145828185Y-87989357D01*
X145828186Y-87989357D01*
X145760081Y-87969360D01*
X145760075Y-87969358D01*
X145760069Y-87969357D01*
X145717034Y-87963169D01*
X145674008Y-87956983D01*
X145674005Y-87956982D01*
X145674000Y-87956982D01*
X143376000Y-87956982D01*
X143375985Y-87956982D01*
X143311069Y-87963962D01*
X143311054Y-87963964D01*
X143258730Y-87975346D01*
X143258719Y-87975349D01*
X143220516Y-87986305D01*
X143220505Y-87986310D01*
X143194929Y-88001267D01*
X143181303Y-88009235D01*
X143171769Y-88011133D01*
X143127618Y-88040632D01*
X143125187Y-88042055D01*
X143125173Y-88042065D01*
X143123594Y-88042988D01*
X143120072Y-88045512D01*
X143120015Y-88045433D01*
X143117031Y-88047708D01*
X143105446Y-88055449D01*
X143100427Y-88060468D01*
X143090701Y-88071491D01*
X143069937Y-88089484D01*
X143027764Y-88134212D01*
X143027763Y-88134213D01*
X143027762Y-88134215D01*
X142995156Y-88198343D01*
X142976875Y-88234296D01*
X142956878Y-88302400D01*
X142956874Y-88302420D01*
X142944501Y-88388473D01*
X142944500Y-88388487D01*
X138870072Y-88388487D01*
X138869135Y-88383776D01*
X138862051Y-88348165D01*
X138786632Y-88166086D01*
X138677139Y-88002218D01*
X138537782Y-87862861D01*
X138441855Y-87798765D01*
X138373914Y-87753368D01*
X138191835Y-87677949D01*
X137998542Y-87639500D01*
X137998541Y-87639500D01*
X137801459Y-87639500D01*
X137801457Y-87639500D01*
X137608164Y-87677949D01*
X137426085Y-87753368D01*
X137262218Y-87862860D01*
X137122860Y-88002218D01*
X137013368Y-88166085D01*
X136937949Y-88348164D01*
X136899500Y-88541457D01*
X135700500Y-88541457D01*
X135700500Y-87820252D01*
X135688867Y-87761769D01*
X135644552Y-87695448D01*
X135578231Y-87651133D01*
X135578228Y-87651132D01*
X135519751Y-87639500D01*
X135519748Y-87639500D01*
X133880252Y-87639500D01*
X133880248Y-87639500D01*
X133821772Y-87651132D01*
X133821770Y-87651132D01*
X133755448Y-87695448D01*
X133711132Y-87761770D01*
X133711132Y-87761772D01*
X133699500Y-87820248D01*
X130525500Y-87820248D01*
X130525500Y-87204786D01*
X142950001Y-87204786D01*
X142950002Y-87204805D01*
X142952908Y-87229872D01*
X142998212Y-87332477D01*
X143077522Y-87411787D01*
X143180123Y-87457089D01*
X143205207Y-87459999D01*
X144200000Y-87459999D01*
X144800000Y-87459999D01*
X145794787Y-87459999D01*
X145794805Y-87459997D01*
X145819872Y-87457091D01*
X145922477Y-87411787D01*
X146001787Y-87332477D01*
X146047089Y-87229876D01*
X146049999Y-87204793D01*
X146050000Y-87204791D01*
X146050000Y-86710000D01*
X144800000Y-86710000D01*
X144800000Y-87459999D01*
X144200000Y-87459999D01*
X144200000Y-86710000D01*
X142950001Y-86710000D01*
X142950001Y-87204786D01*
X130525500Y-87204786D01*
X130525500Y-85615206D01*
X142950000Y-85615206D01*
X142950000Y-86110000D01*
X144200000Y-86110000D01*
X144800000Y-86110000D01*
X146049999Y-86110000D01*
X146049999Y-85615213D01*
X146049997Y-85615194D01*
X146047091Y-85590127D01*
X146001787Y-85487522D01*
X145922477Y-85408212D01*
X145819876Y-85362910D01*
X145794793Y-85360000D01*
X144800000Y-85360000D01*
X144800000Y-86110000D01*
X144200000Y-86110000D01*
X144200000Y-85360000D01*
X143205213Y-85360000D01*
X143205194Y-85360002D01*
X143180127Y-85362908D01*
X143077522Y-85408212D01*
X142998212Y-85487522D01*
X142952910Y-85590123D01*
X142950000Y-85615206D01*
X130525500Y-85615206D01*
X130525500Y-85089368D01*
X130543452Y-85034116D01*
X130590452Y-84999969D01*
X130619802Y-84995369D01*
X148605798Y-85054276D01*
G37*
%TD.AperFunction*%
%TD*%
%TA.AperFunction,Conductor*%
%TO.N,+5V*%
G36*
X145742121Y-88282484D02*
G01*
X145788614Y-88336140D01*
X145800000Y-88388482D01*
X145800000Y-92853500D01*
X145779998Y-92921621D01*
X145726342Y-92968114D01*
X145674000Y-92979500D01*
X143376000Y-92979500D01*
X143307879Y-92959498D01*
X143261386Y-92905842D01*
X143250000Y-92853500D01*
X143250000Y-88388482D01*
X143270002Y-88320361D01*
X143323658Y-88273868D01*
X143376000Y-88262482D01*
X145674000Y-88262482D01*
X145742121Y-88282484D01*
G37*
%TD.AperFunction*%
%TD*%
M02*
