%TF.GenerationSoftware,KiCad,Pcbnew,9.0.4*%
%TF.CreationDate,2025-09-20T18:39:02+03:00*%
%TF.ProjectId,HydraX-Meshtastic-PCB,48796472-6158-42d4-9d65-736874617374,2.1*%
%TF.SameCoordinates,Original*%
%TF.FileFunction,Legend,Top*%
%TF.FilePolarity,Positive*%
%FSLAX46Y46*%
G04 Gerber Fmt 4.6, Leading zero omitted, Abs format (unit mm)*
G04 Created by KiCad (PCBNEW 9.0.4) date 2025-09-20 18:39:02*
%MOMM*%
%LPD*%
G01*
G04 APERTURE LIST*
G04 Aperture macros list*
%AMRoundRect*
0 Rectangle with rounded corners*
0 $1 Rounding radius*
0 $2 $3 $4 $5 $6 $7 $8 $9 X,Y pos of 4 corners*
0 Add a 4 corners polygon primitive as box body*
4,1,4,$2,$3,$4,$5,$6,$7,$8,$9,$2,$3,0*
0 Add four circle primitives for the rounded corners*
1,1,$1+$1,$2,$3*
1,1,$1+$1,$4,$5*
1,1,$1+$1,$6,$7*
1,1,$1+$1,$8,$9*
0 Add four rect primitives between the rounded corners*
20,1,$1+$1,$2,$3,$4,$5,0*
20,1,$1+$1,$4,$5,$6,$7,0*
20,1,$1+$1,$6,$7,$8,$9,0*
20,1,$1+$1,$8,$9,$2,$3,0*%
G04 Aperture macros list end*
%ADD10C,0.200000*%
%ADD11C,0.150000*%
%ADD12C,0.120000*%
%ADD13C,0.010000*%
%ADD14RoundRect,0.150000X0.587500X0.150000X-0.587500X0.150000X-0.587500X-0.150000X0.587500X-0.150000X0*%
%ADD15RoundRect,0.200000X-0.275000X0.200000X-0.275000X-0.200000X0.275000X-0.200000X0.275000X0.200000X0*%
%ADD16RoundRect,0.150000X-0.825000X-0.150000X0.825000X-0.150000X0.825000X0.150000X-0.825000X0.150000X0*%
%ADD17RoundRect,0.225000X-0.250000X0.225000X-0.250000X-0.225000X0.250000X-0.225000X0.250000X0.225000X0*%
%ADD18R,1.500000X2.500000*%
%ADD19RoundRect,0.225000X0.250000X-0.225000X0.250000X0.225000X-0.250000X0.225000X-0.250000X-0.225000X0*%
%ADD20RoundRect,0.200000X0.275000X-0.200000X0.275000X0.200000X-0.275000X0.200000X-0.275000X-0.200000X0*%
%ADD21RoundRect,0.237500X-0.300000X-0.237500X0.300000X-0.237500X0.300000X0.237500X-0.300000X0.237500X0*%
%ADD22RoundRect,0.200000X-0.200000X-0.275000X0.200000X-0.275000X0.200000X0.275000X-0.200000X0.275000X0*%
%ADD23RoundRect,0.200000X0.200000X0.275000X-0.200000X0.275000X-0.200000X-0.275000X0.200000X-0.275000X0*%
%ADD24RoundRect,0.225000X-0.225000X-0.250000X0.225000X-0.250000X0.225000X0.250000X-0.225000X0.250000X0*%
%ADD25C,0.700000*%
%ADD26C,4.400000*%
%ADD27RoundRect,0.225000X0.225000X0.250000X-0.225000X0.250000X-0.225000X-0.250000X0.225000X-0.250000X0*%
%ADD28C,0.800000*%
%ADD29C,5.400000*%
%ADD30R,1.000000X1.000000*%
%ADD31R,2.200000X1.050000*%
%ADD32R,1.500000X0.900000*%
%ADD33R,0.900000X1.500000*%
%ADD34C,0.600000*%
%ADD35R,3.800000X3.800000*%
%ADD36RoundRect,0.150000X0.150000X-0.587500X0.150000X0.587500X-0.150000X0.587500X-0.150000X-0.587500X0*%
%ADD37C,1.000000*%
%ADD38RoundRect,0.150000X0.150000X-0.512500X0.150000X0.512500X-0.150000X0.512500X-0.150000X-0.512500X0*%
%ADD39R,1.600000X1.600000*%
%ADD40C,1.600000*%
%ADD41RoundRect,0.250000X0.850000X0.350000X-0.850000X0.350000X-0.850000X-0.350000X0.850000X-0.350000X0*%
%ADD42RoundRect,0.249997X2.950003X2.650003X-2.950003X2.650003X-2.950003X-2.650003X2.950003X-2.650003X0*%
%ADD43RoundRect,0.150000X-0.150000X0.587500X-0.150000X-0.587500X0.150000X-0.587500X0.150000X0.587500X0*%
%ADD44RoundRect,0.250000X-1.050000X-0.550000X1.050000X-0.550000X1.050000X0.550000X-1.050000X0.550000X0*%
%ADD45R,1.700000X1.700000*%
%ADD46C,1.700000*%
%ADD47R,3.500000X3.500000*%
%ADD48RoundRect,0.750000X1.000000X-0.750000X1.000000X0.750000X-1.000000X0.750000X-1.000000X-0.750000X0*%
%ADD49RoundRect,0.875000X0.875000X-0.875000X0.875000X0.875000X-0.875000X0.875000X-0.875000X-0.875000X0*%
G04 APERTURE END LIST*
D10*
X168845400Y-91477141D02*
X168797780Y-91381903D01*
X168797780Y-91381903D02*
X168797780Y-91191427D01*
X168797780Y-91191427D02*
X168845400Y-91096189D01*
X168845400Y-91096189D02*
X168893019Y-91048570D01*
X168893019Y-91048570D02*
X168988257Y-91000951D01*
X168988257Y-91000951D02*
X169273971Y-91000951D01*
X169273971Y-91000951D02*
X169369209Y-91048570D01*
X169369209Y-91048570D02*
X169416828Y-91096189D01*
X169416828Y-91096189D02*
X169464447Y-91191427D01*
X169464447Y-91191427D02*
X169464447Y-91381903D01*
X169464447Y-91381903D02*
X169416828Y-91477141D01*
X168797780Y-92048570D02*
X168845400Y-91953332D01*
X168845400Y-91953332D02*
X168893019Y-91905713D01*
X168893019Y-91905713D02*
X168988257Y-91858094D01*
X168988257Y-91858094D02*
X169273971Y-91858094D01*
X169273971Y-91858094D02*
X169369209Y-91905713D01*
X169369209Y-91905713D02*
X169416828Y-91953332D01*
X169416828Y-91953332D02*
X169464447Y-92048570D01*
X169464447Y-92048570D02*
X169464447Y-92191427D01*
X169464447Y-92191427D02*
X169416828Y-92286665D01*
X169416828Y-92286665D02*
X169369209Y-92334284D01*
X169369209Y-92334284D02*
X169273971Y-92381903D01*
X169273971Y-92381903D02*
X168988257Y-92381903D01*
X168988257Y-92381903D02*
X168893019Y-92334284D01*
X168893019Y-92334284D02*
X168845400Y-92286665D01*
X168845400Y-92286665D02*
X168797780Y-92191427D01*
X168797780Y-92191427D02*
X168797780Y-92048570D01*
X168797780Y-92810475D02*
X169464447Y-92810475D01*
X169273971Y-92810475D02*
X169369209Y-92858094D01*
X169369209Y-92858094D02*
X169416828Y-92905713D01*
X169416828Y-92905713D02*
X169464447Y-93000951D01*
X169464447Y-93000951D02*
X169464447Y-93096189D01*
X168845400Y-93810475D02*
X168797780Y-93715237D01*
X168797780Y-93715237D02*
X168797780Y-93524761D01*
X168797780Y-93524761D02*
X168845400Y-93429523D01*
X168845400Y-93429523D02*
X168940638Y-93381904D01*
X168940638Y-93381904D02*
X169321590Y-93381904D01*
X169321590Y-93381904D02*
X169416828Y-93429523D01*
X169416828Y-93429523D02*
X169464447Y-93524761D01*
X169464447Y-93524761D02*
X169464447Y-93715237D01*
X169464447Y-93715237D02*
X169416828Y-93810475D01*
X169416828Y-93810475D02*
X169321590Y-93858094D01*
X169321590Y-93858094D02*
X169226352Y-93858094D01*
X169226352Y-93858094D02*
X169131114Y-93381904D01*
X169464447Y-95048571D02*
X168464447Y-95048571D01*
X169416828Y-95048571D02*
X169464447Y-95143809D01*
X169464447Y-95143809D02*
X169464447Y-95334285D01*
X169464447Y-95334285D02*
X169416828Y-95429523D01*
X169416828Y-95429523D02*
X169369209Y-95477142D01*
X169369209Y-95477142D02*
X169273971Y-95524761D01*
X169273971Y-95524761D02*
X168988257Y-95524761D01*
X168988257Y-95524761D02*
X168893019Y-95477142D01*
X168893019Y-95477142D02*
X168845400Y-95429523D01*
X168845400Y-95429523D02*
X168797780Y-95334285D01*
X168797780Y-95334285D02*
X168797780Y-95143809D01*
X168797780Y-95143809D02*
X168845400Y-95048571D01*
X168845400Y-96381904D02*
X168797780Y-96286666D01*
X168797780Y-96286666D02*
X168797780Y-96096190D01*
X168797780Y-96096190D02*
X168845400Y-96000952D01*
X168845400Y-96000952D02*
X168893019Y-95953333D01*
X168893019Y-95953333D02*
X168988257Y-95905714D01*
X168988257Y-95905714D02*
X169273971Y-95905714D01*
X169273971Y-95905714D02*
X169369209Y-95953333D01*
X169369209Y-95953333D02*
X169416828Y-96000952D01*
X169416828Y-96000952D02*
X169464447Y-96096190D01*
X169464447Y-96096190D02*
X169464447Y-96286666D01*
X169464447Y-96286666D02*
X169416828Y-96381904D01*
X168797780Y-96810476D02*
X169797780Y-96810476D01*
X169416828Y-96810476D02*
X169464447Y-96905714D01*
X169464447Y-96905714D02*
X169464447Y-97096190D01*
X169464447Y-97096190D02*
X169416828Y-97191428D01*
X169416828Y-97191428D02*
X169369209Y-97239047D01*
X169369209Y-97239047D02*
X169273971Y-97286666D01*
X169273971Y-97286666D02*
X168988257Y-97286666D01*
X168988257Y-97286666D02*
X168893019Y-97239047D01*
X168893019Y-97239047D02*
X168845400Y-97191428D01*
X168845400Y-97191428D02*
X168797780Y-97096190D01*
X168797780Y-97096190D02*
X168797780Y-96905714D01*
X168797780Y-96905714D02*
X168845400Y-96810476D01*
X169797780Y-98334286D02*
X168797780Y-98667619D01*
X168797780Y-98667619D02*
X169797780Y-99000952D01*
X169702542Y-99286667D02*
X169750161Y-99334286D01*
X169750161Y-99334286D02*
X169797780Y-99429524D01*
X169797780Y-99429524D02*
X169797780Y-99667619D01*
X169797780Y-99667619D02*
X169750161Y-99762857D01*
X169750161Y-99762857D02*
X169702542Y-99810476D01*
X169702542Y-99810476D02*
X169607304Y-99858095D01*
X169607304Y-99858095D02*
X169512066Y-99858095D01*
X169512066Y-99858095D02*
X169369209Y-99810476D01*
X169369209Y-99810476D02*
X168797780Y-99239048D01*
X168797780Y-99239048D02*
X168797780Y-99858095D01*
X168893019Y-100286667D02*
X168845400Y-100334286D01*
X168845400Y-100334286D02*
X168797780Y-100286667D01*
X168797780Y-100286667D02*
X168845400Y-100239048D01*
X168845400Y-100239048D02*
X168893019Y-100286667D01*
X168893019Y-100286667D02*
X168797780Y-100286667D01*
X168797780Y-101286666D02*
X168797780Y-100715238D01*
X168797780Y-101000952D02*
X169797780Y-101000952D01*
X169797780Y-101000952D02*
X169654923Y-100905714D01*
X169654923Y-100905714D02*
X169559685Y-100810476D01*
X169559685Y-100810476D02*
X169512066Y-100715238D01*
X168416828Y-102762857D02*
X168464447Y-102715238D01*
X168464447Y-102715238D02*
X168607304Y-102620000D01*
X168607304Y-102620000D02*
X168702542Y-102572381D01*
X168702542Y-102572381D02*
X168845400Y-102524762D01*
X168845400Y-102524762D02*
X169083495Y-102477143D01*
X169083495Y-102477143D02*
X169273971Y-102477143D01*
X169273971Y-102477143D02*
X169512066Y-102524762D01*
X169512066Y-102524762D02*
X169654923Y-102572381D01*
X169654923Y-102572381D02*
X169750161Y-102620000D01*
X169750161Y-102620000D02*
X169893019Y-102715238D01*
X169893019Y-102715238D02*
X169940638Y-102762857D01*
X169273971Y-103334286D02*
X168797780Y-103334286D01*
X169797780Y-103000953D02*
X169273971Y-103334286D01*
X169273971Y-103334286D02*
X169797780Y-103667619D01*
X168416828Y-103905715D02*
X168464447Y-103953334D01*
X168464447Y-103953334D02*
X168607304Y-104048572D01*
X168607304Y-104048572D02*
X168702542Y-104096191D01*
X168702542Y-104096191D02*
X168845400Y-104143810D01*
X168845400Y-104143810D02*
X169083495Y-104191429D01*
X169083495Y-104191429D02*
X169273971Y-104191429D01*
X169273971Y-104191429D02*
X169512066Y-104143810D01*
X169512066Y-104143810D02*
X169654923Y-104096191D01*
X169654923Y-104096191D02*
X169750161Y-104048572D01*
X169750161Y-104048572D02*
X169893019Y-103953334D01*
X169893019Y-103953334D02*
X169940638Y-103905715D01*
D11*
X164824761Y-105810057D02*
X164729523Y-105762438D01*
X164729523Y-105762438D02*
X164634285Y-105667200D01*
X164634285Y-105667200D02*
X164491428Y-105524342D01*
X164491428Y-105524342D02*
X164396190Y-105476723D01*
X164396190Y-105476723D02*
X164300952Y-105476723D01*
X164348571Y-105714819D02*
X164253333Y-105667200D01*
X164253333Y-105667200D02*
X164158095Y-105571961D01*
X164158095Y-105571961D02*
X164110476Y-105381485D01*
X164110476Y-105381485D02*
X164110476Y-105048152D01*
X164110476Y-105048152D02*
X164158095Y-104857676D01*
X164158095Y-104857676D02*
X164253333Y-104762438D01*
X164253333Y-104762438D02*
X164348571Y-104714819D01*
X164348571Y-104714819D02*
X164539047Y-104714819D01*
X164539047Y-104714819D02*
X164634285Y-104762438D01*
X164634285Y-104762438D02*
X164729523Y-104857676D01*
X164729523Y-104857676D02*
X164777142Y-105048152D01*
X164777142Y-105048152D02*
X164777142Y-105381485D01*
X164777142Y-105381485D02*
X164729523Y-105571961D01*
X164729523Y-105571961D02*
X164634285Y-105667200D01*
X164634285Y-105667200D02*
X164539047Y-105714819D01*
X164539047Y-105714819D02*
X164348571Y-105714819D01*
X165729523Y-105714819D02*
X165158095Y-105714819D01*
X165443809Y-105714819D02*
X165443809Y-104714819D01*
X165443809Y-104714819D02*
X165348571Y-104857676D01*
X165348571Y-104857676D02*
X165253333Y-104952914D01*
X165253333Y-104952914D02*
X165158095Y-105000533D01*
X166761631Y-109516666D02*
X166285440Y-109849999D01*
X166761631Y-110088094D02*
X165761631Y-110088094D01*
X165761631Y-110088094D02*
X165761631Y-109707142D01*
X165761631Y-109707142D02*
X165809250Y-109611904D01*
X165809250Y-109611904D02*
X165856869Y-109564285D01*
X165856869Y-109564285D02*
X165952107Y-109516666D01*
X165952107Y-109516666D02*
X166094964Y-109516666D01*
X166094964Y-109516666D02*
X166190202Y-109564285D01*
X166190202Y-109564285D02*
X166237821Y-109611904D01*
X166237821Y-109611904D02*
X166285440Y-109707142D01*
X166285440Y-109707142D02*
X166285440Y-110088094D01*
X166761631Y-108564285D02*
X166761631Y-109135713D01*
X166761631Y-108849999D02*
X165761631Y-108849999D01*
X165761631Y-108849999D02*
X165904488Y-108945237D01*
X165904488Y-108945237D02*
X165999726Y-109040475D01*
X165999726Y-109040475D02*
X166047345Y-109135713D01*
X145158095Y-106364819D02*
X145158095Y-107174342D01*
X145158095Y-107174342D02*
X145205714Y-107269580D01*
X145205714Y-107269580D02*
X145253333Y-107317200D01*
X145253333Y-107317200D02*
X145348571Y-107364819D01*
X145348571Y-107364819D02*
X145539047Y-107364819D01*
X145539047Y-107364819D02*
X145634285Y-107317200D01*
X145634285Y-107317200D02*
X145681904Y-107269580D01*
X145681904Y-107269580D02*
X145729523Y-107174342D01*
X145729523Y-107174342D02*
X145729523Y-106364819D01*
X146158095Y-106460057D02*
X146205714Y-106412438D01*
X146205714Y-106412438D02*
X146300952Y-106364819D01*
X146300952Y-106364819D02*
X146539047Y-106364819D01*
X146539047Y-106364819D02*
X146634285Y-106412438D01*
X146634285Y-106412438D02*
X146681904Y-106460057D01*
X146681904Y-106460057D02*
X146729523Y-106555295D01*
X146729523Y-106555295D02*
X146729523Y-106650533D01*
X146729523Y-106650533D02*
X146681904Y-106793390D01*
X146681904Y-106793390D02*
X146110476Y-107364819D01*
X146110476Y-107364819D02*
X146729523Y-107364819D01*
X155359580Y-106466666D02*
X155407200Y-106514285D01*
X155407200Y-106514285D02*
X155454819Y-106657142D01*
X155454819Y-106657142D02*
X155454819Y-106752380D01*
X155454819Y-106752380D02*
X155407200Y-106895237D01*
X155407200Y-106895237D02*
X155311961Y-106990475D01*
X155311961Y-106990475D02*
X155216723Y-107038094D01*
X155216723Y-107038094D02*
X155026247Y-107085713D01*
X155026247Y-107085713D02*
X154883390Y-107085713D01*
X154883390Y-107085713D02*
X154692914Y-107038094D01*
X154692914Y-107038094D02*
X154597676Y-106990475D01*
X154597676Y-106990475D02*
X154502438Y-106895237D01*
X154502438Y-106895237D02*
X154454819Y-106752380D01*
X154454819Y-106752380D02*
X154454819Y-106657142D01*
X154454819Y-106657142D02*
X154502438Y-106514285D01*
X154502438Y-106514285D02*
X154550057Y-106466666D01*
X154788152Y-105609523D02*
X155454819Y-105609523D01*
X154407200Y-105847618D02*
X155121485Y-106085713D01*
X155121485Y-106085713D02*
X155121485Y-105466666D01*
X153233333Y-121804819D02*
X152757143Y-121804819D01*
X152757143Y-121804819D02*
X152757143Y-120804819D01*
X153519048Y-120900057D02*
X153566667Y-120852438D01*
X153566667Y-120852438D02*
X153661905Y-120804819D01*
X153661905Y-120804819D02*
X153900000Y-120804819D01*
X153900000Y-120804819D02*
X153995238Y-120852438D01*
X153995238Y-120852438D02*
X154042857Y-120900057D01*
X154042857Y-120900057D02*
X154090476Y-120995295D01*
X154090476Y-120995295D02*
X154090476Y-121090533D01*
X154090476Y-121090533D02*
X154042857Y-121233390D01*
X154042857Y-121233390D02*
X153471429Y-121804819D01*
X153471429Y-121804819D02*
X154090476Y-121804819D01*
X145659580Y-94066666D02*
X145707200Y-94114285D01*
X145707200Y-94114285D02*
X145754819Y-94257142D01*
X145754819Y-94257142D02*
X145754819Y-94352380D01*
X145754819Y-94352380D02*
X145707200Y-94495237D01*
X145707200Y-94495237D02*
X145611961Y-94590475D01*
X145611961Y-94590475D02*
X145516723Y-94638094D01*
X145516723Y-94638094D02*
X145326247Y-94685713D01*
X145326247Y-94685713D02*
X145183390Y-94685713D01*
X145183390Y-94685713D02*
X144992914Y-94638094D01*
X144992914Y-94638094D02*
X144897676Y-94590475D01*
X144897676Y-94590475D02*
X144802438Y-94495237D01*
X144802438Y-94495237D02*
X144754819Y-94352380D01*
X144754819Y-94352380D02*
X144754819Y-94257142D01*
X144754819Y-94257142D02*
X144802438Y-94114285D01*
X144802438Y-94114285D02*
X144850057Y-94066666D01*
X144754819Y-93161904D02*
X144754819Y-93638094D01*
X144754819Y-93638094D02*
X145231009Y-93685713D01*
X145231009Y-93685713D02*
X145183390Y-93638094D01*
X145183390Y-93638094D02*
X145135771Y-93542856D01*
X145135771Y-93542856D02*
X145135771Y-93304761D01*
X145135771Y-93304761D02*
X145183390Y-93209523D01*
X145183390Y-93209523D02*
X145231009Y-93161904D01*
X145231009Y-93161904D02*
X145326247Y-93114285D01*
X145326247Y-93114285D02*
X145564342Y-93114285D01*
X145564342Y-93114285D02*
X145659580Y-93161904D01*
X145659580Y-93161904D02*
X145707200Y-93209523D01*
X145707200Y-93209523D02*
X145754819Y-93304761D01*
X145754819Y-93304761D02*
X145754819Y-93542856D01*
X145754819Y-93542856D02*
X145707200Y-93638094D01*
X145707200Y-93638094D02*
X145659580Y-93685713D01*
X163174761Y-114190057D02*
X163079523Y-114142438D01*
X163079523Y-114142438D02*
X162984285Y-114047200D01*
X162984285Y-114047200D02*
X162841428Y-113904342D01*
X162841428Y-113904342D02*
X162746190Y-113856723D01*
X162746190Y-113856723D02*
X162650952Y-113856723D01*
X162698571Y-114094819D02*
X162603333Y-114047200D01*
X162603333Y-114047200D02*
X162508095Y-113951961D01*
X162508095Y-113951961D02*
X162460476Y-113761485D01*
X162460476Y-113761485D02*
X162460476Y-113428152D01*
X162460476Y-113428152D02*
X162508095Y-113237676D01*
X162508095Y-113237676D02*
X162603333Y-113142438D01*
X162603333Y-113142438D02*
X162698571Y-113094819D01*
X162698571Y-113094819D02*
X162889047Y-113094819D01*
X162889047Y-113094819D02*
X162984285Y-113142438D01*
X162984285Y-113142438D02*
X163079523Y-113237676D01*
X163079523Y-113237676D02*
X163127142Y-113428152D01*
X163127142Y-113428152D02*
X163127142Y-113761485D01*
X163127142Y-113761485D02*
X163079523Y-113951961D01*
X163079523Y-113951961D02*
X162984285Y-114047200D01*
X162984285Y-114047200D02*
X162889047Y-114094819D01*
X162889047Y-114094819D02*
X162698571Y-114094819D01*
X163508095Y-113190057D02*
X163555714Y-113142438D01*
X163555714Y-113142438D02*
X163650952Y-113094819D01*
X163650952Y-113094819D02*
X163889047Y-113094819D01*
X163889047Y-113094819D02*
X163984285Y-113142438D01*
X163984285Y-113142438D02*
X164031904Y-113190057D01*
X164031904Y-113190057D02*
X164079523Y-113285295D01*
X164079523Y-113285295D02*
X164079523Y-113380533D01*
X164079523Y-113380533D02*
X164031904Y-113523390D01*
X164031904Y-113523390D02*
X163460476Y-114094819D01*
X163460476Y-114094819D02*
X164079523Y-114094819D01*
X164964819Y-111706666D02*
X164488628Y-112039999D01*
X164964819Y-112278094D02*
X163964819Y-112278094D01*
X163964819Y-112278094D02*
X163964819Y-111897142D01*
X163964819Y-111897142D02*
X164012438Y-111801904D01*
X164012438Y-111801904D02*
X164060057Y-111754285D01*
X164060057Y-111754285D02*
X164155295Y-111706666D01*
X164155295Y-111706666D02*
X164298152Y-111706666D01*
X164298152Y-111706666D02*
X164393390Y-111754285D01*
X164393390Y-111754285D02*
X164441009Y-111801904D01*
X164441009Y-111801904D02*
X164488628Y-111897142D01*
X164488628Y-111897142D02*
X164488628Y-112278094D01*
X163964819Y-111373332D02*
X163964819Y-110754285D01*
X163964819Y-110754285D02*
X164345771Y-111087618D01*
X164345771Y-111087618D02*
X164345771Y-110944761D01*
X164345771Y-110944761D02*
X164393390Y-110849523D01*
X164393390Y-110849523D02*
X164441009Y-110801904D01*
X164441009Y-110801904D02*
X164536247Y-110754285D01*
X164536247Y-110754285D02*
X164774342Y-110754285D01*
X164774342Y-110754285D02*
X164869580Y-110801904D01*
X164869580Y-110801904D02*
X164917200Y-110849523D01*
X164917200Y-110849523D02*
X164964819Y-110944761D01*
X164964819Y-110944761D02*
X164964819Y-111230475D01*
X164964819Y-111230475D02*
X164917200Y-111325713D01*
X164917200Y-111325713D02*
X164869580Y-111373332D01*
X157154819Y-106366666D02*
X156678628Y-106699999D01*
X157154819Y-106938094D02*
X156154819Y-106938094D01*
X156154819Y-106938094D02*
X156154819Y-106557142D01*
X156154819Y-106557142D02*
X156202438Y-106461904D01*
X156202438Y-106461904D02*
X156250057Y-106414285D01*
X156250057Y-106414285D02*
X156345295Y-106366666D01*
X156345295Y-106366666D02*
X156488152Y-106366666D01*
X156488152Y-106366666D02*
X156583390Y-106414285D01*
X156583390Y-106414285D02*
X156631009Y-106461904D01*
X156631009Y-106461904D02*
X156678628Y-106557142D01*
X156678628Y-106557142D02*
X156678628Y-106938094D01*
X156154819Y-105509523D02*
X156154819Y-105699999D01*
X156154819Y-105699999D02*
X156202438Y-105795237D01*
X156202438Y-105795237D02*
X156250057Y-105842856D01*
X156250057Y-105842856D02*
X156392914Y-105938094D01*
X156392914Y-105938094D02*
X156583390Y-105985713D01*
X156583390Y-105985713D02*
X156964342Y-105985713D01*
X156964342Y-105985713D02*
X157059580Y-105938094D01*
X157059580Y-105938094D02*
X157107200Y-105890475D01*
X157107200Y-105890475D02*
X157154819Y-105795237D01*
X157154819Y-105795237D02*
X157154819Y-105604761D01*
X157154819Y-105604761D02*
X157107200Y-105509523D01*
X157107200Y-105509523D02*
X157059580Y-105461904D01*
X157059580Y-105461904D02*
X156964342Y-105414285D01*
X156964342Y-105414285D02*
X156726247Y-105414285D01*
X156726247Y-105414285D02*
X156631009Y-105461904D01*
X156631009Y-105461904D02*
X156583390Y-105509523D01*
X156583390Y-105509523D02*
X156535771Y-105604761D01*
X156535771Y-105604761D02*
X156535771Y-105795237D01*
X156535771Y-105795237D02*
X156583390Y-105890475D01*
X156583390Y-105890475D02*
X156631009Y-105938094D01*
X156631009Y-105938094D02*
X156726247Y-105985713D01*
X168311631Y-109666666D02*
X167835440Y-109999999D01*
X168311631Y-110238094D02*
X167311631Y-110238094D01*
X167311631Y-110238094D02*
X167311631Y-109857142D01*
X167311631Y-109857142D02*
X167359250Y-109761904D01*
X167359250Y-109761904D02*
X167406869Y-109714285D01*
X167406869Y-109714285D02*
X167502107Y-109666666D01*
X167502107Y-109666666D02*
X167644964Y-109666666D01*
X167644964Y-109666666D02*
X167740202Y-109714285D01*
X167740202Y-109714285D02*
X167787821Y-109761904D01*
X167787821Y-109761904D02*
X167835440Y-109857142D01*
X167835440Y-109857142D02*
X167835440Y-110238094D01*
X167406869Y-109285713D02*
X167359250Y-109238094D01*
X167359250Y-109238094D02*
X167311631Y-109142856D01*
X167311631Y-109142856D02*
X167311631Y-108904761D01*
X167311631Y-108904761D02*
X167359250Y-108809523D01*
X167359250Y-108809523D02*
X167406869Y-108761904D01*
X167406869Y-108761904D02*
X167502107Y-108714285D01*
X167502107Y-108714285D02*
X167597345Y-108714285D01*
X167597345Y-108714285D02*
X167740202Y-108761904D01*
X167740202Y-108761904D02*
X168311631Y-109333332D01*
X168311631Y-109333332D02*
X168311631Y-108714285D01*
X158181905Y-111444819D02*
X158181905Y-110444819D01*
X158181905Y-110444819D02*
X158420000Y-110444819D01*
X158420000Y-110444819D02*
X158562857Y-110492438D01*
X158562857Y-110492438D02*
X158658095Y-110587676D01*
X158658095Y-110587676D02*
X158705714Y-110682914D01*
X158705714Y-110682914D02*
X158753333Y-110873390D01*
X158753333Y-110873390D02*
X158753333Y-111016247D01*
X158753333Y-111016247D02*
X158705714Y-111206723D01*
X158705714Y-111206723D02*
X158658095Y-111301961D01*
X158658095Y-111301961D02*
X158562857Y-111397200D01*
X158562857Y-111397200D02*
X158420000Y-111444819D01*
X158420000Y-111444819D02*
X158181905Y-111444819D01*
X159705714Y-111444819D02*
X159134286Y-111444819D01*
X159420000Y-111444819D02*
X159420000Y-110444819D01*
X159420000Y-110444819D02*
X159324762Y-110587676D01*
X159324762Y-110587676D02*
X159229524Y-110682914D01*
X159229524Y-110682914D02*
X159134286Y-110730533D01*
X152997142Y-113084819D02*
X152663809Y-112608628D01*
X152425714Y-113084819D02*
X152425714Y-112084819D01*
X152425714Y-112084819D02*
X152806666Y-112084819D01*
X152806666Y-112084819D02*
X152901904Y-112132438D01*
X152901904Y-112132438D02*
X152949523Y-112180057D01*
X152949523Y-112180057D02*
X152997142Y-112275295D01*
X152997142Y-112275295D02*
X152997142Y-112418152D01*
X152997142Y-112418152D02*
X152949523Y-112513390D01*
X152949523Y-112513390D02*
X152901904Y-112561009D01*
X152901904Y-112561009D02*
X152806666Y-112608628D01*
X152806666Y-112608628D02*
X152425714Y-112608628D01*
X153949523Y-113084819D02*
X153378095Y-113084819D01*
X153663809Y-113084819D02*
X153663809Y-112084819D01*
X153663809Y-112084819D02*
X153568571Y-112227676D01*
X153568571Y-112227676D02*
X153473333Y-112322914D01*
X153473333Y-112322914D02*
X153378095Y-112370533D01*
X154806666Y-112418152D02*
X154806666Y-113084819D01*
X154568571Y-112037200D02*
X154330476Y-112751485D01*
X154330476Y-112751485D02*
X154949523Y-112751485D01*
X158323333Y-113614819D02*
X157990000Y-113138628D01*
X157751905Y-113614819D02*
X157751905Y-112614819D01*
X157751905Y-112614819D02*
X158132857Y-112614819D01*
X158132857Y-112614819D02*
X158228095Y-112662438D01*
X158228095Y-112662438D02*
X158275714Y-112710057D01*
X158275714Y-112710057D02*
X158323333Y-112805295D01*
X158323333Y-112805295D02*
X158323333Y-112948152D01*
X158323333Y-112948152D02*
X158275714Y-113043390D01*
X158275714Y-113043390D02*
X158228095Y-113091009D01*
X158228095Y-113091009D02*
X158132857Y-113138628D01*
X158132857Y-113138628D02*
X157751905Y-113138628D01*
X158894762Y-113043390D02*
X158799524Y-112995771D01*
X158799524Y-112995771D02*
X158751905Y-112948152D01*
X158751905Y-112948152D02*
X158704286Y-112852914D01*
X158704286Y-112852914D02*
X158704286Y-112805295D01*
X158704286Y-112805295D02*
X158751905Y-112710057D01*
X158751905Y-112710057D02*
X158799524Y-112662438D01*
X158799524Y-112662438D02*
X158894762Y-112614819D01*
X158894762Y-112614819D02*
X159085238Y-112614819D01*
X159085238Y-112614819D02*
X159180476Y-112662438D01*
X159180476Y-112662438D02*
X159228095Y-112710057D01*
X159228095Y-112710057D02*
X159275714Y-112805295D01*
X159275714Y-112805295D02*
X159275714Y-112852914D01*
X159275714Y-112852914D02*
X159228095Y-112948152D01*
X159228095Y-112948152D02*
X159180476Y-112995771D01*
X159180476Y-112995771D02*
X159085238Y-113043390D01*
X159085238Y-113043390D02*
X158894762Y-113043390D01*
X158894762Y-113043390D02*
X158799524Y-113091009D01*
X158799524Y-113091009D02*
X158751905Y-113138628D01*
X158751905Y-113138628D02*
X158704286Y-113233866D01*
X158704286Y-113233866D02*
X158704286Y-113424342D01*
X158704286Y-113424342D02*
X158751905Y-113519580D01*
X158751905Y-113519580D02*
X158799524Y-113567200D01*
X158799524Y-113567200D02*
X158894762Y-113614819D01*
X158894762Y-113614819D02*
X159085238Y-113614819D01*
X159085238Y-113614819D02*
X159180476Y-113567200D01*
X159180476Y-113567200D02*
X159228095Y-113519580D01*
X159228095Y-113519580D02*
X159275714Y-113424342D01*
X159275714Y-113424342D02*
X159275714Y-113233866D01*
X159275714Y-113233866D02*
X159228095Y-113138628D01*
X159228095Y-113138628D02*
X159180476Y-113091009D01*
X159180476Y-113091009D02*
X159085238Y-113043390D01*
X154934580Y-118917857D02*
X154982200Y-118965476D01*
X154982200Y-118965476D02*
X155029819Y-119108333D01*
X155029819Y-119108333D02*
X155029819Y-119203571D01*
X155029819Y-119203571D02*
X154982200Y-119346428D01*
X154982200Y-119346428D02*
X154886961Y-119441666D01*
X154886961Y-119441666D02*
X154791723Y-119489285D01*
X154791723Y-119489285D02*
X154601247Y-119536904D01*
X154601247Y-119536904D02*
X154458390Y-119536904D01*
X154458390Y-119536904D02*
X154267914Y-119489285D01*
X154267914Y-119489285D02*
X154172676Y-119441666D01*
X154172676Y-119441666D02*
X154077438Y-119346428D01*
X154077438Y-119346428D02*
X154029819Y-119203571D01*
X154029819Y-119203571D02*
X154029819Y-119108333D01*
X154029819Y-119108333D02*
X154077438Y-118965476D01*
X154077438Y-118965476D02*
X154125057Y-118917857D01*
X155029819Y-117965476D02*
X155029819Y-118536904D01*
X155029819Y-118251190D02*
X154029819Y-118251190D01*
X154029819Y-118251190D02*
X154172676Y-118346428D01*
X154172676Y-118346428D02*
X154267914Y-118441666D01*
X154267914Y-118441666D02*
X154315533Y-118536904D01*
X154029819Y-117346428D02*
X154029819Y-117251190D01*
X154029819Y-117251190D02*
X154077438Y-117155952D01*
X154077438Y-117155952D02*
X154125057Y-117108333D01*
X154125057Y-117108333D02*
X154220295Y-117060714D01*
X154220295Y-117060714D02*
X154410771Y-117013095D01*
X154410771Y-117013095D02*
X154648866Y-117013095D01*
X154648866Y-117013095D02*
X154839342Y-117060714D01*
X154839342Y-117060714D02*
X154934580Y-117108333D01*
X154934580Y-117108333D02*
X154982200Y-117155952D01*
X154982200Y-117155952D02*
X155029819Y-117251190D01*
X155029819Y-117251190D02*
X155029819Y-117346428D01*
X155029819Y-117346428D02*
X154982200Y-117441666D01*
X154982200Y-117441666D02*
X154934580Y-117489285D01*
X154934580Y-117489285D02*
X154839342Y-117536904D01*
X154839342Y-117536904D02*
X154648866Y-117584523D01*
X154648866Y-117584523D02*
X154410771Y-117584523D01*
X154410771Y-117584523D02*
X154220295Y-117536904D01*
X154220295Y-117536904D02*
X154125057Y-117489285D01*
X154125057Y-117489285D02*
X154077438Y-117441666D01*
X154077438Y-117441666D02*
X154029819Y-117346428D01*
X144609580Y-98616666D02*
X144657200Y-98664285D01*
X144657200Y-98664285D02*
X144704819Y-98807142D01*
X144704819Y-98807142D02*
X144704819Y-98902380D01*
X144704819Y-98902380D02*
X144657200Y-99045237D01*
X144657200Y-99045237D02*
X144561961Y-99140475D01*
X144561961Y-99140475D02*
X144466723Y-99188094D01*
X144466723Y-99188094D02*
X144276247Y-99235713D01*
X144276247Y-99235713D02*
X144133390Y-99235713D01*
X144133390Y-99235713D02*
X143942914Y-99188094D01*
X143942914Y-99188094D02*
X143847676Y-99140475D01*
X143847676Y-99140475D02*
X143752438Y-99045237D01*
X143752438Y-99045237D02*
X143704819Y-98902380D01*
X143704819Y-98902380D02*
X143704819Y-98807142D01*
X143704819Y-98807142D02*
X143752438Y-98664285D01*
X143752438Y-98664285D02*
X143800057Y-98616666D01*
X143704819Y-97759523D02*
X143704819Y-97949999D01*
X143704819Y-97949999D02*
X143752438Y-98045237D01*
X143752438Y-98045237D02*
X143800057Y-98092856D01*
X143800057Y-98092856D02*
X143942914Y-98188094D01*
X143942914Y-98188094D02*
X144133390Y-98235713D01*
X144133390Y-98235713D02*
X144514342Y-98235713D01*
X144514342Y-98235713D02*
X144609580Y-98188094D01*
X144609580Y-98188094D02*
X144657200Y-98140475D01*
X144657200Y-98140475D02*
X144704819Y-98045237D01*
X144704819Y-98045237D02*
X144704819Y-97854761D01*
X144704819Y-97854761D02*
X144657200Y-97759523D01*
X144657200Y-97759523D02*
X144609580Y-97711904D01*
X144609580Y-97711904D02*
X144514342Y-97664285D01*
X144514342Y-97664285D02*
X144276247Y-97664285D01*
X144276247Y-97664285D02*
X144181009Y-97711904D01*
X144181009Y-97711904D02*
X144133390Y-97759523D01*
X144133390Y-97759523D02*
X144085771Y-97854761D01*
X144085771Y-97854761D02*
X144085771Y-98045237D01*
X144085771Y-98045237D02*
X144133390Y-98140475D01*
X144133390Y-98140475D02*
X144181009Y-98188094D01*
X144181009Y-98188094D02*
X144276247Y-98235713D01*
X144504819Y-83716666D02*
X144028628Y-84049999D01*
X144504819Y-84288094D02*
X143504819Y-84288094D01*
X143504819Y-84288094D02*
X143504819Y-83907142D01*
X143504819Y-83907142D02*
X143552438Y-83811904D01*
X143552438Y-83811904D02*
X143600057Y-83764285D01*
X143600057Y-83764285D02*
X143695295Y-83716666D01*
X143695295Y-83716666D02*
X143838152Y-83716666D01*
X143838152Y-83716666D02*
X143933390Y-83764285D01*
X143933390Y-83764285D02*
X143981009Y-83811904D01*
X143981009Y-83811904D02*
X144028628Y-83907142D01*
X144028628Y-83907142D02*
X144028628Y-84288094D01*
X144504819Y-83240475D02*
X144504819Y-83049999D01*
X144504819Y-83049999D02*
X144457200Y-82954761D01*
X144457200Y-82954761D02*
X144409580Y-82907142D01*
X144409580Y-82907142D02*
X144266723Y-82811904D01*
X144266723Y-82811904D02*
X144076247Y-82764285D01*
X144076247Y-82764285D02*
X143695295Y-82764285D01*
X143695295Y-82764285D02*
X143600057Y-82811904D01*
X143600057Y-82811904D02*
X143552438Y-82859523D01*
X143552438Y-82859523D02*
X143504819Y-82954761D01*
X143504819Y-82954761D02*
X143504819Y-83145237D01*
X143504819Y-83145237D02*
X143552438Y-83240475D01*
X143552438Y-83240475D02*
X143600057Y-83288094D01*
X143600057Y-83288094D02*
X143695295Y-83335713D01*
X143695295Y-83335713D02*
X143933390Y-83335713D01*
X143933390Y-83335713D02*
X144028628Y-83288094D01*
X144028628Y-83288094D02*
X144076247Y-83240475D01*
X144076247Y-83240475D02*
X144123866Y-83145237D01*
X144123866Y-83145237D02*
X144123866Y-82954761D01*
X144123866Y-82954761D02*
X144076247Y-82859523D01*
X144076247Y-82859523D02*
X144028628Y-82811904D01*
X144028628Y-82811904D02*
X143933390Y-82764285D01*
X143857142Y-117059580D02*
X143809523Y-117107200D01*
X143809523Y-117107200D02*
X143666666Y-117154819D01*
X143666666Y-117154819D02*
X143571428Y-117154819D01*
X143571428Y-117154819D02*
X143428571Y-117107200D01*
X143428571Y-117107200D02*
X143333333Y-117011961D01*
X143333333Y-117011961D02*
X143285714Y-116916723D01*
X143285714Y-116916723D02*
X143238095Y-116726247D01*
X143238095Y-116726247D02*
X143238095Y-116583390D01*
X143238095Y-116583390D02*
X143285714Y-116392914D01*
X143285714Y-116392914D02*
X143333333Y-116297676D01*
X143333333Y-116297676D02*
X143428571Y-116202438D01*
X143428571Y-116202438D02*
X143571428Y-116154819D01*
X143571428Y-116154819D02*
X143666666Y-116154819D01*
X143666666Y-116154819D02*
X143809523Y-116202438D01*
X143809523Y-116202438D02*
X143857142Y-116250057D01*
X144809523Y-117154819D02*
X144238095Y-117154819D01*
X144523809Y-117154819D02*
X144523809Y-116154819D01*
X144523809Y-116154819D02*
X144428571Y-116297676D01*
X144428571Y-116297676D02*
X144333333Y-116392914D01*
X144333333Y-116392914D02*
X144238095Y-116440533D01*
X145190476Y-116250057D02*
X145238095Y-116202438D01*
X145238095Y-116202438D02*
X145333333Y-116154819D01*
X145333333Y-116154819D02*
X145571428Y-116154819D01*
X145571428Y-116154819D02*
X145666666Y-116202438D01*
X145666666Y-116202438D02*
X145714285Y-116250057D01*
X145714285Y-116250057D02*
X145761904Y-116345295D01*
X145761904Y-116345295D02*
X145761904Y-116440533D01*
X145761904Y-116440533D02*
X145714285Y-116583390D01*
X145714285Y-116583390D02*
X145142857Y-117154819D01*
X145142857Y-117154819D02*
X145761904Y-117154819D01*
X158359580Y-106516666D02*
X158407200Y-106564285D01*
X158407200Y-106564285D02*
X158454819Y-106707142D01*
X158454819Y-106707142D02*
X158454819Y-106802380D01*
X158454819Y-106802380D02*
X158407200Y-106945237D01*
X158407200Y-106945237D02*
X158311961Y-107040475D01*
X158311961Y-107040475D02*
X158216723Y-107088094D01*
X158216723Y-107088094D02*
X158026247Y-107135713D01*
X158026247Y-107135713D02*
X157883390Y-107135713D01*
X157883390Y-107135713D02*
X157692914Y-107088094D01*
X157692914Y-107088094D02*
X157597676Y-107040475D01*
X157597676Y-107040475D02*
X157502438Y-106945237D01*
X157502438Y-106945237D02*
X157454819Y-106802380D01*
X157454819Y-106802380D02*
X157454819Y-106707142D01*
X157454819Y-106707142D02*
X157502438Y-106564285D01*
X157502438Y-106564285D02*
X157550057Y-106516666D01*
X158454819Y-105564285D02*
X158454819Y-106135713D01*
X158454819Y-105849999D02*
X157454819Y-105849999D01*
X157454819Y-105849999D02*
X157597676Y-105945237D01*
X157597676Y-105945237D02*
X157692914Y-106040475D01*
X157692914Y-106040475D02*
X157740533Y-106135713D01*
X156273333Y-115994819D02*
X155940000Y-115518628D01*
X155701905Y-115994819D02*
X155701905Y-114994819D01*
X155701905Y-114994819D02*
X156082857Y-114994819D01*
X156082857Y-114994819D02*
X156178095Y-115042438D01*
X156178095Y-115042438D02*
X156225714Y-115090057D01*
X156225714Y-115090057D02*
X156273333Y-115185295D01*
X156273333Y-115185295D02*
X156273333Y-115328152D01*
X156273333Y-115328152D02*
X156225714Y-115423390D01*
X156225714Y-115423390D02*
X156178095Y-115471009D01*
X156178095Y-115471009D02*
X156082857Y-115518628D01*
X156082857Y-115518628D02*
X155701905Y-115518628D01*
X157130476Y-115328152D02*
X157130476Y-115994819D01*
X156892381Y-114947200D02*
X156654286Y-115661485D01*
X156654286Y-115661485D02*
X157273333Y-115661485D01*
X144159580Y-94992857D02*
X144207200Y-95040476D01*
X144207200Y-95040476D02*
X144254819Y-95183333D01*
X144254819Y-95183333D02*
X144254819Y-95278571D01*
X144254819Y-95278571D02*
X144207200Y-95421428D01*
X144207200Y-95421428D02*
X144111961Y-95516666D01*
X144111961Y-95516666D02*
X144016723Y-95564285D01*
X144016723Y-95564285D02*
X143826247Y-95611904D01*
X143826247Y-95611904D02*
X143683390Y-95611904D01*
X143683390Y-95611904D02*
X143492914Y-95564285D01*
X143492914Y-95564285D02*
X143397676Y-95516666D01*
X143397676Y-95516666D02*
X143302438Y-95421428D01*
X143302438Y-95421428D02*
X143254819Y-95278571D01*
X143254819Y-95278571D02*
X143254819Y-95183333D01*
X143254819Y-95183333D02*
X143302438Y-95040476D01*
X143302438Y-95040476D02*
X143350057Y-94992857D01*
X144254819Y-94040476D02*
X144254819Y-94611904D01*
X144254819Y-94326190D02*
X143254819Y-94326190D01*
X143254819Y-94326190D02*
X143397676Y-94421428D01*
X143397676Y-94421428D02*
X143492914Y-94516666D01*
X143492914Y-94516666D02*
X143540533Y-94611904D01*
X143254819Y-93707142D02*
X143254819Y-93088095D01*
X143254819Y-93088095D02*
X143635771Y-93421428D01*
X143635771Y-93421428D02*
X143635771Y-93278571D01*
X143635771Y-93278571D02*
X143683390Y-93183333D01*
X143683390Y-93183333D02*
X143731009Y-93135714D01*
X143731009Y-93135714D02*
X143826247Y-93088095D01*
X143826247Y-93088095D02*
X144064342Y-93088095D01*
X144064342Y-93088095D02*
X144159580Y-93135714D01*
X144159580Y-93135714D02*
X144207200Y-93183333D01*
X144207200Y-93183333D02*
X144254819Y-93278571D01*
X144254819Y-93278571D02*
X144254819Y-93564285D01*
X144254819Y-93564285D02*
X144207200Y-93659523D01*
X144207200Y-93659523D02*
X144159580Y-93707142D01*
X145959580Y-83716666D02*
X146007200Y-83764285D01*
X146007200Y-83764285D02*
X146054819Y-83907142D01*
X146054819Y-83907142D02*
X146054819Y-84002380D01*
X146054819Y-84002380D02*
X146007200Y-84145237D01*
X146007200Y-84145237D02*
X145911961Y-84240475D01*
X145911961Y-84240475D02*
X145816723Y-84288094D01*
X145816723Y-84288094D02*
X145626247Y-84335713D01*
X145626247Y-84335713D02*
X145483390Y-84335713D01*
X145483390Y-84335713D02*
X145292914Y-84288094D01*
X145292914Y-84288094D02*
X145197676Y-84240475D01*
X145197676Y-84240475D02*
X145102438Y-84145237D01*
X145102438Y-84145237D02*
X145054819Y-84002380D01*
X145054819Y-84002380D02*
X145054819Y-83907142D01*
X145054819Y-83907142D02*
X145102438Y-83764285D01*
X145102438Y-83764285D02*
X145150057Y-83716666D01*
X145150057Y-83335713D02*
X145102438Y-83288094D01*
X145102438Y-83288094D02*
X145054819Y-83192856D01*
X145054819Y-83192856D02*
X145054819Y-82954761D01*
X145054819Y-82954761D02*
X145102438Y-82859523D01*
X145102438Y-82859523D02*
X145150057Y-82811904D01*
X145150057Y-82811904D02*
X145245295Y-82764285D01*
X145245295Y-82764285D02*
X145340533Y-82764285D01*
X145340533Y-82764285D02*
X145483390Y-82811904D01*
X145483390Y-82811904D02*
X146054819Y-83383332D01*
X146054819Y-83383332D02*
X146054819Y-82764285D01*
X144373333Y-88099580D02*
X144325714Y-88147200D01*
X144325714Y-88147200D02*
X144182857Y-88194819D01*
X144182857Y-88194819D02*
X144087619Y-88194819D01*
X144087619Y-88194819D02*
X143944762Y-88147200D01*
X143944762Y-88147200D02*
X143849524Y-88051961D01*
X143849524Y-88051961D02*
X143801905Y-87956723D01*
X143801905Y-87956723D02*
X143754286Y-87766247D01*
X143754286Y-87766247D02*
X143754286Y-87623390D01*
X143754286Y-87623390D02*
X143801905Y-87432914D01*
X143801905Y-87432914D02*
X143849524Y-87337676D01*
X143849524Y-87337676D02*
X143944762Y-87242438D01*
X143944762Y-87242438D02*
X144087619Y-87194819D01*
X144087619Y-87194819D02*
X144182857Y-87194819D01*
X144182857Y-87194819D02*
X144325714Y-87242438D01*
X144325714Y-87242438D02*
X144373333Y-87290057D01*
X144706667Y-87194819D02*
X145325714Y-87194819D01*
X145325714Y-87194819D02*
X144992381Y-87575771D01*
X144992381Y-87575771D02*
X145135238Y-87575771D01*
X145135238Y-87575771D02*
X145230476Y-87623390D01*
X145230476Y-87623390D02*
X145278095Y-87671009D01*
X145278095Y-87671009D02*
X145325714Y-87766247D01*
X145325714Y-87766247D02*
X145325714Y-88004342D01*
X145325714Y-88004342D02*
X145278095Y-88099580D01*
X145278095Y-88099580D02*
X145230476Y-88147200D01*
X145230476Y-88147200D02*
X145135238Y-88194819D01*
X145135238Y-88194819D02*
X144849524Y-88194819D01*
X144849524Y-88194819D02*
X144754286Y-88147200D01*
X144754286Y-88147200D02*
X144706667Y-88099580D01*
X167866666Y-111054819D02*
X167866666Y-111769104D01*
X167866666Y-111769104D02*
X167819047Y-111911961D01*
X167819047Y-111911961D02*
X167723809Y-112007200D01*
X167723809Y-112007200D02*
X167580952Y-112054819D01*
X167580952Y-112054819D02*
X167485714Y-112054819D01*
X168771428Y-111388152D02*
X168771428Y-112054819D01*
X168533333Y-111007200D02*
X168295238Y-111721485D01*
X168295238Y-111721485D02*
X168914285Y-111721485D01*
X145344819Y-103679904D02*
X146154342Y-103679904D01*
X146154342Y-103679904D02*
X146249580Y-103632285D01*
X146249580Y-103632285D02*
X146297200Y-103584666D01*
X146297200Y-103584666D02*
X146344819Y-103489428D01*
X146344819Y-103489428D02*
X146344819Y-103298952D01*
X146344819Y-103298952D02*
X146297200Y-103203714D01*
X146297200Y-103203714D02*
X146249580Y-103156095D01*
X146249580Y-103156095D02*
X146154342Y-103108476D01*
X146154342Y-103108476D02*
X145344819Y-103108476D01*
X146344819Y-102108476D02*
X146344819Y-102679904D01*
X146344819Y-102394190D02*
X145344819Y-102394190D01*
X145344819Y-102394190D02*
X145487676Y-102489428D01*
X145487676Y-102489428D02*
X145582914Y-102584666D01*
X145582914Y-102584666D02*
X145630533Y-102679904D01*
X164454761Y-119960057D02*
X164359523Y-119912438D01*
X164359523Y-119912438D02*
X164264285Y-119817200D01*
X164264285Y-119817200D02*
X164121428Y-119674342D01*
X164121428Y-119674342D02*
X164026190Y-119626723D01*
X164026190Y-119626723D02*
X163930952Y-119626723D01*
X163978571Y-119864819D02*
X163883333Y-119817200D01*
X163883333Y-119817200D02*
X163788095Y-119721961D01*
X163788095Y-119721961D02*
X163740476Y-119531485D01*
X163740476Y-119531485D02*
X163740476Y-119198152D01*
X163740476Y-119198152D02*
X163788095Y-119007676D01*
X163788095Y-119007676D02*
X163883333Y-118912438D01*
X163883333Y-118912438D02*
X163978571Y-118864819D01*
X163978571Y-118864819D02*
X164169047Y-118864819D01*
X164169047Y-118864819D02*
X164264285Y-118912438D01*
X164264285Y-118912438D02*
X164359523Y-119007676D01*
X164359523Y-119007676D02*
X164407142Y-119198152D01*
X164407142Y-119198152D02*
X164407142Y-119531485D01*
X164407142Y-119531485D02*
X164359523Y-119721961D01*
X164359523Y-119721961D02*
X164264285Y-119817200D01*
X164264285Y-119817200D02*
X164169047Y-119864819D01*
X164169047Y-119864819D02*
X163978571Y-119864819D01*
X165264285Y-119198152D02*
X165264285Y-119864819D01*
X165026190Y-118817200D02*
X164788095Y-119531485D01*
X164788095Y-119531485D02*
X165407142Y-119531485D01*
X160987142Y-115974819D02*
X160653809Y-115498628D01*
X160415714Y-115974819D02*
X160415714Y-114974819D01*
X160415714Y-114974819D02*
X160796666Y-114974819D01*
X160796666Y-114974819D02*
X160891904Y-115022438D01*
X160891904Y-115022438D02*
X160939523Y-115070057D01*
X160939523Y-115070057D02*
X160987142Y-115165295D01*
X160987142Y-115165295D02*
X160987142Y-115308152D01*
X160987142Y-115308152D02*
X160939523Y-115403390D01*
X160939523Y-115403390D02*
X160891904Y-115451009D01*
X160891904Y-115451009D02*
X160796666Y-115498628D01*
X160796666Y-115498628D02*
X160415714Y-115498628D01*
X161939523Y-115974819D02*
X161368095Y-115974819D01*
X161653809Y-115974819D02*
X161653809Y-114974819D01*
X161653809Y-114974819D02*
X161558571Y-115117676D01*
X161558571Y-115117676D02*
X161463333Y-115212914D01*
X161463333Y-115212914D02*
X161368095Y-115260533D01*
X162796666Y-114974819D02*
X162606190Y-114974819D01*
X162606190Y-114974819D02*
X162510952Y-115022438D01*
X162510952Y-115022438D02*
X162463333Y-115070057D01*
X162463333Y-115070057D02*
X162368095Y-115212914D01*
X162368095Y-115212914D02*
X162320476Y-115403390D01*
X162320476Y-115403390D02*
X162320476Y-115784342D01*
X162320476Y-115784342D02*
X162368095Y-115879580D01*
X162368095Y-115879580D02*
X162415714Y-115927200D01*
X162415714Y-115927200D02*
X162510952Y-115974819D01*
X162510952Y-115974819D02*
X162701428Y-115974819D01*
X162701428Y-115974819D02*
X162796666Y-115927200D01*
X162796666Y-115927200D02*
X162844285Y-115879580D01*
X162844285Y-115879580D02*
X162891904Y-115784342D01*
X162891904Y-115784342D02*
X162891904Y-115546247D01*
X162891904Y-115546247D02*
X162844285Y-115451009D01*
X162844285Y-115451009D02*
X162796666Y-115403390D01*
X162796666Y-115403390D02*
X162701428Y-115355771D01*
X162701428Y-115355771D02*
X162510952Y-115355771D01*
X162510952Y-115355771D02*
X162415714Y-115403390D01*
X162415714Y-115403390D02*
X162368095Y-115451009D01*
X162368095Y-115451009D02*
X162320476Y-115546247D01*
X143857142Y-115559580D02*
X143809523Y-115607200D01*
X143809523Y-115607200D02*
X143666666Y-115654819D01*
X143666666Y-115654819D02*
X143571428Y-115654819D01*
X143571428Y-115654819D02*
X143428571Y-115607200D01*
X143428571Y-115607200D02*
X143333333Y-115511961D01*
X143333333Y-115511961D02*
X143285714Y-115416723D01*
X143285714Y-115416723D02*
X143238095Y-115226247D01*
X143238095Y-115226247D02*
X143238095Y-115083390D01*
X143238095Y-115083390D02*
X143285714Y-114892914D01*
X143285714Y-114892914D02*
X143333333Y-114797676D01*
X143333333Y-114797676D02*
X143428571Y-114702438D01*
X143428571Y-114702438D02*
X143571428Y-114654819D01*
X143571428Y-114654819D02*
X143666666Y-114654819D01*
X143666666Y-114654819D02*
X143809523Y-114702438D01*
X143809523Y-114702438D02*
X143857142Y-114750057D01*
X144809523Y-115654819D02*
X144238095Y-115654819D01*
X144523809Y-115654819D02*
X144523809Y-114654819D01*
X144523809Y-114654819D02*
X144428571Y-114797676D01*
X144428571Y-114797676D02*
X144333333Y-114892914D01*
X144333333Y-114892914D02*
X144238095Y-114940533D01*
X145761904Y-115654819D02*
X145190476Y-115654819D01*
X145476190Y-115654819D02*
X145476190Y-114654819D01*
X145476190Y-114654819D02*
X145380952Y-114797676D01*
X145380952Y-114797676D02*
X145285714Y-114892914D01*
X145285714Y-114892914D02*
X145190476Y-114940533D01*
X158679819Y-109516666D02*
X158203628Y-109849999D01*
X158679819Y-110088094D02*
X157679819Y-110088094D01*
X157679819Y-110088094D02*
X157679819Y-109707142D01*
X157679819Y-109707142D02*
X157727438Y-109611904D01*
X157727438Y-109611904D02*
X157775057Y-109564285D01*
X157775057Y-109564285D02*
X157870295Y-109516666D01*
X157870295Y-109516666D02*
X158013152Y-109516666D01*
X158013152Y-109516666D02*
X158108390Y-109564285D01*
X158108390Y-109564285D02*
X158156009Y-109611904D01*
X158156009Y-109611904D02*
X158203628Y-109707142D01*
X158203628Y-109707142D02*
X158203628Y-110088094D01*
X157679819Y-109183332D02*
X157679819Y-108516666D01*
X157679819Y-108516666D02*
X158679819Y-108945237D01*
X162454819Y-106166666D02*
X161978628Y-106499999D01*
X162454819Y-106738094D02*
X161454819Y-106738094D01*
X161454819Y-106738094D02*
X161454819Y-106357142D01*
X161454819Y-106357142D02*
X161502438Y-106261904D01*
X161502438Y-106261904D02*
X161550057Y-106214285D01*
X161550057Y-106214285D02*
X161645295Y-106166666D01*
X161645295Y-106166666D02*
X161788152Y-106166666D01*
X161788152Y-106166666D02*
X161883390Y-106214285D01*
X161883390Y-106214285D02*
X161931009Y-106261904D01*
X161931009Y-106261904D02*
X161978628Y-106357142D01*
X161978628Y-106357142D02*
X161978628Y-106738094D01*
X161454819Y-105261904D02*
X161454819Y-105738094D01*
X161454819Y-105738094D02*
X161931009Y-105785713D01*
X161931009Y-105785713D02*
X161883390Y-105738094D01*
X161883390Y-105738094D02*
X161835771Y-105642856D01*
X161835771Y-105642856D02*
X161835771Y-105404761D01*
X161835771Y-105404761D02*
X161883390Y-105309523D01*
X161883390Y-105309523D02*
X161931009Y-105261904D01*
X161931009Y-105261904D02*
X162026247Y-105214285D01*
X162026247Y-105214285D02*
X162264342Y-105214285D01*
X162264342Y-105214285D02*
X162359580Y-105261904D01*
X162359580Y-105261904D02*
X162407200Y-105309523D01*
X162407200Y-105309523D02*
X162454819Y-105404761D01*
X162454819Y-105404761D02*
X162454819Y-105642856D01*
X162454819Y-105642856D02*
X162407200Y-105738094D01*
X162407200Y-105738094D02*
X162359580Y-105785713D01*
X146638095Y-82854819D02*
X147209523Y-82854819D01*
X146923809Y-83854819D02*
X146923809Y-82854819D01*
X147542857Y-83854819D02*
X147542857Y-82854819D01*
X147542857Y-82854819D02*
X147923809Y-82854819D01*
X147923809Y-82854819D02*
X148019047Y-82902438D01*
X148019047Y-82902438D02*
X148066666Y-82950057D01*
X148066666Y-82950057D02*
X148114285Y-83045295D01*
X148114285Y-83045295D02*
X148114285Y-83188152D01*
X148114285Y-83188152D02*
X148066666Y-83283390D01*
X148066666Y-83283390D02*
X148019047Y-83331009D01*
X148019047Y-83331009D02*
X147923809Y-83378628D01*
X147923809Y-83378628D02*
X147542857Y-83378628D01*
X149066666Y-83854819D02*
X148495238Y-83854819D01*
X148780952Y-83854819D02*
X148780952Y-82854819D01*
X148780952Y-82854819D02*
X148685714Y-82997676D01*
X148685714Y-82997676D02*
X148590476Y-83092914D01*
X148590476Y-83092914D02*
X148495238Y-83140533D01*
X146257142Y-112704819D02*
X145923809Y-112228628D01*
X145685714Y-112704819D02*
X145685714Y-111704819D01*
X145685714Y-111704819D02*
X146066666Y-111704819D01*
X146066666Y-111704819D02*
X146161904Y-111752438D01*
X146161904Y-111752438D02*
X146209523Y-111800057D01*
X146209523Y-111800057D02*
X146257142Y-111895295D01*
X146257142Y-111895295D02*
X146257142Y-112038152D01*
X146257142Y-112038152D02*
X146209523Y-112133390D01*
X146209523Y-112133390D02*
X146161904Y-112181009D01*
X146161904Y-112181009D02*
X146066666Y-112228628D01*
X146066666Y-112228628D02*
X145685714Y-112228628D01*
X147209523Y-112704819D02*
X146638095Y-112704819D01*
X146923809Y-112704819D02*
X146923809Y-111704819D01*
X146923809Y-111704819D02*
X146828571Y-111847676D01*
X146828571Y-111847676D02*
X146733333Y-111942914D01*
X146733333Y-111942914D02*
X146638095Y-111990533D01*
X147542857Y-111704819D02*
X148161904Y-111704819D01*
X148161904Y-111704819D02*
X147828571Y-112085771D01*
X147828571Y-112085771D02*
X147971428Y-112085771D01*
X147971428Y-112085771D02*
X148066666Y-112133390D01*
X148066666Y-112133390D02*
X148114285Y-112181009D01*
X148114285Y-112181009D02*
X148161904Y-112276247D01*
X148161904Y-112276247D02*
X148161904Y-112514342D01*
X148161904Y-112514342D02*
X148114285Y-112609580D01*
X148114285Y-112609580D02*
X148066666Y-112657200D01*
X148066666Y-112657200D02*
X147971428Y-112704819D01*
X147971428Y-112704819D02*
X147685714Y-112704819D01*
X147685714Y-112704819D02*
X147590476Y-112657200D01*
X147590476Y-112657200D02*
X147542857Y-112609580D01*
X152534819Y-119121904D02*
X153344342Y-119121904D01*
X153344342Y-119121904D02*
X153439580Y-119074285D01*
X153439580Y-119074285D02*
X153487200Y-119026666D01*
X153487200Y-119026666D02*
X153534819Y-118931428D01*
X153534819Y-118931428D02*
X153534819Y-118740952D01*
X153534819Y-118740952D02*
X153487200Y-118645714D01*
X153487200Y-118645714D02*
X153439580Y-118598095D01*
X153439580Y-118598095D02*
X153344342Y-118550476D01*
X153344342Y-118550476D02*
X152534819Y-118550476D01*
X152534819Y-117598095D02*
X152534819Y-118074285D01*
X152534819Y-118074285D02*
X153011009Y-118121904D01*
X153011009Y-118121904D02*
X152963390Y-118074285D01*
X152963390Y-118074285D02*
X152915771Y-117979047D01*
X152915771Y-117979047D02*
X152915771Y-117740952D01*
X152915771Y-117740952D02*
X152963390Y-117645714D01*
X152963390Y-117645714D02*
X153011009Y-117598095D01*
X153011009Y-117598095D02*
X153106247Y-117550476D01*
X153106247Y-117550476D02*
X153344342Y-117550476D01*
X153344342Y-117550476D02*
X153439580Y-117598095D01*
X153439580Y-117598095D02*
X153487200Y-117645714D01*
X153487200Y-117645714D02*
X153534819Y-117740952D01*
X153534819Y-117740952D02*
X153534819Y-117979047D01*
X153534819Y-117979047D02*
X153487200Y-118074285D01*
X153487200Y-118074285D02*
X153439580Y-118121904D01*
X155488095Y-83314819D02*
X156059523Y-83314819D01*
X155773809Y-84314819D02*
X155773809Y-83314819D01*
X156392857Y-84314819D02*
X156392857Y-83314819D01*
X156392857Y-83314819D02*
X156773809Y-83314819D01*
X156773809Y-83314819D02*
X156869047Y-83362438D01*
X156869047Y-83362438D02*
X156916666Y-83410057D01*
X156916666Y-83410057D02*
X156964285Y-83505295D01*
X156964285Y-83505295D02*
X156964285Y-83648152D01*
X156964285Y-83648152D02*
X156916666Y-83743390D01*
X156916666Y-83743390D02*
X156869047Y-83791009D01*
X156869047Y-83791009D02*
X156773809Y-83838628D01*
X156773809Y-83838628D02*
X156392857Y-83838628D01*
X157345238Y-83410057D02*
X157392857Y-83362438D01*
X157392857Y-83362438D02*
X157488095Y-83314819D01*
X157488095Y-83314819D02*
X157726190Y-83314819D01*
X157726190Y-83314819D02*
X157821428Y-83362438D01*
X157821428Y-83362438D02*
X157869047Y-83410057D01*
X157869047Y-83410057D02*
X157916666Y-83505295D01*
X157916666Y-83505295D02*
X157916666Y-83600533D01*
X157916666Y-83600533D02*
X157869047Y-83743390D01*
X157869047Y-83743390D02*
X157297619Y-84314819D01*
X157297619Y-84314819D02*
X157916666Y-84314819D01*
X157277201Y-122067177D02*
X156801010Y-122400510D01*
X157277201Y-122638605D02*
X156277201Y-122638605D01*
X156277201Y-122638605D02*
X156277201Y-122257653D01*
X156277201Y-122257653D02*
X156324820Y-122162415D01*
X156324820Y-122162415D02*
X156372439Y-122114796D01*
X156372439Y-122114796D02*
X156467677Y-122067177D01*
X156467677Y-122067177D02*
X156610534Y-122067177D01*
X156610534Y-122067177D02*
X156705772Y-122114796D01*
X156705772Y-122114796D02*
X156753391Y-122162415D01*
X156753391Y-122162415D02*
X156801010Y-122257653D01*
X156801010Y-122257653D02*
X156801010Y-122638605D01*
X157277201Y-121114796D02*
X157277201Y-121686224D01*
X157277201Y-121400510D02*
X156277201Y-121400510D01*
X156277201Y-121400510D02*
X156420058Y-121495748D01*
X156420058Y-121495748D02*
X156515296Y-121590986D01*
X156515296Y-121590986D02*
X156562915Y-121686224D01*
X156277201Y-120495748D02*
X156277201Y-120400510D01*
X156277201Y-120400510D02*
X156324820Y-120305272D01*
X156324820Y-120305272D02*
X156372439Y-120257653D01*
X156372439Y-120257653D02*
X156467677Y-120210034D01*
X156467677Y-120210034D02*
X156658153Y-120162415D01*
X156658153Y-120162415D02*
X156896248Y-120162415D01*
X156896248Y-120162415D02*
X157086724Y-120210034D01*
X157086724Y-120210034D02*
X157181962Y-120257653D01*
X157181962Y-120257653D02*
X157229582Y-120305272D01*
X157229582Y-120305272D02*
X157277201Y-120400510D01*
X157277201Y-120400510D02*
X157277201Y-120495748D01*
X157277201Y-120495748D02*
X157229582Y-120590986D01*
X157229582Y-120590986D02*
X157181962Y-120638605D01*
X157181962Y-120638605D02*
X157086724Y-120686224D01*
X157086724Y-120686224D02*
X156896248Y-120733843D01*
X156896248Y-120733843D02*
X156658153Y-120733843D01*
X156658153Y-120733843D02*
X156467677Y-120686224D01*
X156467677Y-120686224D02*
X156372439Y-120638605D01*
X156372439Y-120638605D02*
X156324820Y-120590986D01*
X156324820Y-120590986D02*
X156277201Y-120495748D01*
X155977201Y-122067177D02*
X155501010Y-122400510D01*
X155977201Y-122638605D02*
X154977201Y-122638605D01*
X154977201Y-122638605D02*
X154977201Y-122257653D01*
X154977201Y-122257653D02*
X155024820Y-122162415D01*
X155024820Y-122162415D02*
X155072439Y-122114796D01*
X155072439Y-122114796D02*
X155167677Y-122067177D01*
X155167677Y-122067177D02*
X155310534Y-122067177D01*
X155310534Y-122067177D02*
X155405772Y-122114796D01*
X155405772Y-122114796D02*
X155453391Y-122162415D01*
X155453391Y-122162415D02*
X155501010Y-122257653D01*
X155501010Y-122257653D02*
X155501010Y-122638605D01*
X155977201Y-121114796D02*
X155977201Y-121686224D01*
X155977201Y-121400510D02*
X154977201Y-121400510D01*
X154977201Y-121400510D02*
X155120058Y-121495748D01*
X155120058Y-121495748D02*
X155215296Y-121590986D01*
X155215296Y-121590986D02*
X155262915Y-121686224D01*
X155977201Y-120162415D02*
X155977201Y-120733843D01*
X155977201Y-120448129D02*
X154977201Y-120448129D01*
X154977201Y-120448129D02*
X155120058Y-120543367D01*
X155120058Y-120543367D02*
X155215296Y-120638605D01*
X155215296Y-120638605D02*
X155262915Y-120733843D01*
X158484761Y-115880057D02*
X158389523Y-115832438D01*
X158389523Y-115832438D02*
X158294285Y-115737200D01*
X158294285Y-115737200D02*
X158151428Y-115594342D01*
X158151428Y-115594342D02*
X158056190Y-115546723D01*
X158056190Y-115546723D02*
X157960952Y-115546723D01*
X158008571Y-115784819D02*
X157913333Y-115737200D01*
X157913333Y-115737200D02*
X157818095Y-115641961D01*
X157818095Y-115641961D02*
X157770476Y-115451485D01*
X157770476Y-115451485D02*
X157770476Y-115118152D01*
X157770476Y-115118152D02*
X157818095Y-114927676D01*
X157818095Y-114927676D02*
X157913333Y-114832438D01*
X157913333Y-114832438D02*
X158008571Y-114784819D01*
X158008571Y-114784819D02*
X158199047Y-114784819D01*
X158199047Y-114784819D02*
X158294285Y-114832438D01*
X158294285Y-114832438D02*
X158389523Y-114927676D01*
X158389523Y-114927676D02*
X158437142Y-115118152D01*
X158437142Y-115118152D02*
X158437142Y-115451485D01*
X158437142Y-115451485D02*
X158389523Y-115641961D01*
X158389523Y-115641961D02*
X158294285Y-115737200D01*
X158294285Y-115737200D02*
X158199047Y-115784819D01*
X158199047Y-115784819D02*
X158008571Y-115784819D01*
X159341904Y-114784819D02*
X158865714Y-114784819D01*
X158865714Y-114784819D02*
X158818095Y-115261009D01*
X158818095Y-115261009D02*
X158865714Y-115213390D01*
X158865714Y-115213390D02*
X158960952Y-115165771D01*
X158960952Y-115165771D02*
X159199047Y-115165771D01*
X159199047Y-115165771D02*
X159294285Y-115213390D01*
X159294285Y-115213390D02*
X159341904Y-115261009D01*
X159341904Y-115261009D02*
X159389523Y-115356247D01*
X159389523Y-115356247D02*
X159389523Y-115594342D01*
X159389523Y-115594342D02*
X159341904Y-115689580D01*
X159341904Y-115689580D02*
X159294285Y-115737200D01*
X159294285Y-115737200D02*
X159199047Y-115784819D01*
X159199047Y-115784819D02*
X158960952Y-115784819D01*
X158960952Y-115784819D02*
X158865714Y-115737200D01*
X158865714Y-115737200D02*
X158818095Y-115689580D01*
X163957142Y-117694819D02*
X163623809Y-117218628D01*
X163385714Y-117694819D02*
X163385714Y-116694819D01*
X163385714Y-116694819D02*
X163766666Y-116694819D01*
X163766666Y-116694819D02*
X163861904Y-116742438D01*
X163861904Y-116742438D02*
X163909523Y-116790057D01*
X163909523Y-116790057D02*
X163957142Y-116885295D01*
X163957142Y-116885295D02*
X163957142Y-117028152D01*
X163957142Y-117028152D02*
X163909523Y-117123390D01*
X163909523Y-117123390D02*
X163861904Y-117171009D01*
X163861904Y-117171009D02*
X163766666Y-117218628D01*
X163766666Y-117218628D02*
X163385714Y-117218628D01*
X164909523Y-117694819D02*
X164338095Y-117694819D01*
X164623809Y-117694819D02*
X164623809Y-116694819D01*
X164623809Y-116694819D02*
X164528571Y-116837676D01*
X164528571Y-116837676D02*
X164433333Y-116932914D01*
X164433333Y-116932914D02*
X164338095Y-116980533D01*
X165814285Y-116694819D02*
X165338095Y-116694819D01*
X165338095Y-116694819D02*
X165290476Y-117171009D01*
X165290476Y-117171009D02*
X165338095Y-117123390D01*
X165338095Y-117123390D02*
X165433333Y-117075771D01*
X165433333Y-117075771D02*
X165671428Y-117075771D01*
X165671428Y-117075771D02*
X165766666Y-117123390D01*
X165766666Y-117123390D02*
X165814285Y-117171009D01*
X165814285Y-117171009D02*
X165861904Y-117266247D01*
X165861904Y-117266247D02*
X165861904Y-117504342D01*
X165861904Y-117504342D02*
X165814285Y-117599580D01*
X165814285Y-117599580D02*
X165766666Y-117647200D01*
X165766666Y-117647200D02*
X165671428Y-117694819D01*
X165671428Y-117694819D02*
X165433333Y-117694819D01*
X165433333Y-117694819D02*
X165338095Y-117647200D01*
X165338095Y-117647200D02*
X165290476Y-117599580D01*
X167029819Y-119242857D02*
X166553628Y-119576190D01*
X167029819Y-119814285D02*
X166029819Y-119814285D01*
X166029819Y-119814285D02*
X166029819Y-119433333D01*
X166029819Y-119433333D02*
X166077438Y-119338095D01*
X166077438Y-119338095D02*
X166125057Y-119290476D01*
X166125057Y-119290476D02*
X166220295Y-119242857D01*
X166220295Y-119242857D02*
X166363152Y-119242857D01*
X166363152Y-119242857D02*
X166458390Y-119290476D01*
X166458390Y-119290476D02*
X166506009Y-119338095D01*
X166506009Y-119338095D02*
X166553628Y-119433333D01*
X166553628Y-119433333D02*
X166553628Y-119814285D01*
X167029819Y-118290476D02*
X167029819Y-118861904D01*
X167029819Y-118576190D02*
X166029819Y-118576190D01*
X166029819Y-118576190D02*
X166172676Y-118671428D01*
X166172676Y-118671428D02*
X166267914Y-118766666D01*
X166267914Y-118766666D02*
X166315533Y-118861904D01*
X166125057Y-117909523D02*
X166077438Y-117861904D01*
X166077438Y-117861904D02*
X166029819Y-117766666D01*
X166029819Y-117766666D02*
X166029819Y-117528571D01*
X166029819Y-117528571D02*
X166077438Y-117433333D01*
X166077438Y-117433333D02*
X166125057Y-117385714D01*
X166125057Y-117385714D02*
X166220295Y-117338095D01*
X166220295Y-117338095D02*
X166315533Y-117338095D01*
X166315533Y-117338095D02*
X166458390Y-117385714D01*
X166458390Y-117385714D02*
X167029819Y-117957142D01*
X167029819Y-117957142D02*
X167029819Y-117338095D01*
X170054819Y-116542857D02*
X169578628Y-116876190D01*
X170054819Y-117114285D02*
X169054819Y-117114285D01*
X169054819Y-117114285D02*
X169054819Y-116733333D01*
X169054819Y-116733333D02*
X169102438Y-116638095D01*
X169102438Y-116638095D02*
X169150057Y-116590476D01*
X169150057Y-116590476D02*
X169245295Y-116542857D01*
X169245295Y-116542857D02*
X169388152Y-116542857D01*
X169388152Y-116542857D02*
X169483390Y-116590476D01*
X169483390Y-116590476D02*
X169531009Y-116638095D01*
X169531009Y-116638095D02*
X169578628Y-116733333D01*
X169578628Y-116733333D02*
X169578628Y-117114285D01*
X170054819Y-115590476D02*
X170054819Y-116161904D01*
X170054819Y-115876190D02*
X169054819Y-115876190D01*
X169054819Y-115876190D02*
X169197676Y-115971428D01*
X169197676Y-115971428D02*
X169292914Y-116066666D01*
X169292914Y-116066666D02*
X169340533Y-116161904D01*
X169054819Y-115257142D02*
X169054819Y-114590476D01*
X169054819Y-114590476D02*
X170054819Y-115019047D01*
X135419047Y-84371009D02*
X135561904Y-84418628D01*
X135561904Y-84418628D02*
X135609523Y-84466247D01*
X135609523Y-84466247D02*
X135657142Y-84561485D01*
X135657142Y-84561485D02*
X135657142Y-84704342D01*
X135657142Y-84704342D02*
X135609523Y-84799580D01*
X135609523Y-84799580D02*
X135561904Y-84847200D01*
X135561904Y-84847200D02*
X135466666Y-84894819D01*
X135466666Y-84894819D02*
X135085714Y-84894819D01*
X135085714Y-84894819D02*
X135085714Y-83894819D01*
X135085714Y-83894819D02*
X135419047Y-83894819D01*
X135419047Y-83894819D02*
X135514285Y-83942438D01*
X135514285Y-83942438D02*
X135561904Y-83990057D01*
X135561904Y-83990057D02*
X135609523Y-84085295D01*
X135609523Y-84085295D02*
X135609523Y-84180533D01*
X135609523Y-84180533D02*
X135561904Y-84275771D01*
X135561904Y-84275771D02*
X135514285Y-84323390D01*
X135514285Y-84323390D02*
X135419047Y-84371009D01*
X135419047Y-84371009D02*
X135085714Y-84371009D01*
X135990476Y-83894819D02*
X136657142Y-83894819D01*
X136657142Y-83894819D02*
X135990476Y-84894819D01*
X135990476Y-84894819D02*
X136657142Y-84894819D01*
X137561904Y-84894819D02*
X136990476Y-84894819D01*
X137276190Y-84894819D02*
X137276190Y-83894819D01*
X137276190Y-83894819D02*
X137180952Y-84037676D01*
X137180952Y-84037676D02*
X137085714Y-84132914D01*
X137085714Y-84132914D02*
X136990476Y-84180533D01*
X134319048Y-87113866D02*
X135080953Y-87113866D01*
X134700000Y-87494819D02*
X134700000Y-86732914D01*
X140238095Y-101679819D02*
X140238095Y-102489342D01*
X140238095Y-102489342D02*
X140285714Y-102584580D01*
X140285714Y-102584580D02*
X140333333Y-102632200D01*
X140333333Y-102632200D02*
X140428571Y-102679819D01*
X140428571Y-102679819D02*
X140619047Y-102679819D01*
X140619047Y-102679819D02*
X140714285Y-102632200D01*
X140714285Y-102632200D02*
X140761904Y-102584580D01*
X140761904Y-102584580D02*
X140809523Y-102489342D01*
X140809523Y-102489342D02*
X140809523Y-101679819D01*
X141714285Y-102013152D02*
X141714285Y-102679819D01*
X141476190Y-101632200D02*
X141238095Y-102346485D01*
X141238095Y-102346485D02*
X141857142Y-102346485D01*
X132663095Y-74409819D02*
X132663095Y-73409819D01*
X132663095Y-73886009D02*
X133234523Y-73886009D01*
X133234523Y-74409819D02*
X133234523Y-73409819D01*
X134139285Y-73743152D02*
X134139285Y-74409819D01*
X133901190Y-73362200D02*
X133663095Y-74076485D01*
X133663095Y-74076485D02*
X134282142Y-74076485D01*
X138004761Y-95470057D02*
X137909523Y-95422438D01*
X137909523Y-95422438D02*
X137814285Y-95327200D01*
X137814285Y-95327200D02*
X137671428Y-95184342D01*
X137671428Y-95184342D02*
X137576190Y-95136723D01*
X137576190Y-95136723D02*
X137480952Y-95136723D01*
X137528571Y-95374819D02*
X137433333Y-95327200D01*
X137433333Y-95327200D02*
X137338095Y-95231961D01*
X137338095Y-95231961D02*
X137290476Y-95041485D01*
X137290476Y-95041485D02*
X137290476Y-94708152D01*
X137290476Y-94708152D02*
X137338095Y-94517676D01*
X137338095Y-94517676D02*
X137433333Y-94422438D01*
X137433333Y-94422438D02*
X137528571Y-94374819D01*
X137528571Y-94374819D02*
X137719047Y-94374819D01*
X137719047Y-94374819D02*
X137814285Y-94422438D01*
X137814285Y-94422438D02*
X137909523Y-94517676D01*
X137909523Y-94517676D02*
X137957142Y-94708152D01*
X137957142Y-94708152D02*
X137957142Y-95041485D01*
X137957142Y-95041485D02*
X137909523Y-95231961D01*
X137909523Y-95231961D02*
X137814285Y-95327200D01*
X137814285Y-95327200D02*
X137719047Y-95374819D01*
X137719047Y-95374819D02*
X137528571Y-95374819D01*
X138290476Y-94374819D02*
X138909523Y-94374819D01*
X138909523Y-94374819D02*
X138576190Y-94755771D01*
X138576190Y-94755771D02*
X138719047Y-94755771D01*
X138719047Y-94755771D02*
X138814285Y-94803390D01*
X138814285Y-94803390D02*
X138861904Y-94851009D01*
X138861904Y-94851009D02*
X138909523Y-94946247D01*
X138909523Y-94946247D02*
X138909523Y-95184342D01*
X138909523Y-95184342D02*
X138861904Y-95279580D01*
X138861904Y-95279580D02*
X138814285Y-95327200D01*
X138814285Y-95327200D02*
X138719047Y-95374819D01*
X138719047Y-95374819D02*
X138433333Y-95374819D01*
X138433333Y-95374819D02*
X138338095Y-95327200D01*
X138338095Y-95327200D02*
X138290476Y-95279580D01*
X142058333Y-112109580D02*
X142010714Y-112157200D01*
X142010714Y-112157200D02*
X141867857Y-112204819D01*
X141867857Y-112204819D02*
X141772619Y-112204819D01*
X141772619Y-112204819D02*
X141629762Y-112157200D01*
X141629762Y-112157200D02*
X141534524Y-112061961D01*
X141534524Y-112061961D02*
X141486905Y-111966723D01*
X141486905Y-111966723D02*
X141439286Y-111776247D01*
X141439286Y-111776247D02*
X141439286Y-111633390D01*
X141439286Y-111633390D02*
X141486905Y-111442914D01*
X141486905Y-111442914D02*
X141534524Y-111347676D01*
X141534524Y-111347676D02*
X141629762Y-111252438D01*
X141629762Y-111252438D02*
X141772619Y-111204819D01*
X141772619Y-111204819D02*
X141867857Y-111204819D01*
X141867857Y-111204819D02*
X142010714Y-111252438D01*
X142010714Y-111252438D02*
X142058333Y-111300057D01*
X142391667Y-111204819D02*
X143058333Y-111204819D01*
X143058333Y-111204819D02*
X142629762Y-112204819D01*
X140614819Y-93782857D02*
X140138628Y-94116190D01*
X140614819Y-94354285D02*
X139614819Y-94354285D01*
X139614819Y-94354285D02*
X139614819Y-93973333D01*
X139614819Y-93973333D02*
X139662438Y-93878095D01*
X139662438Y-93878095D02*
X139710057Y-93830476D01*
X139710057Y-93830476D02*
X139805295Y-93782857D01*
X139805295Y-93782857D02*
X139948152Y-93782857D01*
X139948152Y-93782857D02*
X140043390Y-93830476D01*
X140043390Y-93830476D02*
X140091009Y-93878095D01*
X140091009Y-93878095D02*
X140138628Y-93973333D01*
X140138628Y-93973333D02*
X140138628Y-94354285D01*
X140614819Y-92830476D02*
X140614819Y-93401904D01*
X140614819Y-93116190D02*
X139614819Y-93116190D01*
X139614819Y-93116190D02*
X139757676Y-93211428D01*
X139757676Y-93211428D02*
X139852914Y-93306666D01*
X139852914Y-93306666D02*
X139900533Y-93401904D01*
X140043390Y-92259047D02*
X139995771Y-92354285D01*
X139995771Y-92354285D02*
X139948152Y-92401904D01*
X139948152Y-92401904D02*
X139852914Y-92449523D01*
X139852914Y-92449523D02*
X139805295Y-92449523D01*
X139805295Y-92449523D02*
X139710057Y-92401904D01*
X139710057Y-92401904D02*
X139662438Y-92354285D01*
X139662438Y-92354285D02*
X139614819Y-92259047D01*
X139614819Y-92259047D02*
X139614819Y-92068571D01*
X139614819Y-92068571D02*
X139662438Y-91973333D01*
X139662438Y-91973333D02*
X139710057Y-91925714D01*
X139710057Y-91925714D02*
X139805295Y-91878095D01*
X139805295Y-91878095D02*
X139852914Y-91878095D01*
X139852914Y-91878095D02*
X139948152Y-91925714D01*
X139948152Y-91925714D02*
X139995771Y-91973333D01*
X139995771Y-91973333D02*
X140043390Y-92068571D01*
X140043390Y-92068571D02*
X140043390Y-92259047D01*
X140043390Y-92259047D02*
X140091009Y-92354285D01*
X140091009Y-92354285D02*
X140138628Y-92401904D01*
X140138628Y-92401904D02*
X140233866Y-92449523D01*
X140233866Y-92449523D02*
X140424342Y-92449523D01*
X140424342Y-92449523D02*
X140519580Y-92401904D01*
X140519580Y-92401904D02*
X140567200Y-92354285D01*
X140567200Y-92354285D02*
X140614819Y-92259047D01*
X140614819Y-92259047D02*
X140614819Y-92068571D01*
X140614819Y-92068571D02*
X140567200Y-91973333D01*
X140567200Y-91973333D02*
X140519580Y-91925714D01*
X140519580Y-91925714D02*
X140424342Y-91878095D01*
X140424342Y-91878095D02*
X140233866Y-91878095D01*
X140233866Y-91878095D02*
X140138628Y-91925714D01*
X140138628Y-91925714D02*
X140091009Y-91973333D01*
X140091009Y-91973333D02*
X140043390Y-92068571D01*
X142699819Y-125058333D02*
X143414104Y-125058333D01*
X143414104Y-125058333D02*
X143556961Y-125105952D01*
X143556961Y-125105952D02*
X143652200Y-125201190D01*
X143652200Y-125201190D02*
X143699819Y-125344047D01*
X143699819Y-125344047D02*
X143699819Y-125439285D01*
X143699819Y-124058333D02*
X143699819Y-124629761D01*
X143699819Y-124344047D02*
X142699819Y-124344047D01*
X142699819Y-124344047D02*
X142842676Y-124439285D01*
X142842676Y-124439285D02*
X142937914Y-124534523D01*
X142937914Y-124534523D02*
X142985533Y-124629761D01*
X136504819Y-97702857D02*
X136028628Y-98036190D01*
X136504819Y-98274285D02*
X135504819Y-98274285D01*
X135504819Y-98274285D02*
X135504819Y-97893333D01*
X135504819Y-97893333D02*
X135552438Y-97798095D01*
X135552438Y-97798095D02*
X135600057Y-97750476D01*
X135600057Y-97750476D02*
X135695295Y-97702857D01*
X135695295Y-97702857D02*
X135838152Y-97702857D01*
X135838152Y-97702857D02*
X135933390Y-97750476D01*
X135933390Y-97750476D02*
X135981009Y-97798095D01*
X135981009Y-97798095D02*
X136028628Y-97893333D01*
X136028628Y-97893333D02*
X136028628Y-98274285D01*
X136504819Y-96750476D02*
X136504819Y-97321904D01*
X136504819Y-97036190D02*
X135504819Y-97036190D01*
X135504819Y-97036190D02*
X135647676Y-97131428D01*
X135647676Y-97131428D02*
X135742914Y-97226666D01*
X135742914Y-97226666D02*
X135790533Y-97321904D01*
X136504819Y-96274285D02*
X136504819Y-96083809D01*
X136504819Y-96083809D02*
X136457200Y-95988571D01*
X136457200Y-95988571D02*
X136409580Y-95940952D01*
X136409580Y-95940952D02*
X136266723Y-95845714D01*
X136266723Y-95845714D02*
X136076247Y-95798095D01*
X136076247Y-95798095D02*
X135695295Y-95798095D01*
X135695295Y-95798095D02*
X135600057Y-95845714D01*
X135600057Y-95845714D02*
X135552438Y-95893333D01*
X135552438Y-95893333D02*
X135504819Y-95988571D01*
X135504819Y-95988571D02*
X135504819Y-96179047D01*
X135504819Y-96179047D02*
X135552438Y-96274285D01*
X135552438Y-96274285D02*
X135600057Y-96321904D01*
X135600057Y-96321904D02*
X135695295Y-96369523D01*
X135695295Y-96369523D02*
X135933390Y-96369523D01*
X135933390Y-96369523D02*
X136028628Y-96321904D01*
X136028628Y-96321904D02*
X136076247Y-96274285D01*
X136076247Y-96274285D02*
X136123866Y-96179047D01*
X136123866Y-96179047D02*
X136123866Y-95988571D01*
X136123866Y-95988571D02*
X136076247Y-95893333D01*
X136076247Y-95893333D02*
X136028628Y-95845714D01*
X136028628Y-95845714D02*
X135933390Y-95798095D01*
X141247319Y-121983333D02*
X141961604Y-121983333D01*
X141961604Y-121983333D02*
X142104461Y-122030952D01*
X142104461Y-122030952D02*
X142199700Y-122126190D01*
X142199700Y-122126190D02*
X142247319Y-122269047D01*
X142247319Y-122269047D02*
X142247319Y-122364285D01*
X141247319Y-121602380D02*
X141247319Y-120983333D01*
X141247319Y-120983333D02*
X141628271Y-121316666D01*
X141628271Y-121316666D02*
X141628271Y-121173809D01*
X141628271Y-121173809D02*
X141675890Y-121078571D01*
X141675890Y-121078571D02*
X141723509Y-121030952D01*
X141723509Y-121030952D02*
X141818747Y-120983333D01*
X141818747Y-120983333D02*
X142056842Y-120983333D01*
X142056842Y-120983333D02*
X142152080Y-121030952D01*
X142152080Y-121030952D02*
X142199700Y-121078571D01*
X142199700Y-121078571D02*
X142247319Y-121173809D01*
X142247319Y-121173809D02*
X142247319Y-121459523D01*
X142247319Y-121459523D02*
X142199700Y-121554761D01*
X142199700Y-121554761D02*
X142152080Y-121602380D01*
X166813095Y-74409819D02*
X166813095Y-73409819D01*
X166813095Y-73886009D02*
X167384523Y-73886009D01*
X167384523Y-74409819D02*
X167384523Y-73409819D01*
X167765476Y-73409819D02*
X168384523Y-73409819D01*
X168384523Y-73409819D02*
X168051190Y-73790771D01*
X168051190Y-73790771D02*
X168194047Y-73790771D01*
X168194047Y-73790771D02*
X168289285Y-73838390D01*
X168289285Y-73838390D02*
X168336904Y-73886009D01*
X168336904Y-73886009D02*
X168384523Y-73981247D01*
X168384523Y-73981247D02*
X168384523Y-74219342D01*
X168384523Y-74219342D02*
X168336904Y-74314580D01*
X168336904Y-74314580D02*
X168289285Y-74362200D01*
X168289285Y-74362200D02*
X168194047Y-74409819D01*
X168194047Y-74409819D02*
X167908333Y-74409819D01*
X167908333Y-74409819D02*
X167813095Y-74362200D01*
X167813095Y-74362200D02*
X167765476Y-74314580D01*
D12*
%TO.C,Q1*%
X163500000Y-105840000D02*
X162850000Y-105840000D01*
X163500000Y-105840000D02*
X164150000Y-105840000D01*
X163500000Y-108960000D02*
X162850000Y-108960000D01*
X163500000Y-108960000D02*
X164150000Y-108960000D01*
X164902500Y-109240000D02*
X164422500Y-109240000D01*
X164662500Y-108910000D01*
X164902500Y-109240000D01*
G36*
X164902500Y-109240000D02*
G01*
X164422500Y-109240000D01*
X164662500Y-108910000D01*
X164902500Y-109240000D01*
G37*
%TO.C,R1*%
X165734312Y-106912742D02*
X165734312Y-107387258D01*
X166779312Y-106912742D02*
X166779312Y-107387258D01*
%TO.C,U2*%
X150749000Y-106152000D02*
X148799000Y-106152000D01*
X150749000Y-106152000D02*
X152699000Y-106152000D01*
X150749000Y-111272000D02*
X148799000Y-111272000D01*
X150749000Y-111272000D02*
X152699000Y-111272000D01*
X148049000Y-106247000D02*
X147809000Y-105917000D01*
X148289000Y-105917000D01*
X148049000Y-106247000D01*
G36*
X148049000Y-106247000D02*
G01*
X147809000Y-105917000D01*
X148289000Y-105917000D01*
X148049000Y-106247000D01*
G37*
%TO.C,C4*%
X154790000Y-108459420D02*
X154790000Y-108740580D01*
X155810000Y-108459420D02*
X155810000Y-108740580D01*
%TO.C,L2*%
X146800000Y-117600000D02*
X146800000Y-118100000D01*
X146800000Y-117600000D02*
X152200000Y-117600000D01*
X146800000Y-122500000D02*
X146800000Y-122000000D01*
X146800000Y-122500000D02*
X147300000Y-122500000D01*
X147300000Y-122500000D02*
X152200000Y-122500000D01*
X152200000Y-117600000D02*
X152200000Y-118100000D01*
X152200000Y-122500000D02*
X152200000Y-122000000D01*
%TO.C,C5*%
X144790000Y-91390580D02*
X144790000Y-91109420D01*
X145810000Y-91390580D02*
X145810000Y-91109420D01*
%TO.C,Q2*%
X160380000Y-110580000D02*
X159730000Y-110580000D01*
X160380000Y-110580000D02*
X161030000Y-110580000D01*
X160380000Y-113700000D02*
X159730000Y-113700000D01*
X160380000Y-113700000D02*
X161030000Y-113700000D01*
X161782500Y-113980000D02*
X161302500Y-113980000D01*
X161542500Y-113650000D01*
X161782500Y-113980000D01*
G36*
X161782500Y-113980000D02*
G01*
X161302500Y-113980000D01*
X161542500Y-113650000D01*
X161782500Y-113980000D01*
G37*
%TO.C,R3*%
X162587500Y-110927258D02*
X162587500Y-110452742D01*
X163632500Y-110927258D02*
X163632500Y-110452742D01*
%TO.C,R6*%
X156277500Y-108362742D02*
X156277500Y-108837258D01*
X157322500Y-108362742D02*
X157322500Y-108837258D01*
%TO.C,R2*%
X167234312Y-106912742D02*
X167234312Y-107387258D01*
X168279312Y-106912742D02*
X168279312Y-107387258D01*
%TO.C,D1*%
X156178733Y-110490000D02*
X156471267Y-110490000D01*
X156178733Y-111510000D02*
X156471267Y-111510000D01*
%TO.C,R14*%
X150832742Y-112087500D02*
X151307258Y-112087500D01*
X150832742Y-113132500D02*
X151307258Y-113132500D01*
%TO.C,R8*%
X156562258Y-111977500D02*
X156087742Y-111977500D01*
X156562258Y-113022500D02*
X156087742Y-113022500D01*
%TO.C,C10*%
X153665000Y-115309420D02*
X153665000Y-115590580D01*
X154685000Y-115309420D02*
X154685000Y-115590580D01*
%TO.C,C6*%
X144890000Y-95984420D02*
X144890000Y-96265580D01*
X145910000Y-95984420D02*
X145910000Y-96265580D01*
%TO.C,R9*%
X143477500Y-85612742D02*
X143477500Y-86087258D01*
X144522500Y-85612742D02*
X144522500Y-86087258D01*
%TO.C,C12*%
X147159420Y-116090000D02*
X147440580Y-116090000D01*
X147159420Y-117110000D02*
X147440580Y-117110000D01*
%TO.C,C1*%
X158790000Y-107234420D02*
X158790000Y-107515580D01*
X159810000Y-107234420D02*
X159810000Y-107515580D01*
%TO.C,R4*%
X156187742Y-113677500D02*
X156662258Y-113677500D01*
X156187742Y-114722500D02*
X156662258Y-114722500D01*
%TO.C,C13*%
X143290000Y-91390580D02*
X143290000Y-91109420D01*
X144310000Y-91390580D02*
X144310000Y-91109420D01*
%TO.C,C2*%
X144990000Y-85990580D02*
X144990000Y-85709420D01*
X146010000Y-85990580D02*
X146010000Y-85709420D01*
%TO.C,C3*%
X144715580Y-88490000D02*
X144434420Y-88490000D01*
X144715580Y-89510000D02*
X144434420Y-89510000D01*
%TO.C,J4*%
X165300000Y-113100000D02*
X165500000Y-113100000D01*
X165300000Y-113900000D02*
X165300000Y-113100000D01*
X165300000Y-116100000D02*
X165300000Y-115300000D01*
X165500000Y-116100000D02*
X165300000Y-116100000D01*
X168100000Y-113100000D02*
X168300000Y-113100000D01*
X168300000Y-113100000D02*
X168300000Y-113900000D01*
X168300000Y-113900000D02*
X168800000Y-113900000D01*
X168300000Y-115300000D02*
X168300000Y-115900000D01*
X168300000Y-115300000D02*
X168800000Y-115300000D01*
X168300000Y-115900000D02*
X168100000Y-116100000D01*
%TO.C,U1*%
X147380000Y-78628000D02*
X147380000Y-84788000D01*
X147380000Y-78628000D02*
X165620000Y-78628000D01*
X147380000Y-103588000D02*
X147380000Y-104368000D01*
X147380000Y-104368000D02*
X148380000Y-104368000D01*
X165620000Y-78628000D02*
X165620000Y-85043000D01*
X165620000Y-103588000D02*
X165620000Y-104368000D01*
X165620000Y-104368000D02*
X164620000Y-104368000D01*
X147375000Y-85513000D02*
X146875000Y-85513000D01*
X147375000Y-85013000D01*
X147375000Y-85513000D01*
G36*
X147375000Y-85513000D02*
G01*
X146875000Y-85513000D01*
X147375000Y-85013000D01*
X147375000Y-85513000D01*
G37*
%TO.C,Q4*%
X161430000Y-120840000D02*
X161430000Y-120190000D01*
X161430000Y-120840000D02*
X161430000Y-121490000D01*
X164550000Y-120840000D02*
X164550000Y-120190000D01*
X164550000Y-120840000D02*
X164550000Y-121490000D01*
X161480000Y-122002500D02*
X161150000Y-122242500D01*
X161150000Y-121762500D01*
X161480000Y-122002500D01*
G36*
X161480000Y-122002500D02*
G01*
X161150000Y-122242500D01*
X161150000Y-121762500D01*
X161480000Y-122002500D01*
G37*
%TO.C,R16*%
X160777500Y-117162742D02*
X160777500Y-117637258D01*
X161822500Y-117162742D02*
X161822500Y-117637258D01*
%TO.C,C11*%
X147159420Y-114590000D02*
X147440580Y-114590000D01*
X147159420Y-115610000D02*
X147440580Y-115610000D01*
%TO.C,R7*%
X159812742Y-109177500D02*
X160287258Y-109177500D01*
X159812742Y-110222500D02*
X160287258Y-110222500D01*
%TO.C,R5*%
X160277500Y-107137742D02*
X160277500Y-107612258D01*
X161322500Y-107137742D02*
X161322500Y-107612258D01*
%TO.C,TP1*%
X150800000Y-83550000D02*
G75*
G02*
X149400000Y-83550000I-700000J0D01*
G01*
X149400000Y-83550000D02*
G75*
G02*
X150800000Y-83550000I700000J0D01*
G01*
%TO.C,R13*%
X147062742Y-113077500D02*
X147537258Y-113077500D01*
X147062742Y-114122500D02*
X147537258Y-114122500D01*
%TO.C,U5*%
X149840000Y-115450000D02*
X149840000Y-114650000D01*
X149840000Y-115450000D02*
X149840000Y-116250000D01*
X152960000Y-115450000D02*
X152960000Y-114650000D01*
X152960000Y-115450000D02*
X152960000Y-116250000D01*
X149890000Y-116750000D02*
X149560000Y-116990000D01*
X149560000Y-116510000D01*
X149890000Y-116750000D01*
G36*
X149890000Y-116750000D02*
G01*
X149560000Y-116990000D01*
X149560000Y-116510000D01*
X149890000Y-116750000D01*
G37*
%TO.C,TP2*%
X155300000Y-84010000D02*
G75*
G02*
X153900000Y-84010000I-700000J0D01*
G01*
X153900000Y-84010000D02*
G75*
G02*
X155300000Y-84010000I700000J0D01*
G01*
%TO.C,R10*%
X159199882Y-121087062D02*
X159199882Y-121561578D01*
X160244882Y-121087062D02*
X160244882Y-121561578D01*
%TO.C,R11*%
X157599882Y-121062062D02*
X157599882Y-121536578D01*
X158644882Y-121062062D02*
X158644882Y-121536578D01*
%TO.C,Q5*%
X157180000Y-117882500D02*
X157180000Y-117232500D01*
X157180000Y-117882500D02*
X157180000Y-118532500D01*
X160300000Y-117882500D02*
X160300000Y-117232500D01*
X160300000Y-117882500D02*
X160300000Y-118532500D01*
X157230000Y-119045000D02*
X156900000Y-119285000D01*
X156900000Y-118805000D01*
X157230000Y-119045000D01*
G36*
X157230000Y-119045000D02*
G01*
X156900000Y-119285000D01*
X156900000Y-118805000D01*
X157230000Y-119045000D01*
G37*
%TO.C,R15*%
X162277500Y-117162742D02*
X162277500Y-117637258D01*
X163322500Y-117162742D02*
X163322500Y-117637258D01*
%TO.C,R12*%
X167454561Y-118477087D02*
X167454561Y-118951603D01*
X168499561Y-118477087D02*
X168499561Y-118951603D01*
%TO.C,R17*%
X168954561Y-118951603D02*
X168954561Y-118477087D01*
X169999561Y-118951603D02*
X169999561Y-118477087D01*
%TO.C,BZ1*%
X139700000Y-88640000D02*
G75*
G02*
X132900000Y-88640000I-3400000J0D01*
G01*
X132900000Y-88640000D02*
G75*
G02*
X139700000Y-88640000I3400000J0D01*
G01*
%TO.C,U4*%
X132965000Y-98725000D02*
X139385000Y-98725000D01*
X132965000Y-105625000D02*
X139385000Y-105625000D01*
X139385000Y-98725000D02*
X139385000Y-98995000D01*
X139385000Y-105625000D02*
X139385000Y-105355000D01*
X141455000Y-105785000D02*
X140775000Y-105785000D01*
X141115000Y-105315000D01*
X141455000Y-105785000D01*
G36*
X141455000Y-105785000D02*
G01*
X140775000Y-105785000D01*
X141115000Y-105315000D01*
X141455000Y-105785000D01*
G37*
%TO.C,Q3*%
X138970000Y-96390000D02*
X138970000Y-95740000D01*
X138970000Y-96390000D02*
X138970000Y-97040000D01*
X142090000Y-96390000D02*
X142090000Y-95740000D01*
X142090000Y-96390000D02*
X142090000Y-97040000D01*
X142370000Y-95467500D02*
X142040000Y-95227500D01*
X142370000Y-94987500D01*
X142370000Y-95467500D01*
G36*
X142370000Y-95467500D02*
G01*
X142040000Y-95227500D01*
X142370000Y-94987500D01*
X142370000Y-95467500D01*
G37*
%TO.C,C7*%
X137950000Y-106915000D02*
X138450000Y-106915000D01*
X138200000Y-106665000D02*
X138200000Y-107165000D01*
X138690000Y-107279437D02*
X138690000Y-107415000D01*
X138690000Y-107279437D02*
X139754437Y-106215000D01*
X138690000Y-109670563D02*
X138690000Y-109535000D01*
X138690000Y-109670563D02*
X139754437Y-110735000D01*
X139754437Y-106215000D02*
X143210000Y-106215000D01*
X139754437Y-110735000D02*
X143210000Y-110735000D01*
X143210000Y-106215000D02*
X143210000Y-107415000D01*
X143210000Y-110735000D02*
X143210000Y-109535000D01*
%TO.C,R18*%
X140997500Y-92572742D02*
X140997500Y-93047258D01*
X142042500Y-92572742D02*
X142042500Y-93047258D01*
%TO.C,J1*%
X144245000Y-126105000D02*
X144245000Y-124725000D01*
X145625000Y-126105000D02*
X144245000Y-126105000D01*
X146895000Y-123345000D02*
X164785000Y-123345000D01*
X146895000Y-126105000D02*
X146895000Y-123345000D01*
X146895000Y-126105000D02*
X164785000Y-126105000D01*
X164785000Y-126105000D02*
X164785000Y-123345000D01*
%TO.C,R19*%
X137027500Y-96832742D02*
X137027500Y-97307258D01*
X138072500Y-96832742D02*
X138072500Y-97307258D01*
%TO.C,J3*%
X131242500Y-113150000D02*
X131242500Y-112100000D01*
X131442500Y-112300000D02*
X134042500Y-112300000D01*
X131442500Y-127000000D02*
X131442500Y-112300000D01*
X132292500Y-112100000D02*
X131242500Y-112100000D01*
X137942500Y-112300000D02*
X140642500Y-112300000D01*
X140642500Y-112300000D02*
X140642500Y-114200000D01*
X140642500Y-118200000D02*
X140642500Y-127000000D01*
X140642500Y-127000000D02*
X131442500Y-127000000D01*
%TD*%
%LPC*%
D13*
%TO.C,SYM1*%
X168601959Y-86401020D02*
X168611151Y-86406957D01*
X168625677Y-86416545D01*
X168645209Y-86429563D01*
X168669419Y-86445789D01*
X168697978Y-86465002D01*
X168730558Y-86486978D01*
X168766831Y-86511497D01*
X168806467Y-86538336D01*
X168849139Y-86567274D01*
X168894518Y-86598088D01*
X168942276Y-86630558D01*
X168992085Y-86664461D01*
X169043615Y-86699575D01*
X169063757Y-86713311D01*
X169123485Y-86754050D01*
X169186376Y-86796948D01*
X169251674Y-86841489D01*
X169318624Y-86887156D01*
X169386469Y-86933435D01*
X169454454Y-86979809D01*
X169521822Y-87025764D01*
X169587819Y-87070783D01*
X169651687Y-87114350D01*
X169712671Y-87155951D01*
X169770015Y-87195069D01*
X169822963Y-87231189D01*
X169870759Y-87263795D01*
X169875929Y-87267322D01*
X169921350Y-87298347D01*
X169965060Y-87328282D01*
X170006689Y-87356867D01*
X170045866Y-87383846D01*
X170082221Y-87408959D01*
X170115382Y-87431950D01*
X170144980Y-87452561D01*
X170170644Y-87470533D01*
X170192002Y-87485610D01*
X170208686Y-87497533D01*
X170220323Y-87506044D01*
X170226543Y-87510885D01*
X170227523Y-87511913D01*
X170225460Y-87515752D01*
X170219706Y-87524953D01*
X170210673Y-87538891D01*
X170198775Y-87556944D01*
X170184424Y-87578487D01*
X170168034Y-87602896D01*
X170150018Y-87629549D01*
X170135316Y-87651178D01*
X170043486Y-87785967D01*
X170010508Y-87763103D01*
X170003297Y-87758140D01*
X169990495Y-87749371D01*
X169972511Y-87737075D01*
X169949754Y-87721529D01*
X169922630Y-87703012D01*
X169891548Y-87681802D01*
X169856916Y-87658179D01*
X169819143Y-87632420D01*
X169778636Y-87604803D01*
X169735804Y-87575608D01*
X169691054Y-87545112D01*
X169644795Y-87513594D01*
X169611043Y-87490602D01*
X169557506Y-87454131D01*
X169498919Y-87414215D01*
X169436228Y-87371497D01*
X169370378Y-87326622D01*
X169302313Y-87280234D01*
X169232980Y-87232978D01*
X169163323Y-87185497D01*
X169094288Y-87138436D01*
X169026820Y-87092440D01*
X168961864Y-87048152D01*
X168900366Y-87006217D01*
X168847229Y-86969980D01*
X168798510Y-86936756D01*
X168751193Y-86904495D01*
X168705653Y-86873451D01*
X168662262Y-86843880D01*
X168621394Y-86816034D01*
X168583422Y-86790168D01*
X168548720Y-86766536D01*
X168517661Y-86745393D01*
X168490618Y-86726993D01*
X168467965Y-86711590D01*
X168450074Y-86699438D01*
X168437321Y-86690792D01*
X168430076Y-86685906D01*
X168429036Y-86685212D01*
X168418666Y-86678047D01*
X168411265Y-86672333D01*
X168408383Y-86669268D01*
X168408383Y-86669222D01*
X168410420Y-86665868D01*
X168416165Y-86657151D01*
X168425205Y-86643680D01*
X168437127Y-86626065D01*
X168451517Y-86604914D01*
X168467961Y-86580838D01*
X168486046Y-86554446D01*
X168500949Y-86532757D01*
X168521003Y-86503776D01*
X168539601Y-86477233D01*
X168556350Y-86453668D01*
X168570856Y-86433623D01*
X168582724Y-86417638D01*
X168591561Y-86406253D01*
X168596974Y-86400010D01*
X168598430Y-86398957D01*
X168601959Y-86401020D01*
G36*
X168601959Y-86401020D02*
G01*
X168611151Y-86406957D01*
X168625677Y-86416545D01*
X168645209Y-86429563D01*
X168669419Y-86445789D01*
X168697978Y-86465002D01*
X168730558Y-86486978D01*
X168766831Y-86511497D01*
X168806467Y-86538336D01*
X168849139Y-86567274D01*
X168894518Y-86598088D01*
X168942276Y-86630558D01*
X168992085Y-86664461D01*
X169043615Y-86699575D01*
X169063757Y-86713311D01*
X169123485Y-86754050D01*
X169186376Y-86796948D01*
X169251674Y-86841489D01*
X169318624Y-86887156D01*
X169386469Y-86933435D01*
X169454454Y-86979809D01*
X169521822Y-87025764D01*
X169587819Y-87070783D01*
X169651687Y-87114350D01*
X169712671Y-87155951D01*
X169770015Y-87195069D01*
X169822963Y-87231189D01*
X169870759Y-87263795D01*
X169875929Y-87267322D01*
X169921350Y-87298347D01*
X169965060Y-87328282D01*
X170006689Y-87356867D01*
X170045866Y-87383846D01*
X170082221Y-87408959D01*
X170115382Y-87431950D01*
X170144980Y-87452561D01*
X170170644Y-87470533D01*
X170192002Y-87485610D01*
X170208686Y-87497533D01*
X170220323Y-87506044D01*
X170226543Y-87510885D01*
X170227523Y-87511913D01*
X170225460Y-87515752D01*
X170219706Y-87524953D01*
X170210673Y-87538891D01*
X170198775Y-87556944D01*
X170184424Y-87578487D01*
X170168034Y-87602896D01*
X170150018Y-87629549D01*
X170135316Y-87651178D01*
X170043486Y-87785967D01*
X170010508Y-87763103D01*
X170003297Y-87758140D01*
X169990495Y-87749371D01*
X169972511Y-87737075D01*
X169949754Y-87721529D01*
X169922630Y-87703012D01*
X169891548Y-87681802D01*
X169856916Y-87658179D01*
X169819143Y-87632420D01*
X169778636Y-87604803D01*
X169735804Y-87575608D01*
X169691054Y-87545112D01*
X169644795Y-87513594D01*
X169611043Y-87490602D01*
X169557506Y-87454131D01*
X169498919Y-87414215D01*
X169436228Y-87371497D01*
X169370378Y-87326622D01*
X169302313Y-87280234D01*
X169232980Y-87232978D01*
X169163323Y-87185497D01*
X169094288Y-87138436D01*
X169026820Y-87092440D01*
X168961864Y-87048152D01*
X168900366Y-87006217D01*
X168847229Y-86969980D01*
X168798510Y-86936756D01*
X168751193Y-86904495D01*
X168705653Y-86873451D01*
X168662262Y-86843880D01*
X168621394Y-86816034D01*
X168583422Y-86790168D01*
X168548720Y-86766536D01*
X168517661Y-86745393D01*
X168490618Y-86726993D01*
X168467965Y-86711590D01*
X168450074Y-86699438D01*
X168437321Y-86690792D01*
X168430076Y-86685906D01*
X168429036Y-86685212D01*
X168418666Y-86678047D01*
X168411265Y-86672333D01*
X168408383Y-86669268D01*
X168408383Y-86669222D01*
X168410420Y-86665868D01*
X168416165Y-86657151D01*
X168425205Y-86643680D01*
X168437127Y-86626065D01*
X168451517Y-86604914D01*
X168467961Y-86580838D01*
X168486046Y-86554446D01*
X168500949Y-86532757D01*
X168521003Y-86503776D01*
X168539601Y-86477233D01*
X168556350Y-86453668D01*
X168570856Y-86433623D01*
X168582724Y-86417638D01*
X168591561Y-86406253D01*
X168596974Y-86400010D01*
X168598430Y-86398957D01*
X168601959Y-86401020D01*
G37*
X168597411Y-87547558D02*
X168606604Y-87553477D01*
X168621101Y-87563030D01*
X168640560Y-87575985D01*
X168664637Y-87592110D01*
X168692989Y-87611173D01*
X168725273Y-87632944D01*
X168761147Y-87657191D01*
X168800267Y-87683682D01*
X168842291Y-87712185D01*
X168886874Y-87742470D01*
X168933675Y-87774304D01*
X168982350Y-87807456D01*
X169021534Y-87834174D01*
X169079374Y-87873629D01*
X169140697Y-87915455D01*
X169204680Y-87959090D01*
X169270496Y-88003970D01*
X169337322Y-88049535D01*
X169404333Y-88095221D01*
X169470704Y-88140466D01*
X169535609Y-88184708D01*
X169598224Y-88227385D01*
X169657725Y-88267934D01*
X169713286Y-88305793D01*
X169764082Y-88340400D01*
X169787029Y-88356031D01*
X169839742Y-88391988D01*
X169889238Y-88425857D01*
X169935248Y-88457450D01*
X169977504Y-88486579D01*
X170015739Y-88513059D01*
X170049683Y-88536701D01*
X170079069Y-88557319D01*
X170103628Y-88574725D01*
X170123092Y-88588733D01*
X170137194Y-88599155D01*
X170145664Y-88605805D01*
X170147607Y-88607558D01*
X170167469Y-88632608D01*
X170181849Y-88661157D01*
X170190407Y-88691865D01*
X170192799Y-88723393D01*
X170188686Y-88754400D01*
X170186785Y-88761314D01*
X170176612Y-88787004D01*
X170162594Y-88811399D01*
X170146166Y-88832238D01*
X170135097Y-88842630D01*
X170130790Y-88845746D01*
X170120852Y-88852708D01*
X170105589Y-88863307D01*
X170085307Y-88877333D01*
X170060313Y-88894576D01*
X170030913Y-88914826D01*
X169997414Y-88937873D01*
X169960122Y-88963508D01*
X169919345Y-88991520D01*
X169875388Y-89021699D01*
X169828558Y-89053837D01*
X169779162Y-89087722D01*
X169727506Y-89123146D01*
X169673896Y-89159898D01*
X169618640Y-89197768D01*
X169562044Y-89236546D01*
X169504414Y-89276024D01*
X169446057Y-89315990D01*
X169387280Y-89356235D01*
X169328388Y-89396550D01*
X169269689Y-89436724D01*
X169211489Y-89476547D01*
X169154095Y-89515810D01*
X169097813Y-89554302D01*
X169042950Y-89591815D01*
X168989812Y-89628137D01*
X168938706Y-89663060D01*
X168889938Y-89696373D01*
X168843815Y-89727867D01*
X168800644Y-89757331D01*
X168760730Y-89784556D01*
X168724381Y-89809332D01*
X168691904Y-89831449D01*
X168663604Y-89850698D01*
X168639788Y-89866867D01*
X168620763Y-89879749D01*
X168606835Y-89889132D01*
X168598311Y-89894807D01*
X168595516Y-89896569D01*
X168592880Y-89893916D01*
X168586703Y-89885982D01*
X168577496Y-89873506D01*
X168565770Y-89857228D01*
X168552036Y-89837888D01*
X168536804Y-89816225D01*
X168520586Y-89792979D01*
X168503893Y-89768890D01*
X168487235Y-89744697D01*
X168471123Y-89721140D01*
X168456068Y-89698958D01*
X168442581Y-89678892D01*
X168431173Y-89661680D01*
X168422355Y-89648062D01*
X168416637Y-89638779D01*
X168414530Y-89634569D01*
X168414529Y-89634543D01*
X168414603Y-89634131D01*
X168414998Y-89633525D01*
X168415928Y-89632578D01*
X168417607Y-89631142D01*
X168420249Y-89629070D01*
X168424069Y-89626214D01*
X168429280Y-89622428D01*
X168436096Y-89617563D01*
X168444732Y-89611472D01*
X168455401Y-89604008D01*
X168468318Y-89595023D01*
X168483696Y-89584370D01*
X168501750Y-89571901D01*
X168522694Y-89557469D01*
X168546742Y-89540927D01*
X168574108Y-89522126D01*
X168605006Y-89500920D01*
X168639649Y-89477162D01*
X168678254Y-89450703D01*
X168721032Y-89421396D01*
X168768198Y-89389094D01*
X168819967Y-89353649D01*
X168876553Y-89314914D01*
X168938169Y-89272742D01*
X169005030Y-89226985D01*
X169077349Y-89177495D01*
X169155341Y-89124126D01*
X169194784Y-89097135D01*
X169251648Y-89058204D01*
X169306874Y-89020357D01*
X169360166Y-88983797D01*
X169411229Y-88948729D01*
X169459766Y-88915357D01*
X169505483Y-88883886D01*
X169548083Y-88854519D01*
X169587270Y-88827462D01*
X169622750Y-88802917D01*
X169654226Y-88781091D01*
X169681403Y-88762186D01*
X169703985Y-88746407D01*
X169721676Y-88733959D01*
X169734181Y-88725046D01*
X169741203Y-88719871D01*
X169742699Y-88718573D01*
X169739647Y-88716282D01*
X169730867Y-88710090D01*
X169716628Y-88700184D01*
X169697202Y-88686747D01*
X169672858Y-88669966D01*
X169643867Y-88650025D01*
X169610497Y-88627108D01*
X169573019Y-88601402D01*
X169531704Y-88573090D01*
X169486821Y-88542359D01*
X169438641Y-88509393D01*
X169387433Y-88474377D01*
X169333467Y-88437497D01*
X169277014Y-88398936D01*
X169218344Y-88358881D01*
X169157726Y-88317516D01*
X169095431Y-88275026D01*
X169075961Y-88261750D01*
X169013220Y-88218971D01*
X168952078Y-88177278D01*
X168892803Y-88136855D01*
X168835666Y-88097887D01*
X168780935Y-88060556D01*
X168728881Y-88025048D01*
X168679773Y-87991545D01*
X168633881Y-87960233D01*
X168591474Y-87931295D01*
X168552823Y-87904915D01*
X168518196Y-87881277D01*
X168487864Y-87860566D01*
X168462096Y-87842965D01*
X168441161Y-87828657D01*
X168425330Y-87817829D01*
X168414872Y-87810662D01*
X168410057Y-87807342D01*
X168409752Y-87807122D01*
X168411634Y-87804077D01*
X168417220Y-87795666D01*
X168426094Y-87782497D01*
X168437842Y-87765182D01*
X168452050Y-87744328D01*
X168468305Y-87720546D01*
X168486190Y-87694446D01*
X168499023Y-87675757D01*
X168518000Y-87648315D01*
X168535825Y-87622870D01*
X168552058Y-87600025D01*
X168566262Y-87580383D01*
X168577996Y-87564546D01*
X168586823Y-87553118D01*
X168592303Y-87546702D01*
X168593866Y-87545503D01*
X168597411Y-87547558D01*
G36*
X168597411Y-87547558D02*
G01*
X168606604Y-87553477D01*
X168621101Y-87563030D01*
X168640560Y-87575985D01*
X168664637Y-87592110D01*
X168692989Y-87611173D01*
X168725273Y-87632944D01*
X168761147Y-87657191D01*
X168800267Y-87683682D01*
X168842291Y-87712185D01*
X168886874Y-87742470D01*
X168933675Y-87774304D01*
X168982350Y-87807456D01*
X169021534Y-87834174D01*
X169079374Y-87873629D01*
X169140697Y-87915455D01*
X169204680Y-87959090D01*
X169270496Y-88003970D01*
X169337322Y-88049535D01*
X169404333Y-88095221D01*
X169470704Y-88140466D01*
X169535609Y-88184708D01*
X169598224Y-88227385D01*
X169657725Y-88267934D01*
X169713286Y-88305793D01*
X169764082Y-88340400D01*
X169787029Y-88356031D01*
X169839742Y-88391988D01*
X169889238Y-88425857D01*
X169935248Y-88457450D01*
X169977504Y-88486579D01*
X170015739Y-88513059D01*
X170049683Y-88536701D01*
X170079069Y-88557319D01*
X170103628Y-88574725D01*
X170123092Y-88588733D01*
X170137194Y-88599155D01*
X170145664Y-88605805D01*
X170147607Y-88607558D01*
X170167469Y-88632608D01*
X170181849Y-88661157D01*
X170190407Y-88691865D01*
X170192799Y-88723393D01*
X170188686Y-88754400D01*
X170186785Y-88761314D01*
X170176612Y-88787004D01*
X170162594Y-88811399D01*
X170146166Y-88832238D01*
X170135097Y-88842630D01*
X170130790Y-88845746D01*
X170120852Y-88852708D01*
X170105589Y-88863307D01*
X170085307Y-88877333D01*
X170060313Y-88894576D01*
X170030913Y-88914826D01*
X169997414Y-88937873D01*
X169960122Y-88963508D01*
X169919345Y-88991520D01*
X169875388Y-89021699D01*
X169828558Y-89053837D01*
X169779162Y-89087722D01*
X169727506Y-89123146D01*
X169673896Y-89159898D01*
X169618640Y-89197768D01*
X169562044Y-89236546D01*
X169504414Y-89276024D01*
X169446057Y-89315990D01*
X169387280Y-89356235D01*
X169328388Y-89396550D01*
X169269689Y-89436724D01*
X169211489Y-89476547D01*
X169154095Y-89515810D01*
X169097813Y-89554302D01*
X169042950Y-89591815D01*
X168989812Y-89628137D01*
X168938706Y-89663060D01*
X168889938Y-89696373D01*
X168843815Y-89727867D01*
X168800644Y-89757331D01*
X168760730Y-89784556D01*
X168724381Y-89809332D01*
X168691904Y-89831449D01*
X168663604Y-89850698D01*
X168639788Y-89866867D01*
X168620763Y-89879749D01*
X168606835Y-89889132D01*
X168598311Y-89894807D01*
X168595516Y-89896569D01*
X168592880Y-89893916D01*
X168586703Y-89885982D01*
X168577496Y-89873506D01*
X168565770Y-89857228D01*
X168552036Y-89837888D01*
X168536804Y-89816225D01*
X168520586Y-89792979D01*
X168503893Y-89768890D01*
X168487235Y-89744697D01*
X168471123Y-89721140D01*
X168456068Y-89698958D01*
X168442581Y-89678892D01*
X168431173Y-89661680D01*
X168422355Y-89648062D01*
X168416637Y-89638779D01*
X168414530Y-89634569D01*
X168414529Y-89634543D01*
X168414603Y-89634131D01*
X168414998Y-89633525D01*
X168415928Y-89632578D01*
X168417607Y-89631142D01*
X168420249Y-89629070D01*
X168424069Y-89626214D01*
X168429280Y-89622428D01*
X168436096Y-89617563D01*
X168444732Y-89611472D01*
X168455401Y-89604008D01*
X168468318Y-89595023D01*
X168483696Y-89584370D01*
X168501750Y-89571901D01*
X168522694Y-89557469D01*
X168546742Y-89540927D01*
X168574108Y-89522126D01*
X168605006Y-89500920D01*
X168639649Y-89477162D01*
X168678254Y-89450703D01*
X168721032Y-89421396D01*
X168768198Y-89389094D01*
X168819967Y-89353649D01*
X168876553Y-89314914D01*
X168938169Y-89272742D01*
X169005030Y-89226985D01*
X169077349Y-89177495D01*
X169155341Y-89124126D01*
X169194784Y-89097135D01*
X169251648Y-89058204D01*
X169306874Y-89020357D01*
X169360166Y-88983797D01*
X169411229Y-88948729D01*
X169459766Y-88915357D01*
X169505483Y-88883886D01*
X169548083Y-88854519D01*
X169587270Y-88827462D01*
X169622750Y-88802917D01*
X169654226Y-88781091D01*
X169681403Y-88762186D01*
X169703985Y-88746407D01*
X169721676Y-88733959D01*
X169734181Y-88725046D01*
X169741203Y-88719871D01*
X169742699Y-88718573D01*
X169739647Y-88716282D01*
X169730867Y-88710090D01*
X169716628Y-88700184D01*
X169697202Y-88686747D01*
X169672858Y-88669966D01*
X169643867Y-88650025D01*
X169610497Y-88627108D01*
X169573019Y-88601402D01*
X169531704Y-88573090D01*
X169486821Y-88542359D01*
X169438641Y-88509393D01*
X169387433Y-88474377D01*
X169333467Y-88437497D01*
X169277014Y-88398936D01*
X169218344Y-88358881D01*
X169157726Y-88317516D01*
X169095431Y-88275026D01*
X169075961Y-88261750D01*
X169013220Y-88218971D01*
X168952078Y-88177278D01*
X168892803Y-88136855D01*
X168835666Y-88097887D01*
X168780935Y-88060556D01*
X168728881Y-88025048D01*
X168679773Y-87991545D01*
X168633881Y-87960233D01*
X168591474Y-87931295D01*
X168552823Y-87904915D01*
X168518196Y-87881277D01*
X168487864Y-87860566D01*
X168462096Y-87842965D01*
X168441161Y-87828657D01*
X168425330Y-87817829D01*
X168414872Y-87810662D01*
X168410057Y-87807342D01*
X168409752Y-87807122D01*
X168411634Y-87804077D01*
X168417220Y-87795666D01*
X168426094Y-87782497D01*
X168437842Y-87765182D01*
X168452050Y-87744328D01*
X168468305Y-87720546D01*
X168486190Y-87694446D01*
X168499023Y-87675757D01*
X168518000Y-87648315D01*
X168535825Y-87622870D01*
X168552058Y-87600025D01*
X168566262Y-87580383D01*
X168577996Y-87564546D01*
X168586823Y-87553118D01*
X168592303Y-87546702D01*
X168593866Y-87545503D01*
X168597411Y-87547558D01*
G37*
%TD*%
D14*
%TO.C,Q1*%
X164437500Y-108350000D03*
X164437500Y-106450000D03*
X162562500Y-107400000D03*
%TD*%
D15*
%TO.C,R1*%
X166256812Y-106325000D03*
X166256812Y-107975000D03*
%TD*%
D16*
%TO.C,U2*%
X148274000Y-106807000D03*
X148274000Y-108077000D03*
X148274000Y-109347000D03*
X148274000Y-110617000D03*
X153224000Y-110617000D03*
X153224000Y-109347000D03*
X153224000Y-108077000D03*
X153224000Y-106807000D03*
%TD*%
D17*
%TO.C,C4*%
X155300000Y-107825000D03*
X155300000Y-109375000D03*
%TD*%
D18*
%TO.C,L2*%
X151350000Y-120050000D03*
X147650000Y-120050000D03*
%TD*%
D19*
%TO.C,C5*%
X145300000Y-92025000D03*
X145300000Y-90475000D03*
%TD*%
D14*
%TO.C,Q2*%
X161317500Y-113090000D03*
X161317500Y-111190000D03*
X159442500Y-112140000D03*
%TD*%
D20*
%TO.C,R3*%
X163110000Y-111515000D03*
X163110000Y-109865000D03*
%TD*%
D15*
%TO.C,R6*%
X156800000Y-107775000D03*
X156800000Y-109425000D03*
%TD*%
%TO.C,R2*%
X167756812Y-106325000D03*
X167756812Y-107975000D03*
%TD*%
D21*
%TO.C,D1*%
X155462500Y-111000000D03*
X157187500Y-111000000D03*
%TD*%
D22*
%TO.C,R14*%
X150245000Y-112610000D03*
X151895000Y-112610000D03*
%TD*%
D23*
%TO.C,R8*%
X157150000Y-112500000D03*
X155500000Y-112500000D03*
%TD*%
D17*
%TO.C,C10*%
X154175000Y-114675000D03*
X154175000Y-116225000D03*
%TD*%
%TO.C,C6*%
X145400000Y-95350000D03*
X145400000Y-96900000D03*
%TD*%
D15*
%TO.C,R9*%
X144000000Y-85025000D03*
X144000000Y-86675000D03*
%TD*%
D24*
%TO.C,C12*%
X146525000Y-116600000D03*
X148075000Y-116600000D03*
%TD*%
D17*
%TO.C,C1*%
X159300000Y-106600000D03*
X159300000Y-108150000D03*
%TD*%
D22*
%TO.C,R4*%
X155600000Y-114200000D03*
X157250000Y-114200000D03*
%TD*%
D25*
%TO.C,H2*%
X131775000Y-108605000D03*
X132258274Y-107438274D03*
X132258274Y-109771726D03*
X133425000Y-106955000D03*
D26*
X133425000Y-108605000D03*
D25*
X133425000Y-110255000D03*
X134591726Y-107438274D03*
X134591726Y-109771726D03*
X135075000Y-108605000D03*
%TD*%
D19*
%TO.C,C13*%
X143800000Y-92025000D03*
X143800000Y-90475000D03*
%TD*%
%TO.C,C2*%
X145500000Y-86625000D03*
X145500000Y-85075000D03*
%TD*%
D27*
%TO.C,C3*%
X145350000Y-89000000D03*
X143800000Y-89000000D03*
%TD*%
D28*
%TO.C,H1*%
X165550000Y-123605000D03*
X166143109Y-122173109D03*
X166143109Y-125036891D03*
X167575000Y-121580000D03*
D29*
X167575000Y-123605000D03*
D28*
X167575000Y-125630000D03*
X169006891Y-122173109D03*
X169006891Y-125036891D03*
X169600000Y-123605000D03*
%TD*%
D30*
%TO.C,J4*%
X168300000Y-114600000D03*
D31*
X166800000Y-116075000D03*
X166800000Y-113125000D03*
D30*
X165300000Y-114600000D03*
%TD*%
D32*
%TO.C,U1*%
X147750000Y-86238000D03*
X147750000Y-87508000D03*
X147750000Y-88778000D03*
X147750000Y-90048000D03*
X147750000Y-91318000D03*
X147750000Y-92588000D03*
X147750000Y-93858000D03*
X147750000Y-95128000D03*
X147750000Y-96398000D03*
X147750000Y-97668000D03*
X147750000Y-98938000D03*
X147750000Y-100208000D03*
X147750000Y-101478000D03*
X147750000Y-102748000D03*
D33*
X150790000Y-103998000D03*
X152060000Y-103998000D03*
X153330000Y-103998000D03*
X154600000Y-103998000D03*
X155870000Y-103998000D03*
X157140000Y-103998000D03*
X158410000Y-103998000D03*
X159680000Y-103998000D03*
X160950000Y-103998000D03*
X162220000Y-103998000D03*
D32*
X165250000Y-102748000D03*
X165250000Y-101478000D03*
X165250000Y-100208000D03*
X165250000Y-98938000D03*
X165250000Y-97668000D03*
X165250000Y-96398000D03*
X165250000Y-95128000D03*
X165250000Y-93858000D03*
X165250000Y-92588000D03*
X165250000Y-91318000D03*
X165250000Y-90048000D03*
X165250000Y-88778000D03*
X165250000Y-87508000D03*
X165250000Y-86238000D03*
D34*
X153600000Y-93258000D03*
X153600000Y-94658000D03*
X154300000Y-92558000D03*
X154300000Y-93958000D03*
X154300000Y-95358000D03*
X154975000Y-93258000D03*
X154975000Y-94658000D03*
D35*
X155000000Y-93958000D03*
D34*
X155700000Y-92558000D03*
X155700000Y-93958000D03*
X155700000Y-95358000D03*
X156400000Y-93258000D03*
X156400000Y-94658000D03*
%TD*%
D36*
%TO.C,Q4*%
X162040000Y-121777500D03*
X163940000Y-121777500D03*
X162990000Y-119902500D03*
%TD*%
D15*
%TO.C,R16*%
X161300000Y-116575000D03*
X161300000Y-118225000D03*
%TD*%
D24*
%TO.C,C11*%
X146525000Y-115100000D03*
X148075000Y-115100000D03*
%TD*%
D22*
%TO.C,R7*%
X159225000Y-109700000D03*
X160875000Y-109700000D03*
%TD*%
D15*
%TO.C,R5*%
X160800000Y-106550000D03*
X160800000Y-108200000D03*
%TD*%
D37*
%TO.C,TP1*%
X150100000Y-83550000D03*
%TD*%
D22*
%TO.C,R13*%
X146475000Y-113600000D03*
X148125000Y-113600000D03*
%TD*%
D38*
%TO.C,U5*%
X150450000Y-116587500D03*
X151400000Y-116587500D03*
X152350000Y-116587500D03*
X152350000Y-114312500D03*
X150450000Y-114312500D03*
%TD*%
D37*
%TO.C,TP2*%
X154600000Y-84010000D03*
%TD*%
D15*
%TO.C,R10*%
X159722382Y-120499320D03*
X159722382Y-122149320D03*
%TD*%
%TO.C,R11*%
X158122382Y-120474320D03*
X158122382Y-122124320D03*
%TD*%
D36*
%TO.C,Q5*%
X157790000Y-118820000D03*
X159690000Y-118820000D03*
X158740000Y-116945000D03*
%TD*%
D15*
%TO.C,R15*%
X162800000Y-116575000D03*
X162800000Y-118225000D03*
%TD*%
%TO.C,R12*%
X167977061Y-117889345D03*
X167977061Y-119539345D03*
%TD*%
D20*
%TO.C,R17*%
X169477061Y-119539345D03*
X169477061Y-117889345D03*
%TD*%
D39*
%TO.C,BZ1*%
X134700000Y-88640000D03*
D40*
X137900000Y-88640000D03*
%TD*%
D41*
%TO.C,U4*%
X141115000Y-104455000D03*
D42*
X134815000Y-102175000D03*
D41*
X141115000Y-99895000D03*
%TD*%
D28*
%TO.C,H4*%
X131400000Y-77605000D03*
X131993109Y-76173109D03*
X131993109Y-79036891D03*
D29*
X133400000Y-77605000D03*
D28*
X133425000Y-75580000D03*
X133425000Y-79630000D03*
X134856891Y-76173109D03*
X134856891Y-79036891D03*
X135450000Y-77605000D03*
%TD*%
D43*
%TO.C,Q3*%
X141480000Y-95452500D03*
X139580000Y-95452500D03*
X140530000Y-97327500D03*
%TD*%
D44*
%TO.C,C7*%
X139150000Y-108475000D03*
X142750000Y-108475000D03*
%TD*%
D15*
%TO.C,R18*%
X141520000Y-91985000D03*
X141520000Y-93635000D03*
%TD*%
D45*
%TO.C,J1*%
X145625000Y-124725000D03*
D46*
X148165000Y-124725000D03*
X150705000Y-124725000D03*
X153245000Y-124725000D03*
X155785000Y-124725000D03*
X158325000Y-124725000D03*
X160865000Y-124725000D03*
X163405000Y-124725000D03*
%TD*%
D15*
%TO.C,R19*%
X137550000Y-96245000D03*
X137550000Y-97895000D03*
%TD*%
D47*
%TO.C,J3*%
X136042500Y-113200000D03*
D48*
X136042500Y-119200000D03*
D49*
X140742500Y-116200000D03*
%TD*%
D28*
%TO.C,H3*%
X165550000Y-77605000D03*
X166143109Y-76173109D03*
X166143109Y-79036891D03*
X167575000Y-75580000D03*
X167575000Y-79630000D03*
D29*
X167606891Y-77605000D03*
D28*
X169006891Y-76173109D03*
X169006891Y-79036891D03*
X169600000Y-77605000D03*
%TD*%
D45*
%TO.C,J2*%
X137850000Y-76700000D03*
D46*
X140390000Y-76700000D03*
X142930000Y-76700000D03*
X145470000Y-76700000D03*
X148010000Y-76700000D03*
X150550000Y-76700000D03*
X153090000Y-76700000D03*
X155630000Y-76700000D03*
X158170000Y-76700000D03*
X160710000Y-76700000D03*
X163250000Y-76700000D03*
%TD*%
%LPD*%
M02*
